<?xml version="1.0" encoding="UTF-8"?>
<svg id="Layer_2" data-name="Layer 2" xmlns="http://www.w3.org/2000/svg" viewBox="0 0 95.05 41.97">
  <defs>
    <style>
      .cls-1 {
        fill: #f26f21;
      }

      .cls-2 {
        fill: #ed3024;
      }
    </style>
  </defs>
  <g id="Layer_1-2" data-name="Layer 1">
    <g>
      <path class="cls-2" d="m88.25,4.48l-1.29-3.64c-.23-.65-.95-1-1.6-.76-.66.23-1.01.95-.77,1.6l1.34,3.83,1.62.91.69-1.94"/>
      <path class="cls-1" d="m90.55,5.5l1.35-3.83c.23-.65-.1-1.37-.76-1.6-.66-.24-1.37.11-1.61.76l-1.27,3.64.68,1.94,1.62-.91"/>
      <path class="cls-2" d="m94.89,4.5c-.35-.61-1.12-.83-1.73-.48l-2.61,1.49-.71,2.01,1.36.51,3.2-1.82c.6-.34.82-1.12.48-1.71"/>
      <path class="cls-1" d="m89.51,10.08l2.74,1.02.45.08c.51,0,.98-.31,1.18-.81.24-.66-.08-1.38-.74-1.63l-1.92-.72-1.7.97v1.08"/>
      <path class="cls-2" d="m87,10.08v1.98c0,.69.56,1.26,1.26,1.26s1.25-.57,1.25-1.26v-1.98l-1.25-.48-1.26.48"/>
      <path class="cls-2" d="m85.28,8.02l-1.92.72c-.65.25-.98.97-.73,1.63.19.5.67.81,1.18.81l.44-.08,2.75-1.02v-1.08l-1.72-.97"/>
      <path class="cls-1" d="m85.94,5.5l-2.61-1.49c-.6-.35-1.37-.13-1.71.48-.34.59-.13,1.37.47,1.71l3.2,1.82,1.36-.51-.71-2.01"/>
      <path class="cls-2" d="m40.66,41.59c4.43,0,8.48-1.87,11.34-4.84,1.93-1.97,3.34-4.45,4.07-7.21l4.96,9.31c.77,1.45,2.26,2.35,3.91,2.35s3.13-.9,3.9-2.35l12.1-22.73c1.16-2.16.33-4.85-1.83-6-2.16-1.15-4.84-.33-5.99,1.85l-7.82,15.2-.36,1.25-.36-1.25-7.81-15.2c-1.16-2.18-3.84-2.99-6-1.85-2.17,1.16-2.99,3.84-1.84,6l2.92,5.48h-9c-2.04,0-3.69,1.7-3.69,3.82s1.65,3.8,3.69,3.8h4.44c-1.19,1.84-3.23,3.63-6.63,3.63-1.99,0-3.74-.8-5.08-2.17-1.33-1.38-2.17-3.27-2.17-5.43,0-3.72,2.56-6.74,5.75-7.43,2.35-.53,3.84-2.86,3.32-5.21-.31-1.39-1.25-2.48-2.46-3.03-1.74-.76-3.89,0-3.89,0-6.7,2.02-11.46,8.32-11.47,15.67,0,.96.09,1.89.25,2.8-1.4,2.3-4.04,5.19-8.45,5.19s-7.73-3.48-7.73-7.82c0-3.87,2.75-7.05,6.33-7.71,0,0,.9-.18,2.35-.29,1.4-.12,3.41-1.75,3.41-4.2s-1.96-4.36-4.37-4.36C7.34,8.84,0,16.29,0,25.41c0,9.12,7.34,16.55,16.46,16.56,4.97,0,9.39-2.21,12.4-5.69,0,0,4.23,5.3,11.81,5.3"/>
    </g>
  </g>
</svg>