<?xml version="1.0" encoding="UTF-8"?>
<svg id="Layer_2" data-name="Layer 2" xmlns="http://www.w3.org/2000/svg" xmlns:xlink="http://www.w3.org/1999/xlink" viewBox="0 0 1080 1350">
  <defs>
    <style>
      .cls-1 {
        fill: #fbc783;
      }

      .cls-2 {
        fill: url(#radial-gradient);
      }
    </style>
    <radialGradient id="radial-gradient" cx="658.77" cy="1051.21" fx="658.77" fy="1051.21" r="817.35" gradientUnits="userSpaceOnUse">
      <stop offset="0" stop-color="#fcd37d"/>
      <stop offset="1" stop-color="#f69898"/>
    </radialGradient>
  </defs>
  <g id="Layer_1-2" data-name="Layer 1">
    <g>
      <rect id="Rectangle_3" data-name="Rectangle 3" class="cls-2" width="1080" height="1350"/>
      <g>
        <g>
          <path class="cls-1" d="m205.65,431.52c2.67,0,4.85-2.17,4.85-4.85s-2.18-4.85-4.85-4.85-4.85,2.17-4.85,4.85,2.18,4.85,4.85,4.85Zm0-8.38c1.95,0,3.53,1.58,3.53,3.53s-1.58,3.53-3.53,3.53-3.53-1.58-3.53-3.53,1.58-3.53,3.53-3.53Z"/>
          <path class="cls-1" d="m203.28,436.09c0,1.31,1.06,2.37,2.37,2.37s2.37-1.06,2.37-2.37-1.06-2.37-2.37-2.37-2.37,1.06-2.37,2.37Z"/>
          <path class="cls-1" d="m219.93,436.09c0-2.67-2.18-4.85-4.85-4.85s-4.85,2.17-4.85,4.85,2.18,4.85,4.85,4.85,4.85-2.17,4.85-4.85Zm-4.85,3.53c-1.95,0-3.53-1.58-3.53-3.53s1.58-3.53,3.53-3.53,3.53,1.58,3.53,3.53-1.58,3.53-3.53,3.53Z"/>
          <path class="cls-1" d="m205.65,440.67c-2.67,0-4.85,2.17-4.85,4.85s2.18,4.85,4.85,4.85,4.85-2.18,4.85-4.85-2.18-4.85-4.85-4.85Zm-3.53,4.85c0-1.95,1.58-3.53,3.53-3.53s3.53,1.58,3.53,3.53-1.58,3.53-3.53,3.53-3.53-1.58-3.53-3.53Z"/>
          <path class="cls-1" d="m196.22,431.24c-2.67,0-4.85,2.17-4.85,4.85s2.18,4.85,4.85,4.85,4.85-2.17,4.85-4.85-2.18-4.85-4.85-4.85Zm0,8.38c-1.95,0-3.53-1.58-3.53-3.53s1.58-3.53,3.53-3.53,3.53,1.58,3.53,3.53-1.58,3.53-3.53,3.53Z"/>
          <path class="cls-1" d="m227.41,422.24c0-4.36-3.55-7.91-7.91-7.91-3.17,0-5.9,1.88-7.16,4.57-2.08-.81-4.33-1.27-6.69-1.27-10.18,0-18.47,8.28-18.47,18.47s8.28,18.47,18.47,18.47c.28,0,.56-.03.84-.04.07.02.14.04.21.04h14.66c.36,0,.66-.29.66-.66s-.29-.66-.66-.66h-8.9c6.82-2.72,11.65-9.37,11.65-17.15,0-2.36-.46-4.61-1.27-6.69,2.69-1.26,4.57-3.99,4.57-7.16Zm-21.76,31c-9.45,0-17.15-7.69-17.15-17.15s7.69-17.15,17.15-17.15c2.2,0,4.3.43,6.23,1.19-.19.67-.29,1.38-.29,2.11,0,4.36,3.55,7.91,7.91,7.91.73,0,1.44-.11,2.11-.29.76,1.93,1.19,4.03,1.19,6.23,0,9.46-7.69,17.15-17.15,17.15Zm16.06-24.81c-.21.08-.42.15-.64.2-.5.12-1.02.21-1.56.21-3.64,0-6.59-2.96-6.59-6.59,0-.54.08-1.06.21-1.56.05-.22.12-.43.2-.64.07-.21.15-.41.25-.61,1.06-2.23,3.31-3.78,5.94-3.78,3.64,0,6.59,2.96,6.59,6.59,0,2.63-1.55,4.88-3.78,5.94-.2.09-.4.17-.61.25Z"/>
          <path class="cls-1" d="m224.09,420.75c-.12-.37-.44-.63-.82-.68l-2.01-.24-.85-1.84c-.33-.71-1.47-.71-1.79,0l-.85,1.84-2.01.24c-.2.02-.39.11-.53.24-.13.11-.23.26-.29.43-.01.05-.02.09-.02.14-.06.33.04.66.29.89l.32.29,1.17,1.09-.39,1.99c-.08.38.07.76.39.99.31.23.72.25,1.06.06l1.35-.75.42-.24.4.22,1.3.72.08.04c.15.08.32.13.48.13.2,0,.41-.06.58-.19.31-.23.46-.61.39-.99l-.39-1.99,1.48-1.38c.29-.27.39-.66.27-1.03Zm-2.79,3.96l-1.31-.73c-.15-.08-.32-.12-.48-.12-.02,0-.03.01-.05.01-.15,0-.3.04-.43.11l-.23.13-.6.33-.49.27.13-.66.15-.78v-.03c.07-.34-.04-.68-.29-.91l-1.1-1.02h.05s1.44-.18,1.44-.18c.34-.04.64-.26.78-.57l.63-1.36.63,1.36c.14.31.44.53.78.57l1.49.18-1.1,1.02c-.25.23-.37.58-.3.92l.29,1.47Z"/>
        </g>
        <g>
          <path class="cls-1" d="m776.36,764.04c2.67,0,4.85-2.17,4.85-4.85s-2.18-4.85-4.85-4.85-4.85,2.17-4.85,4.85,2.18,4.85,4.85,4.85Zm0-8.38c1.95,0,3.53,1.58,3.53,3.53s-1.58,3.53-3.53,3.53-3.53-1.58-3.53-3.53,1.58-3.53,3.53-3.53Z"/>
          <path class="cls-1" d="m773.98,768.62c0,1.31,1.06,2.37,2.37,2.37s2.37-1.06,2.37-2.37-1.06-2.37-2.37-2.37-2.37,1.06-2.37,2.37Z"/>
          <path class="cls-1" d="m790.64,768.62c0-2.67-2.18-4.85-4.85-4.85s-4.85,2.17-4.85,4.85,2.18,4.85,4.85,4.85,4.85-2.17,4.85-4.85Zm-4.85,3.53c-1.95,0-3.53-1.58-3.53-3.53s1.58-3.53,3.53-3.53,3.53,1.58,3.53,3.53-1.58,3.53-3.53,3.53Z"/>
          <path class="cls-1" d="m776.36,773.2c-2.67,0-4.85,2.17-4.85,4.85s2.18,4.85,4.85,4.85,4.85-2.18,4.85-4.85-2.18-4.85-4.85-4.85Zm-3.53,4.85c0-1.95,1.58-3.53,3.53-3.53s3.53,1.58,3.53,3.53-1.58,3.53-3.53,3.53-3.53-1.58-3.53-3.53Z"/>
          <path class="cls-1" d="m766.93,763.77c-2.67,0-4.85,2.17-4.85,4.85s2.18,4.85,4.85,4.85,4.85-2.17,4.85-4.85-2.18-4.85-4.85-4.85Zm0,8.38c-1.95,0-3.53-1.58-3.53-3.53s1.58-3.53,3.53-3.53,3.53,1.58,3.53,3.53-1.58,3.53-3.53,3.53Z"/>
          <path class="cls-1" d="m798.12,754.77c0-4.36-3.55-7.91-7.91-7.91-3.17,0-5.9,1.88-7.16,4.57-2.08-.81-4.33-1.27-6.69-1.27-10.18,0-18.47,8.28-18.47,18.47s8.28,18.47,18.47,18.47c.28,0,.56-.03.84-.04.07.02.14.04.21.04h14.66c.36,0,.66-.29.66-.66s-.29-.66-.66-.66h-8.9c6.82-2.72,11.65-9.37,11.65-17.15,0-2.36-.46-4.61-1.27-6.69,2.69-1.26,4.57-3.99,4.57-7.16Zm-21.76,31c-9.45,0-17.15-7.69-17.15-17.15s7.69-17.15,17.15-17.15c2.2,0,4.3.43,6.23,1.19-.19.67-.29,1.38-.29,2.11,0,4.36,3.55,7.91,7.91,7.91.73,0,1.44-.11,2.11-.29.76,1.93,1.19,4.03,1.19,6.23,0,9.46-7.69,17.15-17.15,17.15Zm16.06-24.81c-.21.08-.42.15-.64.2-.5.12-1.02.21-1.56.21-3.64,0-6.59-2.96-6.59-6.59,0-.54.08-1.06.21-1.56.05-.22.12-.43.2-.64.07-.21.15-.41.25-.61,1.06-2.23,3.31-3.78,5.94-3.78,3.64,0,6.59,2.96,6.59,6.59,0,2.63-1.55,4.88-3.78,5.94-.2.09-.4.17-.61.25Z"/>
          <path class="cls-1" d="m794.8,753.28c-.12-.37-.44-.63-.82-.68l-2.01-.24-.85-1.84c-.33-.71-1.47-.71-1.79,0l-.85,1.84-2.01.24c-.2.02-.39.11-.53.24-.13.11-.23.26-.29.43-.01.05-.02.09-.02.14-.06.33.04.66.29.89l.32.29,1.17,1.09-.39,1.99c-.08.38.07.76.39.99.31.23.72.25,1.06.06l1.35-.75.42-.24.4.22,1.3.72.08.04c.15.08.32.13.48.13.2,0,.41-.06.58-.19.31-.23.46-.61.39-.99l-.39-1.99,1.48-1.38c.29-.27.39-.66.27-1.03Zm-2.79,3.96l-1.31-.73c-.15-.08-.32-.12-.48-.12-.02,0-.03.01-.05.01-.15,0-.3.04-.43.11l-.23.13-.6.33-.49.27.13-.66.15-.78v-.03c.07-.34-.04-.68-.29-.91l-1.1-1.02h.05s1.44-.18,1.44-.18c.34-.04.64-.26.78-.57l.63-1.36.63,1.36c.14.31.44.53.78.57l1.49.18-1.1,1.02c-.25.23-.37.58-.3.92l.29,1.47Z"/>
        </g>
        <g>
          <path class="cls-1" d="m244.42,792.81c0-4.61-1.86-8.94-5.23-12.19-3.36-3.25-7.83-5.04-12.58-5.05h0c-4.75,0-9.22,1.8-12.58,5.05-3.37,3.25-5.22,7.58-5.23,12.19,0,3.72,1.27,7.4,3.64,10.42.12.16.46.58.52.65l11.17,12.73c.63.71,1.53,1.12,2.48,1.12s1.85-.41,2.48-1.12l11.17-12.74h.01c.08-.11.5-.64.5-.64,0,0,0,0,0,0,.03-.03.05-.06.08-.09,2.31-2.95,3.58-6.62,3.57-10.33Zm-4.58,9.48s-.05.06-.07.09c-.08.11-.43.55-.5.63l-11.17,12.74c-.75.86-2.22.86-2.98,0l-11.17-12.73c-.06-.07-.36-.45-.52-.65-2.14-2.73-3.32-6.12-3.31-9.54,0-4.25,1.72-8.24,4.83-11.25,3.11-3.01,7.25-4.67,11.66-4.68,4.41,0,8.55,1.67,11.66,4.68,3.11,3.01,4.82,7,4.83,11.25,0,3.42-1.17,6.81-3.26,9.48Z"/>
          <path class="cls-1" d="m237.16,792.72c0-5.82-4.73-10.55-10.55-10.55s-10.55,4.73-10.55,10.55,4.73,10.55,10.55,10.55c.16,0,.31-.02.47-.02.04,0,.08.02.12.02h8.15c.36,0,.66-.29.66-.66s-.29-.66-.66-.66h-3.63c3.25-1.8,5.45-5.26,5.45-9.23Zm-10.55,9.23c-5.09,0-9.23-4.14-9.23-9.23s4.14-9.23,9.23-9.23,9.23,4.14,9.23,9.23-4.14,9.23-9.23,9.23Z"/>
          <path class="cls-1" d="m226.61,790.47c1.65,0,2.99-1.34,2.99-2.99s-1.34-2.99-2.99-2.99-2.99,1.34-2.99,2.99,1.34,2.99,2.99,2.99Zm0-4.66c.92,0,1.67.75,1.67,1.67s-.75,1.67-1.67,1.67-1.67-.75-1.67-1.67.75-1.67,1.67-1.67Z"/>
          <circle class="cls-1" cx="226.61" cy="792.72" r="1.32"/>
          <path class="cls-1" d="m231.85,789.73c-1.65,0-2.99,1.34-2.99,2.99s1.34,2.99,2.99,2.99,2.99-1.34,2.99-2.99-1.34-2.99-2.99-2.99Zm0,4.66c-.92,0-1.67-.75-1.67-1.67s.75-1.67,1.67-1.67,1.67.75,1.67,1.67-.75,1.67-1.67,1.67Z"/>
          <path class="cls-1" d="m226.61,794.97c-1.65,0-2.99,1.34-2.99,2.99s1.34,2.99,2.99,2.99,2.99-1.34,2.99-2.99-1.34-2.99-2.99-2.99Zm0,4.66c-.92,0-1.67-.75-1.67-1.67s.75-1.67,1.67-1.67,1.67.75,1.67,1.67-.75,1.67-1.67,1.67Z"/>
          <path class="cls-1" d="m221.37,789.73c-1.65,0-2.99,1.34-2.99,2.99s1.34,2.99,2.99,2.99,2.99-1.34,2.99-2.99-1.34-2.99-2.99-2.99Zm0,4.66c-.92,0-1.67-.75-1.67-1.67s.75-1.67,1.67-1.67,1.67.75,1.67,1.67-.75,1.67-1.67,1.67Z"/>
        </g>
        <g>
          <path class="cls-1" d="m947.59,486.28c0-4.61-1.86-8.94-5.23-12.19-3.36-3.25-7.83-5.04-12.58-5.05h0c-4.75,0-9.22,1.8-12.58,5.05-3.37,3.25-5.22,7.58-5.23,12.19,0,3.72,1.27,7.4,3.64,10.42.12.16.46.58.52.65l11.17,12.73c.63.71,1.53,1.12,2.48,1.12s1.85-.41,2.48-1.12l11.17-12.74h.01c.08-.11.5-.64.5-.64,0,0,0,0,0,0,.03-.03.05-.06.08-.09,2.31-2.95,3.58-6.62,3.57-10.33Zm-4.58,9.48s-.05.06-.07.09c-.08.11-.43.55-.5.63l-11.17,12.74c-.75.86-2.22.86-2.98,0l-11.17-12.73c-.06-.07-.36-.45-.52-.65-2.14-2.73-3.32-6.12-3.31-9.54,0-4.25,1.72-8.24,4.83-11.25,3.11-3.01,7.25-4.67,11.66-4.68,4.41,0,8.55,1.67,11.66,4.68,3.11,3.01,4.82,7,4.83,11.25,0,3.42-1.17,6.81-3.26,9.48Z"/>
          <path class="cls-1" d="m940.33,486.18c0-5.82-4.73-10.55-10.55-10.55s-10.55,4.73-10.55,10.55,4.73,10.55,10.55,10.55c.16,0,.31-.02.47-.02.04,0,.08.02.12.02h8.15c.36,0,.66-.29.66-.66s-.29-.66-.66-.66h-3.63c3.25-1.8,5.45-5.26,5.45-9.23Zm-10.55,9.23c-5.09,0-9.23-4.14-9.23-9.23s4.14-9.23,9.23-9.23,9.23,4.14,9.23,9.23-4.14,9.23-9.23,9.23Z"/>
          <path class="cls-1" d="m929.78,483.93c1.65,0,2.99-1.34,2.99-2.99s-1.34-2.99-2.99-2.99-2.99,1.34-2.99,2.99,1.34,2.99,2.99,2.99Zm0-4.66c.92,0,1.67.75,1.67,1.67s-.75,1.67-1.67,1.67-1.67-.75-1.67-1.67.75-1.67,1.67-1.67Z"/>
          <circle class="cls-1" cx="929.78" cy="486.18" r="1.32"/>
          <path class="cls-1" d="m935.02,483.2c-1.65,0-2.99,1.34-2.99,2.99s1.34,2.99,2.99,2.99,2.99-1.34,2.99-2.99-1.34-2.99-2.99-2.99Zm0,4.66c-.92,0-1.67-.75-1.67-1.67s.75-1.67,1.67-1.67,1.67.75,1.67,1.67-.75,1.67-1.67,1.67Z"/>
          <path class="cls-1" d="m929.78,488.43c-1.65,0-2.99,1.34-2.99,2.99s1.34,2.99,2.99,2.99,2.99-1.34,2.99-2.99-1.34-2.99-2.99-2.99Zm0,4.66c-.92,0-1.67-.75-1.67-1.67s.75-1.67,1.67-1.67,1.67.75,1.67,1.67-.75,1.67-1.67,1.67Z"/>
          <path class="cls-1" d="m924.54,483.2c-1.65,0-2.99,1.34-2.99,2.99s1.34,2.99,2.99,2.99,2.99-1.34,2.99-2.99-1.34-2.99-2.99-2.99Zm0,4.66c-.92,0-1.67-.75-1.67-1.67s.75-1.67,1.67-1.67,1.67.75,1.67,1.67-.75,1.67-1.67,1.67Z"/>
        </g>
        <g>
          <path class="cls-1" d="m909.98,798.51l-2.42-2.42-.93-.93-.93.93h0c-.62.62-1.62.62-2.24,0-.62-.62-.62-1.62,0-2.24l.93-.93-.93-.93-2.42-2.42c-2.58-2.58-6.75-2.58-9.33,0l-22.29,22.29c-2.58,2.58-2.58,6.75,0,9.33l2.42,2.42.93.93.93-.93c.62-.62,1.62-.62,2.24,0,.62.62.62,1.62,0,2.24h0l-.93.93.93.93,2.42,2.42c2.58,2.58,6.75,2.58,9.33,0l22.29-22.29c2.58-2.58,2.58-6.75,0-9.33Zm-.93,8.39l-22.29,22.29c-2.06,2.06-5.4,2.06-7.46,0l-2.42-2.42c1.13-1.13,1.13-2.97,0-4.1-1.13-1.13-2.97-1.13-4.1,0l-2.42-2.42c-2.06-2.06-2.06-5.4,0-7.46l22.29-22.29c2.06-2.06,5.4-2.06,7.46,0l2.42,2.42h0c-1.13,1.13-1.13,2.97,0,4.1,1.13,1.13,2.97,1.13,4.1,0h0s2.42,2.42,2.42,2.42c2.06,2.06,2.06,5.4,0,7.46Z"/>
          <path class="cls-1" d="m897.69,799.16c-.15-.5-.68-.78-1.18-.63-.5.15-.78.68-.62,1.18l1.13,3.47.13.24-.24-.13-3.47-1.13c-.5-.16-1.03.12-1.18.62-.15.5.13,1.03.63,1.18l1.27.39-1.35,1.35c-.31.31-.3.81.02,1.13.32.32.82.33,1.13.02l.67-.67c.1.46.07,1.04-.45,1.55-.3.3-.68.44-1.09.43-.41,0-.82-.17-1.15-.5-.57-.56-.64-1.4-.26-1.99.27-.43.14-1.01-.29-1.29-.26-.16-.56-.19-.83-.09-.38.15-.58.58-.58.58-.7,1.31-.46,2.98.65,4.09.14.14.3.27.46.39.14.56.18,1.39-.48,2.05-.64.63-1.69.63-2.34-.03-.59-.59-.65-1.48-.22-2.12,0,0,.11-.16.31-.4.19-.23.25-.78-.12-1.15-.36-.36-.95-.37-1.32,0-1.37,1.37-1.34,3.59.04,4.98,1.38,1.38,3.61,1.41,4.98.04.74-.75,1.07-1.74,1-2.72,0,0,1.44.17,2.57-.97.67-.67.99-1.56.97-2.43-.01-.59-.17-1.17-.48-1.7l2.15.67c.33.1.7.02.94-.23.25-.25.33-.61.23-.94l-1.63-5.26Z"/>
          <path class="cls-1" d="m880.04,811.79c-.26-.26-.67-.26-.93,0s-.26.67,0,.93l1.87,1.87c.13.13.3.19.47.19s.34-.06.47-.19c.26-.26.26-.67,0-.93l-1.87-1.87Z"/>
          <path class="cls-1" d="m876.31,808.06c-.26-.26-.67-.26-.93,0s-.26.67,0,.93l1.87,1.87c.13.13.3.19.47.19s.34-.06.47-.19c.26-.26.26-.67,0-.93l-1.87-1.87Z"/>
          <path class="cls-1" d="m883.77,815.52c-.26-.26-.67-.26-.93,0s-.26.67,0,.93l1.87,1.87c.13.13.3.19.47.19s.34-.06.47-.19c.26-.26.26-.67,0-.93l-1.87-1.87Z"/>
          <path class="cls-1" d="m891.23,822.98c-.26-.26-.67-.26-.93,0s-.26.67,0,.93l.25.25c.13.13.3.19.47.19s.34-.06.47-.19c.26-.26.26-.67,0-.93l-.25-.25Z"/>
          <path class="cls-1" d="m887.5,819.25c-.26-.26-.67-.26-.93,0s-.26.67,0,.93l1.87,1.87c.13.13.3.19.47.19s.34-.06.47-.19c.26-.26.26-.67,0-.93l-1.87-1.87Z"/>
        </g>
        <g>
          <path class="cls-1" d="m288.66,456.05l-3.28,1-1.26.39.39,1.26h0c.26.84-.21,1.72-1.05,1.98-.84.26-1.72-.21-1.98-1.05l-.39-1.26-1.26.39-3.28,1c-3.48,1.07-5.44,4.75-4.38,8.24l9.23,30.14c1.07,3.48,4.75,5.44,8.24,4.38l3.28-1,1.26-.39-.39-1.26c-.26-.84.21-1.72,1.05-1.98.84-.26,1.72.21,1.98,1.05h0s.39,1.26.39,1.26l1.26-.39,3.28-1c3.48-1.07,5.44-4.75,4.38-8.24l-9.23-30.14c-1.07-3.48-4.75-5.44-8.24-4.38Zm6.98,4.76l9.23,30.14c.85,2.79-.71,5.74-3.5,6.59l-3.28,1c-.47-1.53-2.09-2.39-3.62-1.93-1.53.47-2.39,2.09-1.93,3.62l-3.28,1c-2.79.85-5.74-.71-6.59-3.5l-9.23-30.14c-.85-2.79.71-5.74,3.5-6.59l3.28-1h0c.47,1.53,2.09,2.39,3.62,1.93,1.53-.47,2.39-2.09,1.93-3.62h0s3.28-1,3.28-1c2.79-.85,5.74.71,6.59,3.5Z"/>
          <path class="cls-1" d="m283.48,467.2c-.51-.1-1.01.24-1.11.75-.1.51.23,1.01.75,1.1l3.6.63h.28s-.23.15-.23.15l-2.63,2.54c-.37.37-.37.97,0,1.33.37.37.97.37,1.34,0l.94-.93.56,1.83c.13.41.58.64,1.01.51.43-.13.68-.57.55-.99l-.28-.9c.45.13.95.43,1.16,1.12.12.4.07.81-.13,1.17-.2.36-.54.64-.98.78-.76.23-1.54-.1-1.88-.7-.25-.45-.82-.6-1.27-.35-.27.15-.43.41-.47.69-.05.4.24.79.24.79.83,1.23,2.41,1.8,3.92,1.34.19-.06.38-.13.56-.22.56.14,1.31.49,1.59,1.39.26.86-.23,1.78-1.12,2.06-.79.24-1.61-.12-1.97-.8,0,0-.09-.17-.21-.46-.11-.28-.57-.58-1.07-.43-.49.15-.77.67-.62,1.16.57,1.85,2.54,2.87,4.41,2.3,1.87-.57,2.93-2.53,2.37-4.38-.31-1.01-1.04-1.77-1.93-2.16,0,0,.82-1.19.35-2.73-.28-.9-.91-1.6-1.69-2-.52-.27-1.12-.4-1.73-.37l1.6-1.59c.25-.25.34-.61.24-.94-.1-.33-.38-.58-.72-.65l-5.41-1.03Z"/>
          <path class="cls-1" d="m286.34,488.72c-.35.11-.54.48-.44.82s.48.54.82.44l2.52-.77c.17-.05.31-.17.39-.32s.1-.33.05-.5c-.11-.35-.48-.54-.82-.44l-2.52.77Z"/>
          <path class="cls-1" d="m281.29,490.26c-.35.11-.54.48-.44.82s.48.54.82.44l2.52-.77c.17-.05.31-.17.39-.32s.1-.33.05-.5c-.11-.35-.48-.54-.82-.44l-2.52.77Z"/>
          <path class="cls-1" d="m291.38,487.17c-.35.11-.54.48-.44.82s.48.54.82.44l2.52-.77c.17-.05.31-.17.39-.32s.1-.33.05-.5c-.11-.35-.48-.54-.82-.44l-2.52.77Z"/>
          <path class="cls-1" d="m301.47,484.08c-.35.11-.54.48-.44.82s.48.54.82.44l.33-.1c.17-.05.31-.17.39-.32s.1-.33.05-.5c-.11-.35-.48-.54-.82-.44l-.33.1Z"/>
          <path class="cls-1" d="m296.43,485.63c-.35.11-.54.48-.44.82s.48.54.82.44l2.52-.77c.17-.05.31-.17.39-.32s.1-.33.05-.5c-.11-.35-.48-.54-.82-.44l-2.52.77Z"/>
        </g>
        <path class="cls-1" d="m358.63,780.25v-1.31c0-1.5-.59-2.91-1.62-3.87-.8-.74-1.79-1.15-2.85-1.18,0-1.38-.51-2.69-1.4-3.63-1.41-1.5-3.66-1.81-5.36-.78-.81-1.54-2.31-2.51-3.94-2.51s-3.13.97-3.94,2.51c-1.7-1.04-3.95-.72-5.36.78-.89.94-1.39,2.25-1.4,3.63-1.05.02-2.05.43-2.85,1.18-1.03.96-1.62,2.37-1.62,3.87v1.31c-.39.45-.66,1.1-.66,1.89,0,1.63,1.12,2.64,2.16,2.64h1.72l.08.91,1.73,20.53c.07.89.46,1.68,1.03,2.31.73.8,1.77,1.32,2.92,1.32h12.39c1.15,0,2.19-.52,2.92-1.32.57-.62.95-1.42,1.03-2.31l1.73-20.54.08-.9h1.72c1.04,0,2.16-1.01,2.16-2.64,0-.79-.27-1.44-.66-1.89Zm-.66,1.89c0,.85-.5,1.32-.84,1.32h-27.34c-.34,0-.84-.47-.84-1.32,0-.26.06-.47.13-.66.17-.42.47-.66.71-.66h27.34c.24,0,.54.24.71.66.08.19.13.4.13.66Zm-7.81,26.33l.6-23.69h3.33l-1.8,21.33c-.1,1.19-1,2.15-2.13,2.37Zm-15.52-2.37l-1.8-21.33h3.33l.6,23.69c-1.13-.22-2.03-1.18-2.13-2.37Zm2.63,2.42h.82l-.6-23.74h1.32l.6,23.74h1.32l-.6-23.74h6.66l-.6,23.74h1.32l.6-23.74h1.32l-.6,23.74h.82s0,0,0,0h-12.39s0,0,0,0Zm-7.65-29.58c0-1.13.44-2.19,1.2-2.91.45-.41,1.18-.89,2.26-.82.27.02.53-.08.72-.27.2-.2.31-.48.29-.77-.07-1.15.31-2.25,1.03-3.01,1.08-1.14,2.78-1.3,4-.36.23.17.51.23.79.16.28-.08.51-.28.62-.55.54-1.31,1.66-2.12,2.92-2.12s2.38.83,2.92,2.12c.11.27.34.47.62.55.28.08.56.02.79-.16,1.22-.94,2.93-.78,4,.36.72.76,1.1,1.86,1.03,3.01-.02.29.09.57.29.77.19.19.46.29.72.27,1.07-.08,1.82.4,2.26.82.77.71,1.2,1.77,1.2,2.91v.59c-.06,0-.12-.02-.18-.02h-27.34c-.06,0-.12.01-.18.02v-.59Z"/>
        <path class="cls-1" d="m934.32,655.21v-1.31c0-1.5-.59-2.91-1.62-3.87-.8-.74-1.79-1.15-2.85-1.18,0-1.38-.51-2.69-1.4-3.63-1.41-1.5-3.66-1.81-5.36-.78-.81-1.54-2.31-2.51-3.94-2.51s-3.13.97-3.94,2.51c-1.7-1.04-3.95-.72-5.36.78-.89.94-1.39,2.25-1.4,3.63-1.05.02-2.05.43-2.85,1.18-1.03.96-1.62,2.37-1.62,3.87v1.31c-.39.45-.66,1.1-.66,1.89,0,1.63,1.12,2.64,2.16,2.64h1.72l.08.91,1.73,20.53c.07.89.46,1.68,1.03,2.31.73.8,1.77,1.32,2.92,1.32h12.39c1.15,0,2.19-.52,2.92-1.32.57-.62.95-1.42,1.03-2.31l1.73-20.54.08-.9h1.72c1.04,0,2.16-1.01,2.16-2.64,0-.79-.27-1.44-.66-1.89Zm-.66,1.89c0,.85-.5,1.32-.84,1.32h-27.34c-.34,0-.84-.47-.84-1.32,0-.26.06-.47.13-.66.17-.42.47-.66.71-.66h27.34c.24,0,.54.24.71.66.08.19.13.4.13.66Zm-7.81,26.33l.6-23.69h3.33l-1.8,21.33c-.1,1.19-1,2.15-2.13,2.37Zm-15.52-2.37l-1.8-21.33h3.33l.6,23.69c-1.13-.22-2.03-1.18-2.13-2.37Zm2.63,2.42h.82l-.6-23.74h1.32l.6,23.74h1.32l-.6-23.74h6.66l-.6,23.74h1.32l.6-23.74h1.32l-.6,23.74h.82s0,0,0,0h-12.39s0,0,0,0Zm-7.65-29.58c0-1.13.44-2.19,1.2-2.91.45-.41,1.18-.89,2.26-.82.27.02.53-.08.72-.27.2-.2.31-.48.29-.77-.07-1.15.31-2.25,1.03-3.01,1.08-1.14,2.78-1.3,4-.36.23.17.51.23.79.16.28-.08.51-.28.62-.55.54-1.31,1.66-2.12,2.92-2.12s2.38.83,2.92,2.12c.11.27.34.47.62.55.28.08.56.02.79-.16,1.22-.94,2.93-.78,4,.36.72.76,1.1,1.86,1.03,3.01-.02.29.09.57.29.77.19.19.46.29.72.27,1.07-.08,1.82.4,2.26.82.77.71,1.2,1.77,1.2,2.91v.59c-.06,0-.12-.02-.18-.02h-27.34c-.06,0-.12.01-.18.02v-.59Z"/>
        <path class="cls-1" d="m827.84,419.1h-8.03c.17-.39.27-.83.27-1.28v-4.47c0-.37-.07-.71-.19-1.04h5.15c.93,0,1.71-.66,1.9-1.53,1.57-.04,2.84-1.33,2.84-2.91v-4.19c0-1.57-1.24-2.84-2.8-2.91v-10.78c0-2.14-1.74-3.88-3.88-3.88h-11.97c-2.14,0-3.88,1.74-3.88,3.88v10.8c-.11-.01-.22-.03-.34-.03-.98,0-1.84.49-2.37,1.23-.51-.71-1.32-1.17-2.25-1.21v-10.78c0-2.14-1.74-3.88-3.88-3.88h-11.97c-2.14,0-3.88,1.74-3.88,3.88v10.8c-.11-.01-.22-.03-.34-.03-1.61,0-2.92,1.31-2.92,2.92v4.19c0,1.61,1.31,2.92,2.92,2.92.13,0,.25-.02.38-.04.18.89.96,1.56,1.9,1.56h4.63c-.11.33-.19.67-.19,1.04v4.47c0,.46.1.89.27,1.28h-7.97c-2.14,0-3.88,1.74-3.88,3.88s1.74,3.88,3.88,3.88h46.6c2.14,0,3.88-1.74,3.88-3.88s-1.74-3.88-3.88-3.88Zm-46.6,6.31c-1.34,0-2.43-1.09-2.43-2.43s1.09-2.43,2.43-2.43h46.6c1.34,0,2.43,1.09,2.43,2.43s-1.09,2.43-2.43,2.43h-46.6Zm9.16-7.59v-4.47c0-.4.16-.74.38-1.04h2.78c.22.3.38.64.38,1.04v4.47c0,.51-.22.96-.57,1.28h-2.4c-.35-.32-.57-.77-.57-1.28Zm-6.38-7.45v-.22c.2-.16.38-.34.53-.54.14-.19.27-.4.37-.62.1-.23.15-.47.19-.72.02-.13.04-.26.04-.4v-.65h14.11v.65c0,.21.03.42.07.63.05.24.14.47.25.68.11.22.25.43.41.61.24.27.52.49.84.66-.04.23-.23.41-.47.41h-15.85c-.27,0-.49-.22-.49-.49Zm-3.26-2.5v-4.19c0-.81.66-1.47,1.47-1.47.12,0,.23.04.34.07.28.07.54.2.73.41.05.06.09.13.13.19.16.23.27.5.27.8v4.19c0,.3-.11.56-.26.79-.05.07-.08.14-.14.2-.19.21-.45.34-.73.41-.11.03-.22.07-.34.07-.81,0-1.47-.66-1.47-1.47Zm3.26-17.88c0-1.34,1.09-2.43,2.43-2.43h11.97c1.34,0,2.43,1.09,2.43,2.43v11.11c-.32.17-.6.38-.84.65-.49-.22-1.02-.35-1.59-.35h-11.97c-.7,0-1.34.2-1.91.52-.15-.2-.32-.37-.52-.53v-11.4Zm21.43,13.69c0-.81.66-1.47,1.47-1.47.12,0,.23.04.34.07.28.07.54.2.73.41.05.06.09.13.13.19.16.23.27.5.27.8v4.19c0,.3-.11.56-.26.79-.05.07-.08.14-.14.2-.19.21-.45.34-.73.41-.11.03-.22.07-.34.07-.81,0-1.47-.66-1.47-1.47v-4.19Zm3.26-13.69c0-1.34,1.09-2.43,2.43-2.43h11.97c1.34,0,2.43,1.09,2.43,2.43v11.11c-.32.17-.6.38-.84.65-.49-.22-1.02-.35-1.59-.35h-11.97c-.7,0-1.34.2-1.91.52-.15-.2-.33-.37-.52-.53v-11.4Zm19.62,13.69v4.19c0,.76-.6,1.37-1.34,1.44-.04,0-.08.03-.12.03-.22,0-.42-.05-.6-.14-.14-.06-.26-.15-.37-.25-.15-.13-.27-.29-.36-.48-.02-.05-.03-.11-.05-.17-.04-.14-.09-.28-.09-.43v-4.19c0-.16.04-.3.09-.45.02-.05.02-.1.04-.15.09-.19.21-.35.37-.49.11-.1.23-.18.36-.24.19-.08.39-.14.6-.14.04,0,.08.02.12.03.75.07,1.34.68,1.34,1.44Zm-3.28,7.18h-15.85c-.27,0-.49-.22-.49-.49v-.21c.2-.16.38-.34.53-.54.15-.19.27-.4.37-.62.1-.23.15-.47.19-.72.02-.13.04-.26.04-.4v-.65h14.1v.65c0,.21.03.42.07.63.05.24.14.47.25.68.11.22.25.43.41.61.24.27.52.49.84.66-.04.23-.23.41-.47.41Zm-6.42,2.5v4.47c0,.51-.22.96-.57,1.28h-2.4c-.34-.32-.57-.77-.57-1.28v-4.47c0-.4.16-.74.38-1.04h2.78c.22.3.38.64.38,1.04Zm-33.52-10.1c.38-.26.85-.41,1.34-.41h11.97c.32,0,.63.07.91.18-.05.21-.08.42-.08.65v2.08h-14.11v-2.08c0-.14-.02-.28-.04-.42Zm38.84.42v2.08h-14.1v-2.08c0-.14-.02-.28-.04-.42.38-.26.84-.41,1.34-.41h11.97c.32,0,.63.07.91.18-.05.21-.08.42-.08.65Zm-17.03,7.11c.13,0,.25-.02.38-.04.18.89.96,1.56,1.9,1.56h4.63c-.11.33-.19.67-.19,1.04v4.47c0,.46.1.89.27,1.28h-18.78c.17-.39.27-.83.27-1.28v-4.47c0-.37-.07-.71-.19-1.04h5.15c.93,0,1.71-.66,1.9-1.53.95-.03,1.78-.5,2.29-1.22.53.74,1.39,1.23,2.37,1.23Zm-3.27-7.11v4.19c0,.76-.6,1.37-1.34,1.44-.04,0-.08.03-.12.03-.22,0-.42-.05-.6-.14-.14-.06-.26-.15-.37-.25-.15-.13-.27-.29-.36-.48-.02-.05-.03-.11-.05-.17-.04-.14-.09-.28-.09-.43v-4.19c0-.16.04-.3.09-.45.02-.05.02-.1.04-.15.09-.19.21-.35.37-.49.11-.1.23-.18.36-.24.19-.08.39-.14.6-.14.04,0,.08.02.12.03.75.07,1.34.68,1.34,1.44Z"/>
        <path class="cls-1" d="m303.09,696.05h-8.03c.17-.39.27-.83.27-1.28v-4.47c0-.37-.07-.71-.19-1.04h5.15c.93,0,1.71-.66,1.9-1.53,1.57-.04,2.84-1.33,2.84-2.91v-4.19c0-1.57-1.24-2.84-2.8-2.91v-10.78c0-2.14-1.74-3.88-3.88-3.88h-11.97c-2.14,0-3.88,1.74-3.88,3.88v10.8c-.11-.01-.22-.03-.34-.03-.98,0-1.84.49-2.37,1.23-.51-.71-1.32-1.17-2.25-1.21v-10.78c0-2.14-1.74-3.88-3.88-3.88h-11.97c-2.14,0-3.88,1.74-3.88,3.88v10.8c-.11-.01-.22-.03-.34-.03-1.61,0-2.92,1.31-2.92,2.92v4.19c0,1.61,1.31,2.92,2.92,2.92.13,0,.25-.02.38-.04.18.89.96,1.56,1.9,1.56h4.63c-.11.33-.19.67-.19,1.04v4.47c0,.46.1.89.27,1.28h-7.97c-2.14,0-3.88,1.74-3.88,3.88s1.74,3.88,3.88,3.88h46.6c2.14,0,3.88-1.74,3.88-3.88s-1.74-3.88-3.88-3.88Zm-46.6,6.31c-1.34,0-2.43-1.09-2.43-2.43s1.09-2.43,2.43-2.43h46.6c1.34,0,2.43,1.09,2.43,2.43s-1.09,2.43-2.43,2.43h-46.6Zm9.16-7.59v-4.47c0-.4.16-.74.38-1.04h2.78c.22.3.38.64.38,1.04v4.47c0,.51-.22.96-.57,1.28h-2.4c-.35-.32-.57-.77-.57-1.28Zm-6.38-7.45v-.22c.2-.16.38-.34.53-.54.14-.19.27-.4.37-.62.1-.23.15-.47.19-.72.02-.13.04-.26.04-.4v-.65h14.11v.65c0,.21.03.42.07.63.05.24.14.47.25.68.11.22.25.43.41.61.24.27.52.49.84.66-.04.23-.23.41-.47.41h-15.85c-.27,0-.49-.22-.49-.49Zm-3.26-2.5v-4.19c0-.81.66-1.47,1.47-1.47.12,0,.23.04.34.07.28.07.54.2.73.41.05.06.09.13.13.19.16.23.27.5.27.8v4.19c0,.3-.11.56-.26.79-.05.07-.08.14-.14.2-.19.21-.45.34-.73.41-.11.03-.22.07-.34.07-.81,0-1.47-.66-1.47-1.47Zm3.26-17.88c0-1.34,1.09-2.43,2.43-2.43h11.97c1.34,0,2.43,1.09,2.43,2.43v11.11c-.32.17-.6.38-.84.65-.49-.22-1.02-.35-1.59-.35h-11.97c-.7,0-1.34.2-1.91.52-.15-.2-.32-.37-.52-.53v-11.4Zm21.43,13.69c0-.81.66-1.47,1.47-1.47.12,0,.23.04.34.07.28.07.54.2.73.41.05.06.09.13.13.19.16.23.27.5.27.8v4.19c0,.3-.11.56-.26.79-.05.07-.08.14-.14.2-.19.21-.45.34-.73.41-.11.03-.22.07-.34.07-.81,0-1.47-.66-1.47-1.47v-4.19Zm3.26-13.69c0-1.34,1.09-2.43,2.43-2.43h11.97c1.34,0,2.43,1.09,2.43,2.43v11.11c-.32.17-.6.38-.84.65-.49-.22-1.02-.35-1.59-.35h-11.97c-.7,0-1.34.2-1.91.52-.15-.2-.33-.37-.52-.53v-11.4Zm19.62,13.69v4.19c0,.76-.6,1.37-1.34,1.44-.04,0-.08.03-.12.03-.22,0-.42-.05-.6-.14-.14-.06-.26-.15-.37-.25-.15-.13-.27-.29-.36-.48-.02-.05-.03-.11-.05-.17-.04-.14-.09-.28-.09-.43v-4.19c0-.16.04-.3.09-.45.02-.05.02-.1.04-.15.09-.19.21-.35.37-.49.11-.1.23-.18.36-.24.19-.08.39-.14.6-.14.04,0,.08.02.12.03.75.07,1.34.68,1.34,1.44Zm-3.28,7.18h-15.85c-.27,0-.49-.22-.49-.49v-.21c.2-.16.38-.34.53-.54.15-.19.27-.4.37-.62.1-.23.15-.47.19-.72.02-.13.04-.26.04-.4v-.65h14.1v.65c0,.21.03.42.07.63.05.24.14.47.25.68.11.22.25.43.41.61.24.27.52.49.84.66-.04.23-.23.41-.47.41Zm-6.42,2.5v4.47c0,.51-.22.96-.57,1.28h-2.4c-.34-.32-.57-.77-.57-1.28v-4.47c0-.4.16-.74.38-1.04h2.78c.22.3.38.64.38,1.04Zm-33.52-10.1c.38-.26.85-.41,1.34-.41h11.97c.32,0,.63.07.91.18-.05.21-.08.42-.08.65v2.08h-14.11v-2.08c0-.14-.02-.28-.04-.42Zm38.84.42v2.08h-14.1v-2.08c0-.14-.02-.28-.04-.42.38-.26.84-.41,1.34-.41h11.97c.32,0,.63.07.91.18-.05.21-.08.42-.08.65Zm-17.03,7.11c.13,0,.25-.02.38-.04.18.89.96,1.56,1.9,1.56h4.63c-.11.33-.19.67-.19,1.04v4.47c0,.46.1.89.27,1.28h-18.78c.17-.39.27-.83.27-1.28v-4.47c0-.37-.07-.71-.19-1.04h5.15c.93,0,1.71-.66,1.9-1.53.95-.03,1.78-.5,2.29-1.22.53.74,1.39,1.23,2.37,1.23Zm-3.27-7.11v4.19c0,.76-.6,1.37-1.34,1.44-.04,0-.08.03-.12.03-.22,0-.42-.05-.6-.14-.14-.06-.26-.15-.37-.25-.15-.13-.27-.29-.36-.48-.02-.05-.03-.11-.05-.17-.04-.14-.09-.28-.09-.43v-4.19c0-.16.04-.3.09-.45.02-.05.02-.1.04-.15.09-.19.21-.35.37-.49.11-.1.23-.18.36-.24.19-.08.39-.14.6-.14.04,0,.08.02.12.03.75.07,1.34.68,1.34,1.44Z"/>
      </g>
    </g>
  </g>
</svg>