<?xml version="1.0" encoding="UTF-8"?>
<svg id="Layer_2" data-name="Layer 2" xmlns="http://www.w3.org/2000/svg" xmlns:xlink="http://www.w3.org/1999/xlink" viewBox="0 0 208.8 61.87">
  <defs>
    <style>
      .cls-1 {
        fill: none;
      }

      .cls-2 {
        clip-path: url(#clippath);
      }

      .cls-3 {
        fill: #fff;
      }

      .cls-4 {
        fill: #a6a6a6;
      }
    </style>
    <clipPath id="clippath">
      <rect class="cls-1" width="208.8" height="61.87"/>
    </clipPath>
  </defs>
  <g id="Layer_1-2" data-name="Layer 1">
    <g id="Group_43" data-name="Group 43">
      <g class="cls-2">
        <g id="Group_42" data-name="Group 42">
          <path id="Path_25" data-name="Path 25" class="cls-4" d="m201.37,61.87H7.31c-4.04,0-7.31-3.28-7.31-7.32V7.31C0,3.27,3.28,0,7.31,0h194.06c4.06,0,7.37,3.25,7.43,7.31v47.24c-.06,4.06-3.37,7.32-7.43,7.32"/>
          <path id="Path_26" data-name="Path 26" d="m207.3,54.55c0,3.27-2.65,5.92-5.92,5.92H7.31c-3.28,0-5.93-2.65-5.94-5.92,0,0,0,0,0,0V7.31c0-3.28,2.66-5.93,5.94-5.93h194.06c3.28,0,5.93,2.65,5.93,5.93h0s0,47.24,0,47.24Z"/>
          <path id="Path_27" data-name="Path 27" class="cls-3" d="m46.6,30.6c.04-3.08,1.65-5.92,4.27-7.53-1.66-2.37-4.34-3.82-7.23-3.91-3.04-.32-6,1.82-7.53,1.82s-3.97-1.79-6.53-1.74c-3.38.11-6.46,1.99-8.11,4.94-3.52,6.07-.89,14.98,2.47,19.89,1.68,2.4,3.64,5.08,6.21,4.99,2.51-.1,3.45-1.6,6.48-1.6s3.89,1.6,6.51,1.54c2.7-.04,4.4-2.41,6.03-4.84,1.21-1.71,2.14-3.6,2.76-5.6-3.2-1.36-5.29-4.49-5.29-7.97"/>
          <path id="Path_28" data-name="Path 28" class="cls-3" d="m41.65,15.94c1.47-1.77,2.19-4.03,2.01-6.32-2.24.24-4.32,1.31-5.81,3.01-1.47,1.67-2.22,3.87-2.07,6.09,2.27.03,4.44-.99,5.86-2.76"/>
          <path id="Path_29" data-name="Path 29" class="cls-3" d="m82.97,48.73h-3.52l-1.92-6.05h-6.68l-1.83,6.05h-3.42l6.63-20.58h4.09l6.66,20.58Zm-6.03-8.58l-1.74-5.37c-.18-.55-.53-1.84-1.04-3.88h-.06c-.2.88-.53,2.17-.98,3.88l-1.71,5.37h5.53Z"/>
          <path id="Path_30" data-name="Path 30" class="cls-3" d="m100.01,41.12c.12,2.18-.61,4.33-2.04,5.99-1.16,1.28-2.82,1.99-4.55,1.95-1.69.14-3.31-.68-4.22-2.11h-.06v7.82h-3.29v-16c0-1.59-.04-3.22-.12-4.89h2.89l.19,2.35h.07c1.77-2.71,5.41-3.48,8.12-1.7.48.31.9.69,1.27,1.12,1.23,1.55,1.85,3.49,1.76,5.47m-3.36.12c.05-1.26-.29-2.51-.98-3.57-.65-.94-1.73-1.5-2.87-1.47-.81,0-1.6.29-2.22.81-.66.54-1.12,1.29-1.3,2.12-.09.33-.14.67-.15,1v2.48c-.02,1.01.33,1.98,1,2.73.65.74,1.6,1.15,2.58,1.12,1.15.05,2.24-.5,2.9-1.44.74-1.12,1.1-2.45,1.04-3.79"/>
          <path id="Path_31" data-name="Path 31" class="cls-3" d="m117.08,41.12c.12,2.19-.62,4.33-2.05,5.99-1.16,1.28-2.82,1.99-4.55,1.95-1.69.14-3.31-.68-4.21-2.11h-.05v7.82h-3.31v-16c0-1.59-.04-3.22-.12-4.89h2.9l.18,2.35h.06c1.77-2.71,5.41-3.48,8.12-1.7.48.31.9.69,1.27,1.12,1.23,1.55,1.85,3.49,1.76,5.47m-3.36.12c.05-1.26-.29-2.51-.98-3.57-.65-.94-1.73-1.5-2.87-1.47-.81,0-1.6.29-2.22.81-.66.54-1.12,1.29-1.3,2.12-.09.33-.14.66-.15,1v2.48c-.03,1,.33,1.98.99,2.73.65.74,1.6,1.15,2.58,1.12,1.15.05,2.24-.5,2.9-1.44.74-1.12,1.1-2.45,1.04-3.79"/>
          <path id="Path_32" data-name="Path 32" class="cls-3" d="m136.18,42.95c.05,1.62-.62,3.19-1.83,4.27-1.58,1.28-3.58,1.93-5.61,1.8-1.86.09-3.71-.36-5.33-1.28l.75-2.75c1.44.87,3.09,1.33,4.77,1.31,1.04.06,2.06-.24,2.9-.84.69-.55,1.07-1.39,1.03-2.26.02-.79-.29-1.55-.85-2.11-.83-.72-1.79-1.26-2.84-1.59-3.6-1.34-5.4-3.31-5.4-5.9-.04-1.6.66-3.14,1.89-4.16,1.43-1.14,3.22-1.71,5.04-1.62,1.61-.06,3.22.28,4.67.98l-.82,2.69c-1.21-.64-2.57-.97-3.94-.94-.98-.06-1.95.25-2.72.85-.53.47-.83,1.15-.82,1.86-.01.78.33,1.52.94,2.01.91.69,1.92,1.22,2.99,1.59,1.48.52,2.82,1.38,3.91,2.51.85.99,1.3,2.26,1.26,3.57"/>
          <path id="Path_33" data-name="Path 33" class="cls-3" d="m147.07,36.36h-3.64v7.21c0,1.83.64,2.75,1.92,2.75.49.01.99-.04,1.47-.15l.09,2.51c-.83.27-1.69.39-2.56.36-1.14.06-2.26-.37-3.05-1.19-.84-1.15-1.23-2.58-1.1-4v-7.49h-2.17v-2.47h2.17v-2.72l3.24-.98v3.69h3.63v2.48Z"/>
          <path id="Path_34" data-name="Path 34" class="cls-3" d="m163.47,41.18c.08,2.05-.62,4.06-1.95,5.62-1.39,1.52-3.38,2.35-5.44,2.26-1.97.09-3.88-.71-5.2-2.17-1.32-1.51-2.01-3.46-1.94-5.47-.08-2.07.64-4.09,2.01-5.65,1.39-1.49,3.36-2.29,5.39-2.2,1.98-.08,3.9.71,5.25,2.17,1.3,1.5,1.98,3.45,1.9,5.43m-3.42.11c.04-1.23-.27-2.45-.89-3.52-.57-1.11-1.71-1.8-2.96-1.78-1.26-.03-2.43.66-3.01,1.78-.62,1.09-.92,2.33-.88,3.58-.04,1.23.27,2.45.88,3.52.88,1.64,2.92,2.26,4.56,1.37.59-.32,1.08-.81,1.39-1.41.63-1.08.95-2.31.91-3.55"/>
          <path id="Path_35" data-name="Path 35" class="cls-3" d="m174.19,36.79c-.34-.06-.69-.09-1.04-.09-1.06-.05-2.07.45-2.69,1.32-.58.87-.87,1.89-.82,2.93v7.79h-3.3l.03-10.17c0-1.71-.04-3.27-.12-4.67h2.87l.12,2.84h.09c.31-.93.88-1.74,1.65-2.35.69-.52,1.52-.79,2.38-.8.28,0,.55.02.82.06v3.14"/>
          <path id="Path_36" data-name="Path 36" class="cls-3" d="m188.94,40.6c0,.51-.03,1.01-.12,1.51h-9.89c-.04,1.28.48,2.51,1.44,3.36.92.72,2.07,1.09,3.23,1.04,1.37.02,2.72-.22,4-.7l.51,2.29c-1.58.65-3.27.96-4.98.92-2.01.11-3.98-.62-5.42-2.03-1.36-1.48-2.07-3.44-1.97-5.45-.07-2.02.58-4,1.84-5.59,1.25-1.57,3.18-2.46,5.19-2.38,1.92-.11,3.76.79,4.86,2.38.91,1.39,1.36,3.02,1.31,4.67m-3.14-.85c.04-.89-.18-1.77-.64-2.53-.56-.91-1.57-1.44-2.63-1.37-1.04-.02-2.03.49-2.62,1.34-.56.75-.9,1.63-.97,2.56h6.87,0Z"/>
          <path id="Path_37" data-name="Path 37" class="cls-3" d="m75.87,15.48c.11,1.55-.49,3.06-1.64,4.11-1.24.92-2.76,1.37-4.3,1.27-.79,0-1.58-.03-2.37-.12v-9.95c.93-.14,1.86-.21,2.8-.21,1.43-.11,2.86.3,4.02,1.16,1.04.95,1.6,2.33,1.51,3.74m-1.71.05c.07-.99-.27-1.97-.94-2.72-.75-.67-1.74-1.02-2.74-.94-.44,0-.87.03-1.3.11v7.56c.36.04.73.05,1.1.05,1.06.07,2.1-.31,2.87-1.03.72-.83,1.08-1.92,1-3.01"/>
          <path id="Path_38" data-name="Path 38" class="cls-3" d="m84.93,17.07c.04,1.01-.3,2-.96,2.76-.68.75-1.66,1.15-2.67,1.11-.97.04-1.9-.35-2.56-1.06-.65-.74-.99-1.71-.95-2.7-.04-1.01.31-2,.98-2.76.68-.73,1.65-1.13,2.65-1.08.97-.04,1.92.35,2.58,1.06.64.74.97,1.69.93,2.67m-1.68.05c.02-.61-.13-1.2-.43-1.73-.28-.54-.84-.88-1.45-.87-.62-.02-1.2.32-1.49.87-.3.53-.45,1.14-.43,1.76-.02.61.13,1.2.43,1.73.29.54.86.88,1.47.87.61,0,1.18-.34,1.45-.89.31-.53.47-1.13.45-1.75"/>
          <path id="Path_39" data-name="Path 39" class="cls-3" d="m97.08,13.48l-2.28,7.28h-1.48l-.94-3.17c-.24-.77-.43-1.56-.59-2.36h-.03c-.14.8-.34,1.59-.59,2.36l-1,3.17h-1.51l-2.14-7.28h1.66l.82,3.47c.2.82.36,1.6.5,2.34h.03c.12-.61.32-1.38.6-2.32l1.03-3.48h1.32l.99,3.41c.24.84.44,1.64.59,2.4h.05c.12-.81.29-1.61.5-2.4l.88-3.41h1.59,0Z"/>
          <path id="Path_40" data-name="Path 40" class="cls-3" d="m105.48,20.78h-1.62v-4.17c0-1.29-.49-1.93-1.47-1.93-.45-.01-.88.18-1.17.53-.3.35-.46.8-.45,1.26v4.33h-1.62v-5.21c0-.64-.02-1.34-.06-2.09h1.43l.08,1.14h.04c.2-.36.49-.67.84-.88.44-.27.95-.41,1.47-.41.63-.02,1.25.22,1.7.66.6.65.91,1.53.84,2.42v4.37Z"/>
          <rect id="Rectangle_11" data-name="Rectangle 11" class="cls-3" x="108.33" y="10.14" width="1.62" height="10.64"/>
          <path id="Path_41" data-name="Path 41" class="cls-3" d="m119.49,17.07c.04,1.01-.3,2-.96,2.76-.68.75-1.66,1.15-2.67,1.11-.97.04-1.91-.35-2.56-1.06-.65-.75-.99-1.71-.95-2.7-.04-1.01.31-2,.98-2.76.68-.73,1.65-1.13,2.65-1.08.97-.04,1.92.35,2.58,1.06.64.74.97,1.69.93,2.67m-1.68.05c.02-.61-.13-1.2-.43-1.73-.28-.54-.84-.88-1.45-.87-.62-.02-1.2.32-1.49.87-.3.54-.45,1.14-.43,1.76-.02.61.13,1.2.43,1.73.29.54.86.88,1.47.87.61,0,1.18-.34,1.45-.89.31-.53.47-1.13.45-1.75"/>
          <path id="Path_42" data-name="Path 42" class="cls-3" d="m127.34,20.78h-1.45l-.12-.83h-.05c-.5.67-1.3,1.05-2.13,1-.62.03-1.23-.21-1.67-.66-.38-.4-.58-.93-.57-1.48-.03-.83.4-1.62,1.12-2.04.96-.52,2.05-.76,3.14-.69v-.15c0-.96-.5-1.44-1.51-1.44-.67-.01-1.33.18-1.9.54l-.33-1.06c.76-.44,1.63-.66,2.51-.63,1.91,0,2.86,1,2.86,3.01v2.69c0,.58.03,1.16.11,1.74m-1.68-2.51v-1.12c-1.79-.03-2.68.46-2.68,1.47-.02.32.09.63.31.85.22.19.5.3.79.29.36,0,.71-.12.99-.34.29-.21.49-.51.56-.86.02-.09.03-.19.03-.28"/>
          <path id="Path_43" data-name="Path 43" class="cls-3" d="m136.55,20.78h-1.44l-.08-1.17h-.05c-.44.88-1.36,1.41-2.34,1.34-.85.01-1.66-.37-2.19-1.03-.6-.76-.91-1.71-.87-2.68-.05-1.04.29-2.06.94-2.87.56-.66,1.39-1.03,2.26-1.02.82-.08,1.61.3,2.05.99h.03v-4.19h1.62v8.67c0,.71.02,1.36.06,1.96m-1.69-3.07v-1.22c0-.17-.01-.34-.05-.5-.08-.38-.29-.73-.59-.99-.3-.26-.69-.41-1.09-.4-.57-.02-1.11.25-1.43.72-.36.54-.55,1.19-.52,1.85-.03.63.15,1.24.5,1.76.32.46.85.73,1.42.72.5.02.97-.21,1.28-.6.31-.37.48-.85.47-1.34"/>
          <path id="Path_44" data-name="Path 44" class="cls-3" d="m150.41,17.07c.04,1.01-.3,2-.96,2.76-.68.75-1.66,1.15-2.67,1.11-.97.04-1.9-.35-2.56-1.06-.65-.74-.99-1.71-.95-2.7-.04-1.01.31-2,.98-2.76.68-.73,1.65-1.13,2.65-1.08.97-.04,1.92.35,2.58,1.06.64.74.97,1.69.93,2.67m-1.68.05c.02-.61-.13-1.2-.43-1.73-.28-.54-.84-.88-1.46-.87-.62-.02-1.2.32-1.48.87-.3.53-.45,1.14-.43,1.76-.02.61.13,1.2.43,1.73.43.81,1.43,1.11,2.24.68.29-.16.53-.4.69-.69.31-.53.46-1.13.45-1.75"/>
          <path id="Path_45" data-name="Path 45" class="cls-3" d="m159.13,20.78h-1.62v-4.17c0-1.29-.49-1.93-1.47-1.93-.45-.01-.88.18-1.17.53-.3.35-.46.8-.45,1.26v4.33h-1.62v-5.21c0-.64-.02-1.34-.06-2.09h1.42l.08,1.14h.04c.2-.36.49-.67.84-.88.44-.27.95-.41,1.47-.41.63-.02,1.24.22,1.7.66.6.65.91,1.53.84,2.42v4.37Z"/>
          <path id="Path_46" data-name="Path 46" class="cls-3" d="m170.04,14.7h-1.79v3.54c0,.9.32,1.35.94,1.35.24,0,.49-.02.72-.08l.04,1.23c-.4.13-.83.19-1.26.18-.56.03-1.11-.18-1.51-.59-.42-.57-.61-1.26-.54-1.96v-3.68h-1.06v-1.22h1.06v-1.34l1.59-.48v1.81h1.79v1.22h0Z"/>
          <path id="Path_47" data-name="Path 47" class="cls-3" d="m178.62,20.78h-1.61v-4.14c0-1.31-.49-1.96-1.47-1.96-.72-.03-1.36.45-1.55,1.14-.05.19-.08.39-.08.58v4.39h-1.62v-10.64h1.62v4.4h.03c.46-.77,1.3-1.23,2.19-1.2.62-.02,1.23.22,1.67.66.59.67.89,1.55.82,2.44v4.34"/>
          <path id="Path_48" data-name="Path 48" class="cls-3" d="m187.47,16.79c0,.25-.02.49-.06.73h-4.86c-.02.63.24,1.23.71,1.65.45.35,1.02.53,1.59.5.67,0,1.34-.11,1.96-.34l.25,1.13c-.78.32-1.61.47-2.45.45-.99.05-1.95-.31-2.66-1-.67-.73-1.02-1.69-.97-2.68-.04-.99.28-1.97.9-2.75.61-.77,1.56-1.21,2.55-1.17.94-.05,1.85.39,2.38,1.17.45.68.68,1.48.65,2.29m-1.55-.42c.02-.44-.08-.88-.31-1.26-.27-.45-.77-.71-1.29-.68-.51,0-1,.24-1.29.66-.27.37-.44.8-.48,1.26l3.38.02Z"/>
        </g>
      </g>
    </g>
  </g>
</svg>