<?xml version="1.0" encoding="utf-8"?>
<!-- Generator: Adobe Illustrator 27.3.1, SVG Export Plug-In . SVG Version: 6.00 Build 0)  -->
<svg version="1.1" id="Layer_1" xmlns="http://www.w3.org/2000/svg" xmlns:xlink="http://www.w3.org/1999/xlink" x="0px" y="0px"
	 viewBox="0 0 218.6 204.3" style="enable-background:new 0 0 218.6 204.3;" xml:space="preserve">
<style type="text/css">
	.st0{fill:#D4952A;}
	.st1{fill:none;stroke:#221F1F;stroke-width:1.754;stroke-linecap:round;stroke-linejoin:round;stroke-miterlimit:10;}
	.st2{fill:#FFD115;}
	.st3{fill:#009361;}
	.st4{fill:#DBDCDD;stroke:#FFD115;stroke-width:5.0233;stroke-linecap:round;stroke-linejoin:round;}
	.st5{fill:none;stroke:#030303;stroke-width:1.754;stroke-linecap:round;stroke-linejoin:round;stroke-miterlimit:10;}
	.st6{opacity:0.1;}
	.st7{fill:#010101;}
	.st8{fill:#BD6D29;}
	.st9{fill:#FFD00C;}
	.st10{fill:none;stroke:#010101;stroke-width:1.754;stroke-linecap:round;stroke-linejoin:round;stroke-miterlimit:10;}
	.st11{opacity:0.3;}
	.st12{clip-path:url(#SVGID_00000150821501899518247530000010517827741253813386_);fill:#030303;}
	.st13{fill:#FFFFFF;}
	.st14{fill:#E5E6E6;}
	.st15{fill:#FFD39C;}
	.st16{fill:#030303;}
	.st17{fill:#F9AB60;}
	.st18{fill:#D93027;}
	.st19{clip-path:url(#SVGID_00000142174598608512397460000007222857400938854816_);fill:#030303;}
	.st20{fill:none;stroke:#221F1F;stroke-width:0.8763;stroke-miterlimit:10;}
	.st21{fill:none;stroke:#221F1F;stroke-width:1.754;stroke-miterlimit:10;}
	.st22{fill:#F0AC1F;}
	.st23{fill:#FDD424;}
	.st24{fill:#5F83C2;}
	.st25{fill:#E46925;}
	.st26{fill:#E32529;}
</style>
<g>
	<path class="st0" d="M167.1,11.5l-3-2.2c-0.8-1-1.8-2-3.1-2.9c-1.3-0.9-2.5-1.6-3.7-2l-2.8-2.1l-1.8,2.4l0,0
		c-0.7,1.6,1.2,4.6,4.4,7c3.3,2.4,6.7,3.3,8,2.1L167.1,11.5z"/>
	<path class="st1" d="M167.1,11.5l-3-2.2c-0.8-1-1.8-2-3.1-2.9c-1.3-0.9-2.5-1.6-3.7-2l-2.8-2.1l-1.8,2.4l0,0
		c-0.7,1.6,1.2,4.6,4.4,7c3.3,2.4,6.7,3.3,8,2.1L167.1,11.5z"/>
	<path class="st2" d="M167.8,10.4c-0.9,1.2-4.3,0.1-7.8-2.4c-3.4-2.5-5.5-5.5-4.7-6.7c0.8-1.2,4.3-0.1,7.8,2.4
		C166.5,6.3,168.6,9.3,167.8,10.4"/>
	<path class="st1" d="M167.8,10.4c-0.9,1.2-4.3,0.1-7.8-2.4c-3.4-2.5-5.5-5.5-4.7-6.7c0.8-1.2,4.3-0.1,7.8,2.4
		C166.5,6.3,168.6,9.3,167.8,10.4z"/>
	<path class="st1" d="M165.2,13.8c0,0,2.1-2.7,2.2-2.9c1.1-1.5-0.8-4.7-4.3-7.2c-3.4-2.5-7.1-3.4-8.2-1.9c-0.1,0.2-2.1,2.9-2.1,2.9
		l0,0c-0.7,1.6,1.1,4.6,4.4,7C160.5,14.2,164,15,165.2,13.8z"/>
	<rect x="58.6" y="4.9" transform="matrix(0.7925 -0.6099 0.6099 0.7925 6.8514 39.3174)" class="st3" width="5.3" height="9.4"/>
	<rect x="58.6" y="4.9" transform="matrix(0.7925 -0.6099 0.6099 0.7925 6.8514 39.3174)" class="st1" width="5.3" height="9.4"/>
	<g>
		<g id="Group_2-3" transform="translate(22.391)">
			<g id="Rectangle_2-6" transform="translate(-0.077 -0.465)">
				<path class="st4" d="M85.3,62.6L85.3,62.6c36.8,0,66.7,29.9,66.7,66.7l0,0c0,36.8-29.9,66.7-66.7,66.7l0,0
					c-36.8,0-66.7-29.9-66.7-66.7l0,0C18.6,92.5,48.4,62.6,85.3,62.6z"/>
			</g>
		</g>
		<line class="st5" x1="65.6" y1="57.6" x2="65.5" y2="58.8"/>
		<g class="st6">
			<g>
				<path class="st7" d="M133.1,202.1c0,1.2-7.7,2.2-17.1,2.2c-9.4,0-17.1-1-17.1-2.2c0-1.2,7.7-2.2,17.1-2.2
					C125.5,199.9,133.1,200.9,133.1,202.1"/>
			</g>
		</g>
		<path class="st8" d="M93.1,172.3l-17.2-0.1c0,0-0.3,8.7,7.6,10.7c7.9,2,11.5-2.3,11.5-2.3L93.1,172.3z"/>
		<path class="st5" d="M93.1,172.3l-17.2-0.1c0,0-0.3,8.7,7.6,10.7c7.9,2,11.5-2.3,11.5-2.3L93.1,172.3z"/>
		<path class="st8" d="M76.7,170.1c0,0-2,1.9,0.6,3.6c1.3,0.9,9.3,1.5,15.6-1.5c0.9,0-0.4-2.2-0.4-2.2L76.7,170.1z"/>
		<path class="st5" d="M76.7,170.1c0,0-2,1.9,0.6,3.6c1.3,0.9,9.3,1.5,15.6-1.5c0.9,0-0.4-2.2-0.4-2.2L76.7,170.1z"/>
		<path class="st9" d="M123.4,169.1c-0.3-0.9-0.7-1.7-1-2.5c-1.7-3.8-4.3-7.1-6.1-10.8c-0.5-1-0.9-2-1.1-3c-0.1-0.4-0.2-2.8-0.4-3.3
			c-6.9,1.7-14.8,2.8-21.4,0c-7.3-3.2-5.7,9.7-5.6,12.1c-2.3-0.6-9.1-0.3-10.7,1.2c-2.3,2.1-2.6,7.5,3.4,7.8
			c3.4,0.2,11.4-1.2,11.4-1.2s4.5,18.8,12.1,27c1,1.1-0.1,2.2,0.3,3.8c1.2,4.5,5.8,2.2,8.1,0.6c0.9-0.6,1.9-1.6,2.3-2.6
			c0.6-1.5,0.5-3.2,0-4.7c0,0,8.6-2.2,5.9-6.5c-1.3-2.2-1.6-2.8-1.7-2.9c2.1-1.5,3.6-2.5,4.7-4.9C125.3,176,124.6,172.3,123.4,169.1
			"/>
		<path class="st10" d="M123.4,169.1c-0.3-0.9-0.7-1.7-1-2.5c-1.7-3.8-4.3-7.1-6.1-10.8c-0.5-1-0.9-2-1.1-3
			c-0.1-0.4-0.2-2.8-0.4-3.3c-6.9,1.7-14.8,2.8-21.4,0c-7.3-3.2-5.7,9.7-5.6,12.1c-2.3-0.6-9.1-0.3-10.7,1.2
			c-2.3,2.1-2.6,7.5,3.4,7.8c3.4,0.2,11.4-1.2,11.4-1.2s4.5,18.8,12.1,27c1,1.1-0.1,2.2,0.3,3.8c1.2,4.5,5.8,2.2,8.1,0.6
			c0.9-0.6,1.9-1.6,2.3-2.6c0.6-1.5,0.5-3.2,0-4.7c0,0,8.6-2.2,5.9-6.5c-1.3-2.2-1.6-2.8-1.7-2.9c2.1-1.5,3.6-2.5,4.7-4.9
			C125.3,176,124.6,172.3,123.4,169.1z"/>
		<path class="st1" d="M92,169.6c-2.3-9.2-0.4-15.2-0.4-15.2"/>
		<g class="st11">
			<g>
				<defs>
					<rect id="SVGID_1_" x="89.9" y="144.7" width="25.9" height="9.4"/>
				</defs>
				<clipPath id="SVGID_00000031174572042458869470000004939180434073983911_">
					<use xlink:href="#SVGID_1_"  style="overflow:visible;"/>
				</clipPath>
				<path style="clip-path:url(#SVGID_00000031174572042458869470000004939180434073983911_);fill:#030303;" d="M89.9,147.7
					c0.4,5.8,9,6.8,14,6.1c2.3-0.3,3.8-0.6,5.9-1.6c1.8-0.8,5-3.2,5.7-4.9c2.3-5.4-14.2-0.9-14.2-0.9L89.9,147.7z"/>
			</g>
		</g>
		<path class="st13" d="M162.5,81.7c2.3-2.2,3.8-5.1,4.1-8.5c0.7-7.4-4.8-13.9-12.2-14.6c-0.2,0-0.4,0-0.6,0
			c0.7-16-11.3-29.8-27.4-31.3c-8.3-0.8-16.1,1.9-22,6.8c-4-2.9-8.9-4.8-14.2-5.3c-15.8-1.4-29.9,10.2-31.3,26.1
			c-0.1,0.7-0.1,1.4-0.1,2.1c-9.3,4.3-16.1,13.2-17.1,24.1c-1.2,13,6.3,24.8,17.6,29.7c-0.2,1-0.4,2.1-0.5,3.2
			c-1,10.7,4.5,20.7,13.3,25.8c0.1,0,3.1,1.7,8.2,2.4c-0.7-0.8-1.3-1.7-1.8-2.6c-3.9-7.1-3.1-16.5-3.2-24.4c0,0,0-0.8,0-2
			c0,0,0.1,0,0.1,0h0c1.1,0.3,2.2,0.5,3.4,0.6c3.7,0.3,7.4-0.5,10.6-2.4c3.8,4.4,9,7.1,14.8,7.6c5.8,0.5,11.4-1.2,15.9-4.8
			c2.8,2.5,6.3,4,10,4.3c1.1,0.1,2.3,0.1,3.4,0c0,0,0,0,0,0c0,0,0.5,0,1.2-0.2c-0.2,1.3-0.4,2.2-0.4,2.2c-1.4,7.7-2.4,17.1-7.5,23.4
			c-0.6,0.7-1.2,1.3-1.9,1.9c0,0,0,0,0,0l0,0c0,0,24.1,3.5,26.5-25.7c10.5-0.3,19.3-8.4,20.3-19.1C172.4,93.2,168.7,85.9,162.5,81.7
			"/>
		<path class="st1" d="M162.5,81.7c2.3-2.2,3.8-5.1,4.1-8.5c0.7-7.4-4.8-13.9-12.2-14.6c-0.2,0-0.4,0-0.6,0
			c0.7-16-11.3-29.8-27.4-31.3c-8.3-0.8-16.1,1.9-22,6.8c-4-2.9-8.9-4.8-14.2-5.3c-15.8-1.4-29.9,10.2-31.3,26.1
			c-0.1,0.7-0.1,1.4-0.1,2.1c-9.3,4.3-16.1,13.2-17.1,24.1c-1.2,13,6.3,24.8,17.6,29.7c-0.2,1-0.4,2.1-0.5,3.2
			c-1,10.7,4.5,20.7,13.3,25.8c0.1,0,3.1,1.7,8.2,2.4c-0.7-0.8-1.3-1.7-1.8-2.6c-3.9-7.1-3.1-16.5-3.2-24.4c0,0,0-0.8,0-2
			c0,0,0.1,0,0.1,0h0c1.1,0.3,2.2,0.5,3.4,0.6c3.7,0.3,7.4-0.5,10.6-2.4c3.8,4.4,9,7.1,14.8,7.6c5.8,0.5,11.4-1.2,15.9-4.8
			c2.8,2.5,6.3,4,10,4.3c1.1,0.1,2.3,0.1,3.4,0c0,0,0,0,0,0c0,0,0.5,0,1.2-0.2c-0.2,1.3-0.4,2.2-0.4,2.2c-1.4,7.7-2.4,17.1-7.5,23.4
			c-0.6,0.7-1.2,1.3-1.9,1.9c0,0,0,0,0,0l0,0c0,0,24.1,3.5,26.5-25.7c10.5-0.3,19.3-8.4,20.3-19.1C172.4,93.2,168.7,85.9,162.5,81.7
			z"/>
		<path class="st14" d="M163.3,82.3l-1,0.1c0.4,0.5,0.8,1,1.2,1.6c1.3,1.7,2.1,3.4,2.5,5.1c0.8,2.4,1.1,5,0.8,7.7
			c-0.9,9.6-8.7,17-18,17.6c0.8,22.1-18.2,23-18.2,23c-0.9,2.4-2.1,4.7-3.7,6.7c-0.6,0.7-1.2,1.3-1.9,1.9c0,0,0,0,0,0l0,0
			c0,0,24.1,3.5,26.5-25.7c10.5-0.3,19.3-8.4,20.3-19.1C172.4,93.5,169,86.5,163.3,82.3"/>
		<path class="st14" d="M60.2,111c-0.2,1-1.2,2-1.3,3.1c-1,10.7,4.5,20.7,13.3,25.8c0.1,0,3.1,1.7,8.2,2.4c-0.7-0.8-1.3-1.7-1.8-2.6
			c-1.1-2.1-1.9-4.4-2.4-6.7l0,0C58.5,127.2,60.2,111,60.2,111"/>
		<path class="st1" d="M162.5,81.7c2.3-2.2,3.8-5.1,4.1-8.5c0.7-7.4-4.8-13.9-12.2-14.6c-0.2,0-0.4,0-0.6,0
			c0.7-16-11.3-29.8-27.4-31.3c-8.3-0.8-16.1,1.9-22,6.8c-4-2.9-8.9-4.8-14.2-5.3c-15.8-1.4-29.9,10.2-31.3,26.1
			c-0.1,0.7-0.1,1.4-0.1,2.1c-9.3,4.3-16.1,13.2-17.1,24.1c-1.2,13,6.3,24.8,17.6,29.7c-0.2,1-0.4,2.1-0.5,3.2
			c-1,10.7,4.5,20.7,13.3,25.8c0.1,0,3.1,1.7,8.2,2.4c-0.7-0.8-1.3-1.7-1.8-2.6c-3.9-7.1-3.1-16.5-3.2-24.4c0,0,0-0.8,0-2
			c0,0,0.1,0,0.1,0h0c1.1,0.3,2.2,0.5,3.4,0.6c3.7,0.3,7.4-0.5,10.6-2.4c3.8,4.4,9,7.1,14.8,7.6c5.8,0.5,11.4-1.2,15.9-4.8
			c2.8,2.5,6.3,4,10,4.3c1.1,0.1,2.3,0.1,3.4,0c0,0,0,0,0,0c0,0,0.5,0,1.2-0.2c-0.2,1.3-0.4,2.2-0.4,2.2c-1.4,7.7-2.4,17.1-7.5,23.4
			c-0.6,0.7-1.2,1.3-1.9,1.9c0,0,0,0,0,0l0,0c0,0,24.1,3.5,26.5-25.7c10.5-0.3,19.3-8.4,20.3-19.1C172.4,93.2,168.7,85.9,162.5,81.7
			z"/>
		<path class="st1" d="M104.4,34.2c0,0,4.6,3.3,6.3,6.7"/>
		<path class="st1" d="M70.1,109.9c2.7,2.8,5.4,3.4,5.4,3.4"/>
		<path class="st1" d="M139.4,116.2c-3.1,2.3-6,2.4-6,2.4"/>
		<path class="st15" d="M133.5,118.6c-1.1,0.1-2.3,0.1-3.4,0c-3.8-0.3-7.2-1.8-10-4.3c-4.5,3.6-10.1,5.3-15.9,4.8
			c-5.8-0.5-11-3.2-14.8-7.6c-3.2,1.9-6.9,2.8-10.6,2.4c-1.1-0.1-2.3-0.3-3.4-0.6l0,0c0,0,0,0-0.1,0c0,1.2,0,2,0,2
			c0,7.8-0.8,17.3,3.2,24.4c3.1,5.5,9,8.7,14.9,10.2c7.2,1.9,15,2.4,22.3,0.7c4.2-1,8.3-3.2,11.1-6.6c5.1-6.3,6.1-15.7,7.5-23.4
			c0,0,0.2-0.9,0.4-2.2C134,118.5,133.6,118.6,133.5,118.6C133.5,118.6,133.5,118.6,133.5,118.6"/>
		<path class="st10" d="M133.5,118.6c-1.1,0.1-2.3,0.1-3.4,0c-3.8-0.3-7.2-1.8-10-4.3c-4.5,3.6-10.1,5.3-15.9,4.8
			c-5.8-0.5-11-3.2-14.8-7.6c-3.2,1.9-6.9,2.8-10.6,2.4c-1.1-0.1-2.3-0.3-3.4-0.6l0,0c0,0,0,0-0.1,0c0,1.2,0,2,0,2
			c0,7.8-0.8,17.3,3.2,24.4c3.1,5.5,9,8.7,14.9,10.2c7.2,1.9,15,2.4,22.3,0.7c4.2-1,8.3-3.2,11.1-6.6c5.1-6.3,6.1-15.7,7.5-23.4
			c0,0,0.2-0.9,0.4-2.2C134,118.5,133.6,118.6,133.5,118.6C133.5,118.6,133.5,118.6,133.5,118.6z"/>
		<path class="st1" d="M110.2,136.2c-4.2,3.5-10.5,2.9-14-1.3"/>
		<path class="st16" d="M99,127.1c-0.1,1.5-1.4,2.5-2.9,2.4c-1.5-0.1-2.5-1.4-2.4-2.9c0.1-1.5,1.4-2.5,2.9-2.4
			C98.1,124.3,99.2,125.6,99,127.1"/>
		<path class="st17" d="M90,132.6c-0.2,2.7-2.6,4.7-5.3,4.5c-2.7-0.2-4.7-2.6-4.4-5.3c0.2-2.7,2.6-4.7,5.3-4.5
			C88.3,127.5,90.3,129.9,90,132.6"/>
		<path class="st17" d="M126.6,136c-0.2,2.7-2.6,4.7-5.3,4.5c-2.7-0.2-4.7-2.6-4.5-5.3c0.2-2.7,2.6-4.7,5.3-4.5
			C124.8,130.9,126.8,133.3,126.6,136"/>
		<path class="st9" d="M111,151.3c4.9-0.7,7.9-3,11.4-5.3c2.6-1.8,4.7-3.9,7.6-5.2c2.2-1,5.1-1.7,7.2,0c1.3,1.1,1.8,2.7,1.3,4.2
			c-1,3.3-4.5,6.2-7.2,8.2c-1.4,1-2.8,2-4.3,2.9c-1,0.6-6.9,3.6-9,4"/>
		<path class="st10" d="M111,151.3c4.9-0.7,7.9-3,11.4-5.3c2.6-1.8,4.7-3.9,7.6-5.2c2.2-1,5.1-1.7,7.2,0c1.3,1.1,1.8,2.7,1.3,4.2
			c-1,3.3-4.5,6.2-7.2,8.2c-1.4,1-2.8,2-4.3,2.9c-1,0.6-6.9,3.6-9,4"/>
		<path class="st1" d="M58.8,57c0,0,1.8-0.8,4.1-1.5"/>
		<path class="st9" d="M114.9,171.9c-3.2-1.2-9.9-1.1-11.2,3.1c-1.4,4.8,2.4,9.8,4.6,13.8c0.4,0.8-0.1,2.3,0,3.1
			c0.3,2.9,4.8,2.1,6.6,1.5"/>
		<path class="st10" d="M114.9,171.9c-3.2-1.2-9.9-1.1-11.2,3.1c-1.4,4.8,2.4,9.8,4.6,13.8c0.4,0.8-0.1,2.3,0,3.1
			c0.3,2.9,4.8,2.1,6.6,1.5"/>
		<line class="st2" x1="119.1" y1="184" x2="117.5" y2="181.3"/>
		<line class="st1" x1="119.1" y1="184" x2="117.5" y2="181.3"/>
		<path class="st2" d="M104.4,198.5c0,0,0.4-2.4,3.3-2"/>
		<path class="st1" d="M104.4,198.5c0,0,0.4-2.4,3.3-2"/>
		<path class="st1" d="M108.3,192.2c0,0-0.6-3.4,4.4-3.1"/>
		<path class="st10" d="M109.6,128.6c1.4-1.3,3.6-1.3,4.9,0"/>
		<path class="st8" d="M83.3,160.6c0,0,3.4,3.1,4.6,12.1c0.2,2,2.3,1.9,2.8,0.4c0.4-1.4,0-8.7-3.9-13
			C85.7,158.6,83.3,159.2,83.3,160.6"/>
		<path class="st5" d="M83.3,160.6c0,0,3.4,3.1,4.6,12.1c0.2,2,2.3,1.9,2.8,0.4c0.4-1.4,0-8.7-3.9-13
			C85.7,158.6,83.3,159.2,83.3,160.6z"/>
		<line class="st5" x1="147.3" y1="71.4" x2="147.3" y2="73.5"/>
		<path class="st14" d="M147.5,94.7c0.1-0.1,1.3-2.3-0.5-6.4c-0.2-0.4-0.7-0.6-1.1-0.4c-0.1,0-0.2,0.1-0.2,0.2L121.4,62
			c0,0,0.1-0.1,0.1-0.1c0.2-0.4,1.2-0.2,0.8-0.5c-0.2-0.1-5.9-3.8-9.6-2.6c-1.5,0.5-2.7,1.6-3.4,3.4c-0.1,0.4-3.1,10.8,14.4,26.5
			c0.3,0.3,4.2,4,8.9,6.7c3.3,2,7.1,3.5,10.1,2.9C144.9,98,146.5,96.7,147.5,94.7"/>
		<path class="st13" d="M125,85c-7.5-7.7-13.8-17.7-9.9-21.5c3.9-3.8,13.8,2.7,21.3,10.4c7.5,7.7,13.8,17.7,9.9,21.5
			C142.4,99.3,132.6,92.7,125,85 M133.8,76.5c-8.5-8.7-15.2-11.2-16.1-10.3c-0.9,0.9,1.5,7.7,9.9,16.4c8.5,8.7,15.2,11.2,16.1,10.3
			C144.7,91.9,142.3,85.1,133.8,76.5"/>
		<path class="st10" d="M125,85c-7.5-7.7-13.8-17.7-9.9-21.5c3.9-3.8,13.8,2.7,21.3,10.4c7.5,7.7,13.8,17.7,9.9,21.5
			C142.4,99.3,132.6,92.7,125,85z M133.8,76.5c-8.5-8.7-15.2-11.2-16.1-10.3c-0.9,0.9,1.5,7.7,9.9,16.4c8.5,8.7,15.2,11.2,16.1,10.3
			C144.7,91.9,142.3,85.1,133.8,76.5z"/>
		<path class="st18" d="M145.1,92.4l16.4-21.7l-15-17l-6.3-4.8l-22.3,16c-0.1,0.1-0.2,0.1-0.3,0.2c-2.3,2.3,1.9,10.3,9.4,18
			c7.5,7.7,15.4,12.1,17.8,9.8C145,92.7,145.1,92.6,145.1,92.4"/>
		<path class="st10" d="M145.1,92.4l16.4-21.7l-15-17l-6.3-4.8l-22.3,16c-0.1,0.1-0.2,0.1-0.3,0.2c-2.3,2.3,1.9,10.3,9.4,18
			c7.5,7.7,15.4,12.1,17.8,9.8C145,92.7,145.1,92.6,145.1,92.4z"/>
		<path class="st13" d="M161.6,70.7c-1.8,1.8-8.1-1.7-13.9-7.7c-5.9-6-9.2-12.4-7.3-14.1c1.8-1.8,8.1,1.7,13.9,7.7
			C160.1,62.6,163.4,68.9,161.6,70.7"/>
		<path class="st10" d="M161.6,70.7c-1.8,1.8-8.1-1.7-13.9-7.7c-5.9-6-9.2-12.4-7.3-14.1c1.8-1.8,8.1,1.7,13.9,7.7
			C160.1,62.6,163.4,68.9,161.6,70.7z"/>
		<path class="st18" d="M139.8,50.3c0,2.7,3.1,7.8,7.8,12.7c4.8,4.9,9.8,8.1,12.5,8.2c0-2.7-3.1-7.8-7.8-12.7
			C147.5,53.6,142.5,50.4,139.8,50.3"/>
		<path class="st10" d="M139.8,50.3c0,2.7,3.1,7.8,7.8,12.7c4.8,4.9,9.8,8.1,12.5,8.2c0-2.7-3.1-7.8-7.8-12.7
			C147.5,53.6,142.5,50.4,139.8,50.3z"/>
		<path class="st13" d="M148.5,76.1l0.4-0.8c0.1-0.1,0-0.3-0.1-0.4c-0.1-0.1-0.3,0-0.4,0.1l-0.4,0.8l0.1,0.4L148.5,76.1z"/>
		<path class="st13" d="M148.7,76.7l0.8-0.4c0.1-0.1,0.2-0.2,0.1-0.4c-0.1-0.1-0.2-0.2-0.4-0.1l-0.8,0.4l-0.2,0.4L148.7,76.7z"/>
		<path class="st13" d="M149.6,77.2c0-0.1,0-0.3-0.2-0.3l-0.6-0.2l-0.4,0.2l0.1,0.3l0.8,0.2C149.4,77.4,149.5,77.4,149.6,77.2"/>
		<path class="st13" d="M147.8,77.2l0.3,0.6c0,0,0,0.1,0.1,0.1c0.1,0.1,0.2,0.1,0.3,0.1c0.2-0.1,0.2-0.2,0.2-0.4l-0.2-0.4L148,77
			L147.8,77.2z"/>
		<path class="st13" d="M147.4,76.8l-0.3,0.3c-0.1,0.1-0.1,0.3,0,0.4c0.1,0.1,0.3,0.1,0.4,0l0.3-0.3l-0.1-0.3L147.4,76.8z"/>
		<path class="st13" d="M147.5,76.2l-0.4-0.2c-0.1-0.1-0.3,0-0.4,0.1c0,0.1,0,0.2,0.1,0.3c0,0,0,0.1,0.1,0.1l0.6,0.3l0.2-0.2
			L147.5,76.2z"/>
		<path class="st13" d="M148,75.9l-0.2-0.6c0-0.1-0.2-0.2-0.3-0.2c-0.2,0-0.2,0.2-0.2,0.3l0.2,0.8l0.3,0.1L148,75.9z"/>
		<path class="st13" d="M135.2,74.3c0.7,0.7,1.6,1.1,2.5,1.1c0.6,0,1.2-0.2,1.8-0.5l-0.7,2.2c-0.1,0.3,0,0.7,0.2,1
			c0.3,0.3,0.6,0.4,1,0.3l5.5-1.6c0.5-0.2,0.8-0.7,0.7-1.2c-0.2-0.5-0.7-0.8-1.2-0.7l-3.6,1.1l-0.3,0.1l0.1-0.2l1.2-3.6
			c0.2-0.5-0.1-1.1-0.6-1.2c-0.5-0.2-1.1,0.1-1.2,0.6l-0.4,1.3l-1.4-1.4c-0.3-0.3-0.8-0.3-1.2,0c-0.3,0.3-0.4,0.9,0,1.2l0.7,0.7
			c-0.5,0.1-1.1,0-1.6-0.5c-0.3-0.3-0.5-0.7-0.4-1.1c0-0.4,0.2-0.9,0.5-1.2c0.6-0.6,1.5-0.6,2.1-0.2c0.5,0.3,1.1,0.2,1.4-0.3
			c0.2-0.3,0.2-0.6,0.1-0.9c-0.1-0.4-0.6-0.6-0.6-0.6c-1.4-0.8-3.1-0.5-4.3,0.6c-0.2,0.1-0.3,0.3-0.4,0.5c-0.6,0.1-1.5,0.2-2.1-0.5
			c-0.7-0.7-0.7-1.8,0-2.4c0.6-0.6,1.5-0.7,2.2-0.2c0,0,0.2,0.1,0.4,0.3c0.2,0.2,0.8,0.3,1.2-0.1c0.4-0.4,0.4-1,0-1.4
			c-1.4-1.4-3.7-1.5-5.2,0c-1.5,1.4-1.5,3.8-0.1,5.2c0.8,0.8,1.8,1.2,2.8,1.1C134.2,71.6,134,73.1,135.2,74.3"/>
		<g class="st11">
			<g>
				<defs>
					<rect id="SVGID_00000095302215871833507990000001793706417611284398_" x="85.1" y="169.2" width="9.7" height="13.5"/>
				</defs>
				<clipPath id="SVGID_00000001665809613554672380000017140306389229670296_">
					<use xlink:href="#SVGID_00000095302215871833507990000001793706417611284398_"  style="overflow:visible;"/>
				</clipPath>
				<path style="clip-path:url(#SVGID_00000001665809613554672380000017140306389229670296_);fill:#030303;" d="M85.1,169.7
					c2.2,1.8,3.6,4.9,4.5,7.9c1.9,6.2-2.2,5.4,2.2,4.8c6.8-0.9-0.2-13.2-0.2-13.2L85.1,169.7z"/>
			</g>
		</g>
		<path class="st0" d="M153,157.1l-2.5,2.5c-1.2,0.4-2.5,1.1-3.7,2c-1.3,0.9-2.3,1.9-3.1,2.9l-2.8,2l1.8,2.5l0,0
			c1.2,1.2,4.7,0.3,8-2c3.3-2.4,5.2-5.4,4.5-6.9L153,157.1z"/>
		<path class="st1" d="M153,157.1l-2.5,2.5c-1.2,0.4-2.5,1.1-3.7,2c-1.3,0.9-2.3,1.9-3.1,2.9l-2.8,2l1.8,2.5l0,0
			c1.2,1.2,4.7,0.3,8-2c3.3-2.4,5.2-5.4,4.5-6.9L153,157.1z"/>
		<path class="st2" d="M152.6,156.5c0.8,1.2-1.3,4.1-4.7,6.6c-3.5,2.5-6.9,3.5-7.8,2.4c-0.8-1.2,1.3-4.1,4.7-6.6
			C148.3,156.4,151.8,155.3,152.6,156.5"/>
		<path class="st1" d="M152.6,156.5c0.8,1.2-1.3,4.1-4.7,6.6c-3.5,2.5-6.9,3.5-7.8,2.4c-0.8-1.2,1.3-4.1,4.7-6.6
			C148.3,156.4,151.8,155.3,152.6,156.5z"/>
		<path class="st0" d="M169.6,132.1c-2.1,7.5-9.3,12-16.1,10.1c-1.5-0.4-4.7-2-4.7-2l9.2-26.1c0,0,2,0.7,3.1,1
			C167.9,117,171.7,124.6,169.6,132.1"/>
		<path class="st20" d="M169.6,132.1c-2.1,7.5-9.3,12-16.1,10.1c-1.5-0.4-4.7-2-4.7-2l9.2-26.1c0,0,2,0.7,3.1,1
			C167.9,117,171.7,124.6,169.6,132.1z"/>
		<path class="st2" d="M166.2,130.7c-2.1,7.5-9.2,12-15.8,10.1c-6.7-1.9-10.4-9.4-8.3-16.9c2.1-7.5,9.2-12,15.8-10.1
			C164.6,115.7,168.2,123.2,166.2,130.7"/>
		<path class="st21" d="M166.2,130.7c-2.1,7.5-9.2,12-15.8,10.1c-6.7-1.9-10.4-9.4-8.3-16.9c2.1-7.5,9.2-12,15.8-10.1
			C164.6,115.7,168.2,123.2,166.2,130.7z"/>
		<path class="st22" d="M163.7,130.2c1.5-5.3-0.7-10.7-4.9-12.9c-0.2-0.1-0.5-0.2-0.8-0.3c-5.4-1.5-11.1,2.2-12.8,8.2
			c-1.5,5.3,0.7,10.7,4.9,12.9c0.2,0.1,0.5,0.2,0.8,0.3C156.3,139.8,162,136.2,163.7,130.2"/>
		<path class="st0" d="M145.7,125.2c1.7-6,7-9.7,12.4-8.2c0.3,0.1,0.5,0.2,0.8,0.3c-0.5-0.3-1.1-0.5-1.7-0.7
			c-5.4-1.5-11.1,2.2-12.8,8.2c-1.6,5.7,1,11.5,5.9,13.4C146,135.9,144.2,130.5,145.7,125.2"/>
		<path class="st23" d="M149.3,131.3l3.2-9.1c0.2-0.7,0.8-0.9,1.4-0.7l3.3,1.3c2.4,0.9,3.2,2.9,2.5,5.1c-0.7,2.2-2.7,3.1-5,2.2
			l-1.9-0.7c-0.1,0-0.1,0-0.1,0.1l-1,2.8c-0.3,0.8-0.9,1.1-1.6,0.9C149.3,132.8,149,132.1,149.3,131.3 M157.3,127
			c0.3-0.9,0-1.8-1-2.2l-1.8-0.7c-0.1,0-0.1,0-0.1,0.1l-1,2.9c0,0.1,0,0.1,0.1,0.1l1.8,0.7C156.2,128.3,157,128,157.3,127"/>
		<path class="st1" d="M161.2,114.2c-0.2-0.1-2.1-0.8-3.1-1c-6.8-1.2-14,3.3-16.1,10.7c-2.1,7.4,1.6,15.7,8.1,17.7
			c1.1,0.5,2.3,0.8,3.2,1.1c6.8,1.9,14.2-3.2,16.3-10.6C171.7,124.6,167.9,116.3,161.2,114.2z"/>
		<path class="st1" d="M155.1,160c0,0-1.9-2.8-2-3c-1.1-1.5-4.7-0.7-8.2,1.8c-3.5,2.5-5.4,5.7-4.3,7.2c0.1,0.2,2.1,2.9,2.1,2.9l0,0
			c1.2,1.2,4.7,0.3,8-2C153.9,164.6,155.8,161.6,155.1,160z"/>
		<path class="st0" d="M38.3,46.3l-2.2,3c-1,0.8-2,1.8-2.9,3.1c-0.9,1.3-1.6,2.5-2,3.7l-2.1,2.8l2.4,1.8l0,0c1.6,0.7,4.6-1.1,7-4.4
			c2.4-3.3,3.3-6.7,2.1-8L38.3,46.3z"/>
		<path class="st1" d="M38.3,46.3l-2.2,3c-1,0.8-2,1.8-2.9,3.1c-0.9,1.3-1.6,2.5-2,3.7l-2.1,2.8l2.4,1.8l0,0c1.6,0.7,4.6-1.1,7-4.4
			c2.4-3.3,3.3-6.7,2.1-8L38.3,46.3z"/>
		<path class="st2" d="M37.2,45.7c1.2,0.9,0.1,4.3-2.4,7.8c-2.5,3.4-5.5,5.5-6.7,4.7c-1.2-0.9-0.1-4.3,2.4-7.8
			C33.1,46.9,36,44.8,37.2,45.7"/>
		<path class="st1" d="M37.2,45.7c1.2,0.9,0.1,4.3-2.4,7.8c-2.5,3.4-5.5,5.5-6.7,4.7c-1.2-0.9-0.1-4.3,2.4-7.8
			C33.1,46.9,36,44.8,37.2,45.7z"/>
		<path class="st1" d="M40.6,48.3c0,0-2.7-2.1-2.9-2.2c-1.5-1.1-4.7,0.8-7.2,4.3c-2.5,3.4-3.4,7.1-1.9,8.2c0.2,0.1,2.9,2.1,2.9,2.1
			l0,0c1.6,0.7,4.6-1.1,7-4.4C40.9,53,41.8,49.5,40.6,48.3z"/>
		<path class="st0" d="M19.4,161.9c3.3,5.5,10.1,7.5,15.2,4.5c1.1-0.7,3.3-2.6,3.3-2.6l-13.1-18.9c0,0-1.5,1-2.3,1.5
			C17.4,149.5,16,156.4,19.4,161.9"/>
		<path class="st20" d="M19.4,161.9c3.3,5.5,10.1,7.5,15.2,4.5c1.1-0.7,3.3-2.6,3.3-2.6l-13.1-18.9c0,0-1.5,1-2.3,1.5
			C17.4,149.5,16,156.4,19.4,161.9z"/>
		<path class="st2" d="M21.9,160c3.3,5.5,10,7.6,15,4.6c4.9-3,6.2-9.9,2.9-15.4c-3.3-5.5-10-7.6-15-4.6
			C19.8,147.6,18.5,154.5,21.9,160"/>
		<path class="st21" d="M21.9,160c3.3,5.5,10,7.6,15,4.6c4.9-3,6.2-9.9,2.9-15.4c-3.3-5.5-10-7.6-15-4.6
			C19.8,147.6,18.5,154.5,21.9,160z"/>
		<path class="st22" d="M23.7,159.1c-2.4-3.9-1.8-8.7,1.1-11.5c0.2-0.1,0.4-0.3,0.6-0.4c4-2.4,9.4-0.7,12.1,3.7
			c2.4,3.9,1.8,8.7-1.1,11.5c-0.2,0.1-0.4,0.3-0.6,0.4C31.8,165.2,26.4,163.5,23.7,159.1"/>
		<path class="st0" d="M37.1,151.1c-2.7-4.5-7.8-6.3-11.8-3.9c-0.2,0.1-0.4,0.2-0.6,0.4c0.4-0.4,0.8-0.7,1.2-0.9
			c4-2.4,9.4-0.7,12.1,3.7c2.6,4.2,1.7,9.5-1.8,12C39.2,159.7,39.5,155,37.1,151.1"/>
		<path class="st1" d="M22.2,145.7c0.1-0.1,1.5-1.1,2.3-1.5c5.2-2.5,11.9-0.5,15.3,5c3.3,5.4,2.2,12.9-2.5,16
			c-0.7,0.6-1.7,1.2-2.4,1.6c-5,3-12.1,0.6-15.4-4.9C16,156.4,17.3,148.9,22.2,145.7z"/>
		<path class="st23" d="M30.9,160.1l-5.1-6.9c-0.4-0.5-0.3-1,0.2-1.4l2.7-2c1.9-1.4,3.8-1.1,5.1,0.5c1.2,1.6,0.9,3.6-0.9,5l-1.5,1.1
			c-0.1,0-0.1,0.1,0,0.1l1.6,2.1c0.4,0.6,0.3,1.3-0.2,1.7C32,160.8,31.3,160.7,30.9,160.1 M31.8,151.7c-0.5-0.7-1.3-0.8-2.1-0.2
			l-1.4,1.1c-0.1,0-0.1,0.1,0,0.1l1.6,2.2c0,0,0.1,0.1,0.1,0l1.4-1.1C32.2,153.2,32.3,152.4,31.8,151.7"/>
		
			<rect x="207.5" y="119.4" transform="matrix(0.5788 -0.8155 0.8155 0.5788 -10.0993 224.4624)" class="st24" width="9.4" height="5.3"/>
		
			<rect x="207.5" y="119.4" transform="matrix(0.5788 -0.8155 0.8155 0.5788 -10.0993 224.4624)" class="st1" width="9.4" height="5.3"/>
		<path class="st25" d="M1.3,102.7l4.5-1.1c0,0-0.5,7,3.9,9c3.2,1.4,5.3,3.5,5.3,7.3c-2.6,0.6-4.7,0.8-4.7,0.8s0.1-2-4.1-4.6
			C1.9,111.4,0,106.1,1.3,102.7"/>
		<path class="st1" d="M1.3,102.7l4.5-1.1c0,0-0.5,7,3.9,9c3.2,1.4,5.3,3.5,5.3,7.3c-2.6,0.6-4.7,0.8-4.7,0.8s0.1-2-4.1-4.6
			C1.9,111.4,0,106.1,1.3,102.7z"/>
		<path class="st26" d="M217.6,71.8l-4.4,1.2c0,0-0.4-7.4-4.1-8.6c-3.2-1.1-5.2-3.3-5.3-7c2.5-0.6,4.6-0.9,4.6-0.9s0.4,4.1,3.7,5.5
			C216.8,63.9,217.9,67.7,217.6,71.8"/>
		<path class="st1" d="M217.6,71.8l-4.4,1.2c0,0-0.4-7.4-4.1-8.6c-3.2-1.1-5.2-3.3-5.3-7c2.5-0.6,4.6-0.9,4.6-0.9s0.4,4.1,3.7,5.5
			C216.8,63.9,217.9,67.7,217.6,71.8z"/>
		<path class="st0" d="M197.4,144.8c-0.3-0.2-3.4-2.7-3.4-2.7l-2.2,3.2c-1.9,1-3.9,2.8-5.6,5c-1.9,2.4-3.2,5-3.7,7.3l-2,2.6l3,2.4
			c2.4,1.9,7.5-0.6,11.3-5.5C198.6,152.2,199.8,146.7,197.4,144.8"/>
		<path class="st20" d="M197.4,144.8c-0.3-0.2-3.4-2.7-3.4-2.7l-2.2,3.2c-1.9,1-3.9,2.8-5.6,5c-1.9,2.4-3.2,5-3.7,7.3l-2,2.6l3,2.4
			c2.4,1.9,7.5-0.6,11.3-5.5C198.6,152.2,199.8,146.7,197.4,144.8z"/>
		<path class="st2" d="M183.1,147.9c-3.9,4.9-5.2,10.3-3,12c2.2,1.7,7.1-0.9,11-5.8c3.9-4.9,5.2-10.3,3-12
			C191.9,140.4,187,143,183.1,147.9"/>
		<path class="st21" d="M183.1,147.9c-3.9,4.9-5.2,10.3-3,12c2.2,1.7,7.1-0.9,11-5.8c3.9-4.9,5.2-10.3,3-12
			C191.9,140.4,187,143,183.1,147.9z"/>
		<path class="st0" d="M185.6,150c2.7-3.3,5.7-5.3,7.2-4.9c-0.1-0.2-0.2-0.4-0.3-0.5c-1.3-1.1-4.7,1-7.7,4.6c-3,3.7-4.4,7.5-3.1,8.6
			c0.1,0.1,0.3,0.2,0.4,0.2C181.6,156.7,183,153.3,185.6,150"/>
		<path class="st22" d="M189.4,153.3c2.6-3.2,4-6.6,3.4-8.1c-1.5-0.4-4.6,1.6-7.2,4.9c-2.6,3.2-4,6.6-3.4,8.1
			C183.7,158.6,186.8,156.6,189.4,153.3"/>
		<path class="st1" d="M197.4,144.8c-0.2-0.2-2.8-2.3-3-2.4c-2.4-1.9-7.5,0.6-11.3,5.5c-3.9,4.9-5.1,10.4-2.7,12.3l3,2.4
			c2.4,1.9,7.5-0.6,11.3-5.5C198.6,152.2,199.8,146.7,197.4,144.8z"/>
	</g>
</g>
</svg>
