<?xml version="1.0" encoding="utf-8"?>
<!-- Generator: Adobe Illustrator 27.3.1, SVG Export Plug-In . SVG Version: 6.00 Build 0)  -->
<svg version="1.1" id="Layer_1" xmlns="http://www.w3.org/2000/svg" xmlns:xlink="http://www.w3.org/1999/xlink" x="0px" y="0px"
	 viewBox="0 0 181.9 207.4" style="enable-background:new 0 0 181.9 207.4;" xml:space="preserve">
<style type="text/css">
	.st0{fill:#DBDCDD;stroke:#FFD115;stroke-width:5.0233;stroke-linecap:round;stroke-linejoin:round;}
	.st1{opacity:0.1;}
	.st2{clip-path:url(#SVGID_00000119118374046984848700000013089286927134490522_);fill:#010101;}
	.st3{fill:none;stroke:#221F1F;stroke-width:1.5016;stroke-linecap:round;stroke-linejoin:round;stroke-miterlimit:10;}
	.st4{fill:#414143;}
	.st5{fill:none;stroke:#010101;stroke-width:1.5016;stroke-linecap:round;stroke-linejoin:round;stroke-miterlimit:10;}
	.st6{fill:#FFFFFF;}
	.st7{fill:#DBDCDD;}
	.st8{fill:#D42E27;}
	.st9{fill:#272626;}
	.st10{fill:#FDCD0A;}
	.st11{opacity:0.2;}
	.st12{clip-path:url(#SVGID_00000098202906205992404370000002068252883263605907_);fill:#030303;}
	.st13{fill:#E5E6E6;}
	.st14{fill:#E1E2E3;}
	.st15{fill:#E12F2D;}
	.st16{fill:#2872A0;}
	.st17{fill:#FDCF98;}
	.st18{fill:#F9A761;}
	.st19{fill:#030303;}
	.st20{clip-path:url(#SVGID_00000157270306547277659580000007341676100405369496_);fill:#010101;}
	.st21{clip-path:url(#SVGID_00000109731840941009845740000009712227281992527538_);fill:#030303;}
</style>
<g>
	<g id="Group_2-2" transform="translate(24.974)">
		<g id="Rectangle_2-5" transform="translate(0.46 -0.465)">
			<path class="st0" d="M57.8,71.1L57.8,71.1c36.1,0,65.4,29.3,65.4,65.4v2.6c0,36.1-29.3,65.4-65.4,65.4l0,0
				c-36.1,0-65.4-29.3-65.4-65.4v-2.6C-7.6,100.4,21.6,71.1,57.8,71.1z"/>
		</g>
	</g>
	<g class="st1">
		<g>
			<g>
				<defs>
					<rect id="SVGID_1_" x="62.1" y="203.1" width="28" height="4.3"/>
				</defs>
				<clipPath id="SVGID_00000086656711981617800930000005311300739366546079_">
					<use xlink:href="#SVGID_1_"  style="overflow:visible;"/>
				</clipPath>
				<path style="clip-path:url(#SVGID_00000086656711981617800930000005311300739366546079_);fill:#010101;" d="M90.1,205.3
					c0,1.2-6.3,2.2-14,2.2c-7.7,0-14-1-14-2.2c0-1.2,6.3-2.2,14-2.2C83.8,203.1,90.1,204.1,90.1,205.3"/>
			</g>
		</g>
	</g>
	<line class="st3" x1="172.4" y1="67.1" x2="176.1" y2="63.7"/>
	<path class="st4" d="M179.7,197.9l-1.4-0.4V4.3c0-2-1.5-3.6-3.3-3.6h-70.9c-1.8,0-3.3,1.6-3.3,3.6v193.1l-1.3,0.2
		c-1.2,0.5-1,1.5-1,1.8v3.6c0,0.3,0.7,0.5,1.5,0.5h79.6c0.8,0,1.5-0.2,1.5-0.5v-3.6C181.1,199.2,181,198.3,179.7,197.9"/>
	<path class="st5" d="M179.7,197.9l-1.4-0.4V4.3c0-2-1.5-3.6-3.3-3.6h-70.9c-1.8,0-3.3,1.6-3.3,3.6v193.1l-1.3,0.2
		c-1.2,0.5-1,1.5-1,1.8v3.6c0,0.3,0.7,0.5,1.5,0.5h79.6c0.8,0,1.5-0.2,1.5-0.5v-3.6C181.1,199.2,181,198.3,179.7,197.9z"/>
	<line class="st5" x1="180.4" y1="198.4" x2="99" y2="198.4"/>
	<line class="st5" x1="178.1" y1="122.4" x2="100.9" y2="122.4"/>
	<path class="st7" d="M170.2,111.9c0,1.4-1.2,2.5-2.7,2.5h-55.4c-1.5,0-2.7-1.1-2.7-2.5V11.4c0-1.4,1.2-2.5,2.7-2.5h55.4
		c1.5,0,2.7,1.1,2.7,2.5V111.9z"/>
	<path class="st5" d="M170.2,111.9c0,1.4-1.2,2.5-2.7,2.5h-55.4c-1.5,0-2.7-1.1-2.7-2.5V11.4c0-1.4,1.2-2.5,2.7-2.5h55.4
		c1.5,0,2.7,1.1,2.7,2.5V111.9z"/>
	<path class="st8" d="M160.5,51.6l-0.6-1.6c-0.1-0.3-0.4-0.5-0.7-0.4c-0.3,0.1-0.5,0.4-0.3,0.7l0.6,1.7l0.8,0.4L160.5,51.6z"/>
	<path class="st8" d="M161.6,52.1l0.6-1.8c0.1-0.3-0.1-0.6-0.4-0.7c-0.3-0.1-0.6,0-0.7,0.4l-0.6,1.7l0.3,0.9L161.6,52.1z"/>
	<path class="st8" d="M163.5,51.6c-0.2-0.3-0.5-0.4-0.8-0.2l-1.2,0.7l-0.3,0.9l0.6,0.2l1.5-0.8C163.6,52.2,163.7,51.9,163.5,51.6"/>
	<path class="st8" d="M161.1,54.2l1.3,0.4c0.1,0.1,0.1,0.1,0.2,0.1c0.2,0,0.5-0.2,0.5-0.4c0.1-0.3,0-0.6-0.3-0.8l-0.9-0.3l-0.8,0.4
		L161.1,54.2z"/>
	<path class="st8" d="M159.9,54.2l0,0.9c0,0.3,0.3,0.6,0.6,0.6c0.3,0,0.6-0.3,0.6-0.6l0-0.9l-0.6-0.2L159.9,54.2z"/>
	<path class="st8" d="M159.2,53.2l-0.9,0.3c-0.3,0.1-0.4,0.4-0.3,0.8c0.1,0.2,0.3,0.4,0.6,0.3c0.1,0,0.1,0,0.2,0l1.2-0.5l0-0.5
		L159.2,53.2z"/>
	<path class="st8" d="M159.4,52.1l-1.2-0.7c-0.3-0.2-0.6-0.1-0.8,0.2c-0.1,0.3-0.1,0.6,0.2,0.8l1.5,0.8l0.6-0.2L159.4,52.1z"/>
	<path class="st8" d="M138.9,68.6c2,0,3.9-0.9,5.2-2.2c0.9-0.9,1.5-2.1,1.8-3.3l2.3,4.3c0.4,0.6,1,1.1,1.8,1.1
		c0.7,0,1.4-0.4,1.8-1.1l5.5-10.4c0.5-1,0.1-2.2-0.9-2.8c-1-0.5-2.2-0.1-2.7,0.9l-3.5,7l-0.2,0.6l-0.2-0.6l-3.6-6.9
		c-0.5-1-1.8-1.4-2.7-0.8c-1,0.5-1.4,1.8-0.8,2.8l1.3,2.5l-4.1,0c-0.9,0-1.7,0.8-1.7,1.7c0,1,0.8,1.7,1.7,1.7l2,0
		c-0.6,0.9-1.5,1.7-3,1.7c-0.9,0-1.7-0.4-2.3-1c-0.6-0.6-1-1.5-1-2.5c0-1.7,1.2-3.1,2.6-3.4c1.1-0.2,1.7-1.3,1.5-2.4
		c-0.1-0.6-0.6-1.1-1.1-1.4c-0.8-0.4-1.8,0-1.8,0c-3,0.9-5.2,3.8-5.2,7.2c0,0.4,0,0.9,0.1,1.3c-0.7,1-1.9,2.4-3.9,2.4
		c-2,0-3.5-1.6-3.5-3.6c0-1.8,1.2-3.2,2.9-3.5c0,0,0.4-0.1,1.1-0.1c0.6-0.1,1.5-0.8,1.5-1.9c0-1.1-0.9-2-2-2c-4.2,0-7.5,3.5-7.5,7.6
		c0,4.2,3.4,7.6,7.6,7.5c2.3,0,4.3-1,5.7-2.6C133.5,66.2,135.4,68.6,138.9,68.6"/>
	<path class="st9" d="M135.6,152.9c0,0.9-0.7,1.6-1.6,1.6h-18.5c-0.9,0-1.6-0.7-1.6-1.6v-10c0-0.9,0.7-1.6,1.6-1.6h18.5
		c0.9,0,1.6,0.7,1.6,1.6V152.9z"/>
	<path class="st5" d="M135.6,152.9c0,0.9-0.7,1.6-1.6,1.6h-18.5c-0.9,0-1.6-0.7-1.6-1.6v-10c0-0.9,0.7-1.6,1.6-1.6h18.5
		c0.9,0,1.6,0.7,1.6,1.6V152.9z"/>
	<path class="st9" d="M164.7,138.4c0,0.6-0.5,1.2-1.2,1.2h-13.8c-0.6,0-1.2-0.5-1.2-1.2v-7.5c0-0.6,0.5-1.2,1.2-1.2h13.8
		c0.6,0,1.2,0.5,1.2,1.2V138.4z"/>
	<path class="st5" d="M164.7,138.4c0,0.6-0.5,1.2-1.2,1.2h-13.8c-0.6,0-1.2-0.5-1.2-1.2v-7.5c0-0.6,0.5-1.2,1.2-1.2h13.8
		c0.6,0,1.2,0.5,1.2,1.2V138.4z"/>
	<path class="st10" d="M88,169.4c3.3,0.9,8.1,0.3,11.1-0.9c1.1-0.4,2.3-1,3.3-1.7c1.7-1.2,4.6-3.4,4.7-5.5c0.1-0.9-0.3-1.8-1-2.4
		c-0.3-0.2-0.8-0.4-1.2-0.3c-0.4,0-0.8,0.3-1.2,0.4c-0.1,0-0.4,0.1-0.5,0c-0.1-0.1,0-0.4,0-0.5c0.1-0.5-0.3-0.9-0.7-1.1
		c-1-0.4-1.5,0.5-2.1,1.1c-0.4,0.4-0.8,0.9-1.8,1.4c-2,1.1-4.1,1.6-6.4,1.7c-2,0.1-5-0.5-6.8-1.8c0,0-10.7,5.7-17,4.7
		c-1.7-0.3-3.5-0.7-5.1-1.3c0,0-2.6,2.3-2.8,6.8c-0.3,5.6,2.4,8.4,3.2,9.1c-0.8,5.1-1.4,20.5-1.4,20.5c-0.2,1.4-0.4,2.9,1,4.3
		c1,1,3.1,1.2,4.6,1.2c1,0,2-0.1,3-0.4c1.1-0.3,2.2-1.4,1-2.6c-0.1-0.1-0.2-0.2-0.4-0.3c0.2-0.8,3.8-11.2,3.8-12.2
		c0.9,0.1,2,0.1,3.2-0.1c0,1,0.1,5.1,0.1,6.1c0.1,1.5,0.2,2.9,0.3,4.4c0.1,1.4,0.2,2.9,1.4,3.8c1.2,1,2.7,1.1,4.2,1.1
		c1,0,2-0.1,3-0.4c1.1-0.3,2.2-1.4,1-2.6c-0.1-0.1-0.2-0.2-0.4-0.3c0.2-0.8,0.3-1.7,0.3-2.6c0.3-4.7,0.8-8,1.4-12.9
		c0.4-5.8-0.3-11.3-1.5-15.7L88,169.4z"/>
	<path class="st5" d="M88,169.4c3.3,0.9,8.1,0.3,11.1-0.9c1.1-0.4,2.3-1,3.3-1.7c1.7-1.2,4.6-3.4,4.7-5.5c0.1-0.9-0.3-1.8-1-2.4
		c-0.3-0.2-0.8-0.4-1.2-0.3c-0.4,0-0.8,0.3-1.2,0.4c-0.1,0-0.4,0.1-0.5,0c-0.1-0.1,0-0.4,0-0.5c0.1-0.5-0.3-0.9-0.7-1.1
		c-1-0.4-1.5,0.5-2.1,1.1c-0.4,0.4-0.8,0.9-1.8,1.4c-2,1.1-4.1,1.6-6.4,1.7c-2,0.1-5-0.5-6.8-1.8c0,0-10.7,5.7-17,4.7
		c-1.7-0.3-3.5-0.7-5.1-1.3c0,0-2.6,2.3-2.8,6.8c-0.3,5.6,2.4,8.4,3.2,9.1c-0.8,5.1-1.4,20.5-1.4,20.5c-0.2,1.4-0.4,2.9,1,4.3
		c1,1,3.1,1.2,4.6,1.2c1,0,2-0.1,3-0.4c1.1-0.3,2.2-1.4,1-2.6c-0.1-0.1-0.2-0.2-0.4-0.3c0.2-0.8,3.8-11.2,3.8-12.2
		c0.9,0.1,2,0.1,3.2-0.1c0,1,0.1,5.1,0.1,6.1c0.1,1.5,0.2,2.9,0.3,4.4c0.1,1.4,0.2,2.9,1.4,3.8c1.2,1,2.7,1.1,4.2,1.1
		c1,0,2-0.1,3-0.4c1.1-0.3,2.2-1.4,1-2.6c-0.1-0.1-0.2-0.2-0.4-0.3c0.2-0.8,0.3-1.7,0.3-2.6c0.3-4.7,0.8-8,1.4-12.9
		c0.4-5.8-0.3-11.3-1.5-15.7L88,169.4z"/>
	<line class="st5" x1="78.4" y1="189.3" x2="81.1" y2="188.9"/>
	<g class="st11">
		<g>
			<defs>
				<rect id="SVGID_00000021797447695888305490000011616281914877683133_" x="61.3" y="162.3" width="24.6" height="6.4"/>
			</defs>
			<clipPath id="SVGID_00000065771939654838931980000017588275584558264708_">
				<use xlink:href="#SVGID_00000021797447695888305490000011616281914877683133_"  style="overflow:visible;"/>
			</clipPath>
			<path style="clip-path:url(#SVGID_00000065771939654838931980000017588275584558264708_);fill:#030303;" d="M85.3,162.6
				c-5.7,2.9-12.3,4-18.7,4c-1.7,0-3.5-0.2-5.3-0.6c0,0,0,0,0,0c0,0,4.5,3.4,12.4,2.5c0,0,7.7-0.5,12.1-6.2c0,0,0,0,0,0
				C85.6,162.4,85.4,162.5,85.3,162.6"/>
		</g>
	</g>
	<path class="st5" d="M88.1,201.4c0,0-0.8-0.6-3.6-0.7c0,0-1.8,0.1-2.8,0.6"/>
	<path class="st13" d="M105.4,121.8c-0.1-0.4-0.5-0.6-0.9-0.5c-0.4,0.1-0.6,0.4-0.6,0.8c0,0,0.6,4.7-0.7,9.9
		c-1.1,4.3-3.1,7.6-5.9,10c0,2.2-0.2,4.4-0.8,6.5c-0.3,1-0.7,1.9-1.2,2.8c3-1.4,7.1-4.2,9.6-9.1C107.8,136.6,108,129.8,105.4,121.8"
		/>
	<path class="st6" d="M101.6,88.1c1.1-2.5,1.4-5.5,0.5-8.4c-2-6.3-8.7-9.8-15-7.9c-0.2,0.1-0.3,0.1-0.5,0.2
		c-4.9-13.4-19.5-20.7-33.2-16.5c-7.1,2.2-12.6,7-15.8,13.1c-4.3-1-8.9-0.9-13.5,0.5C10.6,73.3,3,87.6,7.2,101.2
		c0.2,0.6,0.4,1.2,0.6,1.8c-6.2,6.7-8.8,16.4-5.9,25.7c3.4,11.1,13.6,18.3,24.6,18.5c0.2,0.9,0.4,1.8,0.7,2.8
		C30,159,38,165.4,46.9,166.6c0.1,0,3.2,0.4,7.5-0.8c0,0,10.9-2.6,19.2-9.7c10.3,1,18.8-2.4,18.8-2.4c0,0,0,0,0,0v0
		c0,0,21-5.3,13.1-30.2c8.5-3.8,13.1-13.5,10.2-22.6C113.6,94.1,108.1,89.4,101.6,88.1"/>
	<path class="st5" d="M101.6,88.1c1.1-2.5,1.4-5.5,0.5-8.4c-2-6.3-8.7-9.8-15-7.9c-0.2,0.1-0.3,0.1-0.5,0.2
		c-4.9-13.4-19.5-20.7-33.2-16.5c-7.1,2.2-12.6,7-15.8,13.1c-4.3-1-8.9-0.9-13.5,0.5C10.6,73.3,3,87.6,7.2,101.2
		c0.2,0.6,0.4,1.2,0.6,1.8c-6.2,6.7-8.8,16.4-5.9,25.7c3.4,11.1,13.6,18.3,24.6,18.5c0.2,0.9,0.4,1.8,0.7,2.8
		C30,159,38,165.4,46.9,166.6c0.1,0,3.2,0.4,7.5-0.8c0,0,10.9-2.6,19.2-9.7c10.3,1,18.8-2.4,18.8-2.4c0,0,0,0,0,0v0
		c0,0,21-5.3,13.1-30.2c8.5-3.8,13.1-13.5,10.2-22.6C113.6,94.1,108.1,89.4,101.6,88.1z"/>
	<path class="st5" d="M37.6,68.6c0,0,4.9,1.2,7.4,3.4"/>
	<line class="st5" x1="86.6" y1="72" x2="86.9" y2="73"/>
	<path class="st13" d="M56,163c-1.9-1.5-3.5-3.5-4.8-5.7C35,157.5,30.5,142.7,30.3,142c-0.1-0.3-0.3-0.5-0.6-0.5
		c-11.7-1.3-19.8-5.2-24-11.7c-5.4-8.2-2.6-17.7-2.5-18.1c0.1-0.4-0.1-0.7-0.4-0.9c-2.3,6-6.5,23,14.1,34.1c0,0,5.5,1.9,9.7,2.1
		c0,0,1.7,18,22.3,19.5c0,0,4.7-0.3,9.7-2C57.6,164.2,56.8,163.7,56,163"/>
	<path class="st5" d="M84.4,127.3l0.7-1c0,0,1.1-1.9,1.4-3.3"/>
	<line class="st5" x1="57.7" y1="134.4" x2="56.4" y2="133.8"/>
	<path class="st14" d="M88.8,110.4l-4.8-11.3c-0.6-1.5-1.8-1.8-2.5-1.8c-0.6,0-1,0.2-1.1,0.2l-19.9,8.2l-26.6,11.2
		c-1.7,0.7-1.7,2.2-1.3,3.3l4.9,11.6c0.4,0.9,1.6,2.9,3.9,2.9c0.6,0,1.2-0.1,1.8-0.4c0,0,16.1-6.8,16.2-6.8c2.4-1,3.5-3.6,3.8-4.7
		l1-3.1c0.1-0.3,0.4-0.7,0.8-0.7c0.2,0,0.5,0.1,0.7,0.2l2.8,1.4c0.9,0.5,2.3,1,3.9,1c0.8,0,1.5-0.1,2.2-0.4l0,0
		c0.6-0.2,2.9-1.2,11.8-4.8C89.4,115.1,89.6,112.5,88.8,110.4"/>
	<path class="st6" d="M81.3,95.1l-19.9,8.2l-2.1,0.9l-24.5,10.3c-1.5,0.6-1.1,1.9-0.9,2.3l2.6,6.3l0.8,1.9l1.4,3.4
		c0.4,0.9,1.9,3.4,4.8,2.1c0,0,16.2-6.8,16.2-6.8c1.7-0.7,2.8-2.5,3.4-4.2l1-3.2c0.2-0.5,0.9-1.8,2.6-0.9l2.8,1.4
		c1.6,0.8,3.7,1.3,5.4,0.6c0,0,11.8-4.9,11.8-4.9c2.9-1.2,2.2-4,1.8-4.9l-0.6-1.4l-0.8-1.9l-0.8-2l-2.5-6
		C83.1,94.4,81.3,95.1,81.3,95.1"/>
	<path class="st5" d="M81.3,95.1l-19.9,8.2l-2.1,0.9l-24.5,10.3c-1.5,0.6-1.1,1.9-0.9,2.3l2.6,6.3l0.8,1.9l1.4,3.4
		c0.4,0.9,1.9,3.4,4.8,2.1c0,0,16.2-6.8,16.2-6.8c1.7-0.7,2.8-2.5,3.4-4.2l1-3.2c0.2-0.5,0.9-1.8,2.6-0.9l2.8,1.4
		c1.6,0.8,3.7,1.3,5.4,0.6c0,0,11.8-4.9,11.8-4.9c2.9-1.2,2.2-4,1.8-4.9l-0.6-1.4l-0.8-1.9l-0.8-2l-2.5-6
		C83.1,94.4,81.3,95.1,81.3,95.1z"/>
	<polygon class="st15" points="38.8,117.4 42.7,126.5 58.6,119.8 60.9,113.1 59.1,108.9 	"/>
	<polygon class="st5" points="38.8,117.4 42.7,126.5 58.6,119.8 60.9,113.1 59.1,108.9 	"/>
	<polygon class="st16" points="80.7,99.9 84.5,109 73.1,113.7 66.7,110.7 64.9,106.4 	"/>
	<polygon class="st5" points="80.7,99.9 84.5,109 73.1,113.7 66.7,110.7 64.9,106.4 	"/>
	<path class="st6" d="M81.3,95.1l-19.9,8.2l-2.1,0.9l-24.5,10.3c-1.5,0.6-1.1,1.9-0.9,2.3l2.6,6.3l0.8,1.9l1.4,3.4
		c0.4,0.9,1.9,3.4,4.8,2.1c0,0,16.2-6.8,16.2-6.8c1.7-0.7,2.8-2.5,3.4-4.2l1-3.2c0.2-0.5,0.9-1.8,2.6-0.9l2.8,1.4
		c1.6,0.8,3.7,1.3,5.4,0.6c0,0,11.8-4.9,11.8-4.9c2.9-1.2,2.2-4,1.8-4.9l-0.6-1.4l-0.8-1.9l-0.8-2l-2.5-6
		C83.1,94.4,81.3,95.1,81.3,95.1"/>
	<path class="st5" d="M81.3,95.1l-19.9,8.2l-2.1,0.9l-24.5,10.3c-1.5,0.6-1.1,1.9-0.9,2.3l2.6,6.3l0.8,1.9l1.4,3.4
		c0.4,0.9,1.9,3.4,4.8,2.1c0,0,16.2-6.8,16.2-6.8c1.7-0.7,2.8-2.5,3.4-4.2l1-3.2c0.2-0.5,0.9-1.8,2.6-0.9l2.8,1.4
		c1.6,0.8,3.7,1.3,5.4,0.6c0,0,11.8-4.9,11.8-4.9c2.9-1.2,2.2-4,1.8-4.9l-0.6-1.4l-0.8-1.9l-0.8-2l-2.5-6
		C83.1,94.4,81.3,95.1,81.3,95.1z"/>
	<polygon class="st8" points="38.8,117.4 42.7,126.5 58.6,119.8 60.9,113.1 59.1,108.9 	"/>
	<polygon class="st5" points="38.8,117.4 42.7,126.5 58.6,119.8 60.9,113.1 59.1,108.9 	"/>
	<polygon class="st16" points="80.7,99.9 84.5,109 73.1,113.7 66.7,110.7 64.9,106.4 	"/>
	<polygon class="st5" points="80.7,99.9 84.5,109 73.1,113.7 66.7,110.7 64.9,106.4 	"/>
	<path class="st5" d="M101.6,88.1c1.1-2.5,1.4-5.5,0.5-8.4c-2-6.3-8.7-9.8-15-7.9c-0.2,0.1-0.3,0.1-0.5,0.2
		c-4.9-13.4-19.5-20.7-33.2-16.5c-7.1,2.2-12.6,7-15.8,13.1c-4.3-1-8.9-0.9-13.5,0.5C10.6,73.3,3,87.6,7.2,101.2
		c0.2,0.6,0.4,1.2,0.6,1.8c-6.2,6.7-8.8,16.4-5.9,25.7c3.4,11.1,13.6,18.3,24.6,18.5c0.2,0.9,0.4,1.8,0.7,2.8
		c0.8,2.7,2.2,5.3,3.9,7.5c1.7,2.2,3.8,4.1,6.1,5.6c2.3,1.5,4.9,2.6,7.6,3.2c1.6,0.3,3.1,0.5,4.7,0.4c1.7-0.1,3.3-0.5,4.9-0.9
		c0,0,10.9-2.6,19.2-9.7c10.3,1,18.8-2.4,18.8-2.4c0,0,21-5.3,13.1-30.2c8.5-3.8,13.1-13.5,10.2-22.6
		C113.6,94.1,108.1,89.4,101.6,88.1z"/>
	<path class="st17" d="M84.4,127.3c-2.6,3.9-6.5,6.9-11.2,8.4c-5.3,1.7-10.8,1.1-15.5-1.2c-2,5.2-6.2,9.4-11.8,11.3
		c2.4,6.1,5,13.1,10.2,17.2c4.4,3.5,10.4,4.1,15.8,3.4c6.5-0.9,13.2-3.1,18.6-7c3.2-2.2,5.8-5.4,6.9-9.2c2.1-6.9-0.3-15-1.8-21.8
		c0,0-0.1-0.3-0.2-0.7C91.6,128.8,87.8,128.6,84.4,127.3"/>
	<path class="st5" d="M84.4,127.3c-2.6,3.9-6.5,6.9-11.2,8.4c-5.3,1.7-10.8,1.1-15.5-1.2c-2,5.2-6.2,9.4-11.8,11.3
		c2.4,6.1,5,13.1,10.2,17.2c4.4,3.5,10.4,4.1,15.8,3.4c6.5-0.9,13.2-3.1,18.6-7c3.2-2.2,5.8-5.4,6.9-9.2c2.1-6.9-0.3-15-1.8-21.8
		c0,0-0.1-0.3-0.2-0.7C91.6,128.8,87.8,128.6,84.4,127.3z"/>
	<path class="st18" d="M69.9,155.1c0.7,2.3-0.5,4.8-2.9,5.5c-2.3,0.7-4.8-0.6-5.5-2.9c-0.7-2.3,0.5-4.8,2.9-5.5
		C66.8,151.5,69.2,152.7,69.9,155.1"/>
	<path class="st18" d="M95.7,144.8c0.4,2.4-1,4.6-3.1,5c-2.2,0.4-4.3-1.2-4.7-3.6c-0.4-2.4,1-4.6,3.1-5
		C93.1,140.9,95.3,142.5,95.7,144.8"/>
	<path class="st19" d="M71.7,143.7c0.4,1.2-0.2,2.6-1.4,3c-1.2,0.4-2.6-0.2-3-1.4c-0.4-1.2,0.2-2.6,1.4-3
		C70,141.8,71.3,142.5,71.7,143.7"/>
	<path class="st19" d="M84.5,139.2c0.4,1.2-0.2,2.6-1.4,3c-1.2,0.4-2.6-0.2-3-1.4c-0.4-1.2,0.2-2.6,1.4-3
		C82.7,137.4,84.1,138,84.5,139.2"/>
	<path class="st5" d="M83.3,147.5c-1.5,4-5.8,5.6-9.6,3.6"/>
	<path class="st5" d="M45.8,145.8c0,0-3,1.1-7,0.8"/>
	<path class="st5" d="M68.5,171.9c0.6,0.8,1.3,1.4,2.1,2c1.9,1.2,4.1,1.6,6.2,2.1c1.2,0.3,2.6,0.6,3.6,1.4c1.6,1.3,1.3,3.4,0.1,4.6
		c-1.5,1.5-4.2,1.6-6.3,1.4c-1.2-0.1-2.4-0.4-3.6-0.8c-3.1-1-6.6-2.9-8.6-5.7"/>
	<path class="st5" d="M71.4,201.5c0,0-1.1-0.7-3.8-0.4"/>
	<path class="st5" d="M94.6,127.9c0,0,1.3-0.3,3.2-1.6"/>
	<line class="st5" x1="88" y1="169.4" x2="87.2" y2="167.2"/>
</g>
<g>
	<g id="Group_2-2_00000030481650526191707600000013412868921014697603_" transform="translate(24.974)">
		<g id="Rectangle_2-5_00000151541725057404805880000009777611348991697079_" transform="translate(0.46 -0.465)">
			<path class="st0" d="M57.8,71.1L57.8,71.1c36.1,0,65.4,29.3,65.4,65.4v2.6c0,36.1-29.3,65.4-65.4,65.4l0,0
				c-36.1,0-65.4-29.3-65.4-65.4v-2.6C-7.6,100.4,21.6,71.1,57.8,71.1z"/>
		</g>
	</g>
	<g class="st1">
		<g>
			<g>
				<defs>
					<rect id="SVGID_00000119110586258605004010000002297577392697798839_" x="62.1" y="203.1" width="28" height="4.3"/>
				</defs>
				<clipPath id="SVGID_00000161601014433383391840000013241697581400253112_">
					<use xlink:href="#SVGID_00000119110586258605004010000002297577392697798839_"  style="overflow:visible;"/>
				</clipPath>
				<path style="clip-path:url(#SVGID_00000161601014433383391840000013241697581400253112_);fill:#010101;" d="M90.1,205.3
					c0,1.2-6.3,2.2-14,2.2c-7.7,0-14-1-14-2.2c0-1.2,6.3-2.2,14-2.2C83.8,203.1,90.1,204.1,90.1,205.3"/>
			</g>
		</g>
	</g>
	<line class="st3" x1="172.4" y1="67.1" x2="176.1" y2="63.7"/>
	<path class="st4" d="M179.7,197.9l-1.4-0.4V4.3c0-2-1.5-3.6-3.3-3.6h-70.9c-1.8,0-3.3,1.6-3.3,3.6v193.1l-1.3,0.2
		c-1.2,0.5-1,1.5-1,1.8v3.6c0,0.3,0.7,0.5,1.5,0.5h79.6c0.8,0,1.5-0.2,1.5-0.5v-3.6C181.1,199.2,181,198.3,179.7,197.9"/>
	<path class="st5" d="M179.7,197.9l-1.4-0.4V4.3c0-2-1.5-3.6-3.3-3.6h-70.9c-1.8,0-3.3,1.6-3.3,3.6v193.1l-1.3,0.2
		c-1.2,0.5-1,1.5-1,1.8v3.6c0,0.3,0.7,0.5,1.5,0.5h79.6c0.8,0,1.5-0.2,1.5-0.5v-3.6C181.1,199.2,181,198.3,179.7,197.9z"/>
	<line class="st5" x1="180.4" y1="198.4" x2="99" y2="198.4"/>
	<line class="st5" x1="178.1" y1="122.4" x2="100.9" y2="122.4"/>
	<path class="st7" d="M170.2,111.9c0,1.4-1.2,2.5-2.7,2.5h-55.4c-1.5,0-2.7-1.1-2.7-2.5V11.4c0-1.4,1.2-2.5,2.7-2.5h55.4
		c1.5,0,2.7,1.1,2.7,2.5V111.9z"/>
	<path class="st5" d="M170.2,111.9c0,1.4-1.2,2.5-2.7,2.5h-55.4c-1.5,0-2.7-1.1-2.7-2.5V11.4c0-1.4,1.2-2.5,2.7-2.5h55.4
		c1.5,0,2.7,1.1,2.7,2.5V111.9z"/>
	<path class="st8" d="M160.5,51.6l-0.6-1.6c-0.1-0.3-0.4-0.5-0.7-0.4c-0.3,0.1-0.5,0.4-0.3,0.7l0.6,1.7l0.8,0.4L160.5,51.6z"/>
	<path class="st8" d="M161.6,52.1l0.6-1.8c0.1-0.3-0.1-0.6-0.4-0.7c-0.3-0.1-0.6,0-0.7,0.4l-0.6,1.7l0.3,0.9L161.6,52.1z"/>
	<path class="st8" d="M163.5,51.6c-0.2-0.3-0.5-0.4-0.8-0.2l-1.2,0.7l-0.3,0.9l0.6,0.2l1.5-0.8C163.6,52.2,163.7,51.9,163.5,51.6"/>
	<path class="st8" d="M161.1,54.2l1.3,0.4c0.1,0.1,0.1,0.1,0.2,0.1c0.2,0,0.5-0.2,0.5-0.4c0.1-0.3,0-0.6-0.3-0.8l-0.9-0.3l-0.8,0.4
		L161.1,54.2z"/>
	<path class="st8" d="M159.9,54.2l0,0.9c0,0.3,0.3,0.6,0.6,0.6c0.3,0,0.6-0.3,0.6-0.6l0-0.9l-0.6-0.2L159.9,54.2z"/>
	<path class="st8" d="M159.2,53.2l-0.9,0.3c-0.3,0.1-0.4,0.4-0.3,0.8c0.1,0.2,0.3,0.4,0.6,0.3c0.1,0,0.1,0,0.2,0l1.2-0.5l0-0.5
		L159.2,53.2z"/>
	<path class="st8" d="M159.4,52.1l-1.2-0.7c-0.3-0.2-0.6-0.1-0.8,0.2c-0.1,0.3-0.1,0.6,0.2,0.8l1.5,0.8l0.6-0.2L159.4,52.1z"/>
	<path class="st8" d="M138.9,68.6c2,0,3.9-0.9,5.2-2.2c0.9-0.9,1.5-2.1,1.8-3.3l2.3,4.3c0.4,0.6,1,1.1,1.8,1.1
		c0.7,0,1.4-0.4,1.8-1.1l5.5-10.4c0.5-1,0.1-2.2-0.9-2.8c-1-0.5-2.2-0.1-2.7,0.9l-3.5,7l-0.2,0.6l-0.2-0.6l-3.6-6.9
		c-0.5-1-1.8-1.4-2.7-0.8c-1,0.5-1.4,1.8-0.8,2.8l1.3,2.5l-4.1,0c-0.9,0-1.7,0.8-1.7,1.7c0,1,0.8,1.7,1.7,1.7l2,0
		c-0.6,0.9-1.5,1.7-3,1.7c-0.9,0-1.7-0.4-2.3-1c-0.6-0.6-1-1.5-1-2.5c0-1.7,1.2-3.1,2.6-3.4c1.1-0.2,1.7-1.3,1.5-2.4
		c-0.1-0.6-0.6-1.1-1.1-1.4c-0.8-0.4-1.8,0-1.8,0c-3,0.9-5.2,3.8-5.2,7.2c0,0.4,0,0.9,0.1,1.3c-0.7,1-1.9,2.4-3.9,2.4
		c-2,0-3.5-1.6-3.5-3.6c0-1.8,1.2-3.2,2.9-3.5c0,0,0.4-0.1,1.1-0.1c0.6-0.1,1.5-0.8,1.5-1.9c0-1.1-0.9-2-2-2c-4.2,0-7.5,3.5-7.5,7.6
		c0,4.2,3.4,7.6,7.6,7.5c2.3,0,4.3-1,5.7-2.6C133.5,66.2,135.4,68.6,138.9,68.6"/>
	<path class="st9" d="M135.6,152.9c0,0.9-0.7,1.6-1.6,1.6h-18.5c-0.9,0-1.6-0.7-1.6-1.6v-10c0-0.9,0.7-1.6,1.6-1.6h18.5
		c0.9,0,1.6,0.7,1.6,1.6V152.9z"/>
	<path class="st5" d="M135.6,152.9c0,0.9-0.7,1.6-1.6,1.6h-18.5c-0.9,0-1.6-0.7-1.6-1.6v-10c0-0.9,0.7-1.6,1.6-1.6h18.5
		c0.9,0,1.6,0.7,1.6,1.6V152.9z"/>
	<path class="st9" d="M164.7,138.4c0,0.6-0.5,1.2-1.2,1.2h-13.8c-0.6,0-1.2-0.5-1.2-1.2v-7.5c0-0.6,0.5-1.2,1.2-1.2h13.8
		c0.6,0,1.2,0.5,1.2,1.2V138.4z"/>
	<path class="st5" d="M164.7,138.4c0,0.6-0.5,1.2-1.2,1.2h-13.8c-0.6,0-1.2-0.5-1.2-1.2v-7.5c0-0.6,0.5-1.2,1.2-1.2h13.8
		c0.6,0,1.2,0.5,1.2,1.2V138.4z"/>
	<path class="st10" d="M88,169.4c3.3,0.9,8.1,0.3,11.1-0.9c1.1-0.4,2.3-1,3.3-1.7c1.7-1.2,4.6-3.4,4.7-5.5c0.1-0.9-0.3-1.8-1-2.4
		c-0.3-0.2-0.8-0.4-1.2-0.3c-0.4,0-0.8,0.3-1.2,0.4c-0.1,0-0.4,0.1-0.5,0c-0.1-0.1,0-0.4,0-0.5c0.1-0.5-0.3-0.9-0.7-1.1
		c-1-0.4-1.5,0.5-2.1,1.1c-0.4,0.4-0.8,0.9-1.8,1.4c-2,1.1-4.1,1.6-6.4,1.7c-2,0.1-5-0.5-6.8-1.8c0,0-10.7,5.7-17,4.7
		c-1.7-0.3-3.5-0.7-5.1-1.3c0,0-2.6,2.3-2.8,6.8c-0.3,5.6,2.4,8.4,3.2,9.1c-0.8,5.1-1.4,20.5-1.4,20.5c-0.2,1.4-0.4,2.9,1,4.3
		c1,1,3.1,1.2,4.6,1.2c1,0,2-0.1,3-0.4c1.1-0.3,2.2-1.4,1-2.6c-0.1-0.1-0.2-0.2-0.4-0.3c0.2-0.8,3.8-11.2,3.8-12.2
		c0.9,0.1,2,0.1,3.2-0.1c0,1,0.1,5.1,0.1,6.1c0.1,1.5,0.2,2.9,0.3,4.4c0.1,1.4,0.2,2.9,1.4,3.8c1.2,1,2.7,1.1,4.2,1.1
		c1,0,2-0.1,3-0.4c1.1-0.3,2.2-1.4,1-2.6c-0.1-0.1-0.2-0.2-0.4-0.3c0.2-0.8,0.3-1.7,0.3-2.6c0.3-4.7,0.8-8,1.4-12.9
		c0.4-5.8-0.3-11.3-1.5-15.7L88,169.4z"/>
	<path class="st5" d="M88,169.4c3.3,0.9,8.1,0.3,11.1-0.9c1.1-0.4,2.3-1,3.3-1.7c1.7-1.2,4.6-3.4,4.7-5.5c0.1-0.9-0.3-1.8-1-2.4
		c-0.3-0.2-0.8-0.4-1.2-0.3c-0.4,0-0.8,0.3-1.2,0.4c-0.1,0-0.4,0.1-0.5,0c-0.1-0.1,0-0.4,0-0.5c0.1-0.5-0.3-0.9-0.7-1.1
		c-1-0.4-1.5,0.5-2.1,1.1c-0.4,0.4-0.8,0.9-1.8,1.4c-2,1.1-4.1,1.6-6.4,1.7c-2,0.1-5-0.5-6.8-1.8c0,0-10.7,5.7-17,4.7
		c-1.7-0.3-3.5-0.7-5.1-1.3c0,0-2.6,2.3-2.8,6.8c-0.3,5.6,2.4,8.4,3.2,9.1c-0.8,5.1-1.4,20.5-1.4,20.5c-0.2,1.4-0.4,2.9,1,4.3
		c1,1,3.1,1.2,4.6,1.2c1,0,2-0.1,3-0.4c1.1-0.3,2.2-1.4,1-2.6c-0.1-0.1-0.2-0.2-0.4-0.3c0.2-0.8,3.8-11.2,3.8-12.2
		c0.9,0.1,2,0.1,3.2-0.1c0,1,0.1,5.1,0.1,6.1c0.1,1.5,0.2,2.9,0.3,4.4c0.1,1.4,0.2,2.9,1.4,3.8c1.2,1,2.7,1.1,4.2,1.1
		c1,0,2-0.1,3-0.4c1.1-0.3,2.2-1.4,1-2.6c-0.1-0.1-0.2-0.2-0.4-0.3c0.2-0.8,0.3-1.7,0.3-2.6c0.3-4.7,0.8-8,1.4-12.9
		c0.4-5.8-0.3-11.3-1.5-15.7L88,169.4z"/>
	<line class="st5" x1="78.4" y1="189.3" x2="81.1" y2="188.9"/>
	<g class="st11">
		<g>
			<defs>
				<rect id="SVGID_00000128465966592654924790000010937847293400656564_" x="61.3" y="162.3" width="24.6" height="6.4"/>
			</defs>
			<clipPath id="SVGID_00000154414535928413476270000010687718540696617114_">
				<use xlink:href="#SVGID_00000128465966592654924790000010937847293400656564_"  style="overflow:visible;"/>
			</clipPath>
			<path style="clip-path:url(#SVGID_00000154414535928413476270000010687718540696617114_);fill:#030303;" d="M85.3,162.6
				c-5.7,2.9-12.3,4-18.7,4c-1.7,0-3.5-0.2-5.3-0.6c0,0,0,0,0,0c0,0,4.5,3.4,12.4,2.5c0,0,7.7-0.5,12.1-6.2c0,0,0,0,0,0
				C85.6,162.4,85.4,162.5,85.3,162.6"/>
		</g>
	</g>
	<path class="st5" d="M88.1,201.4c0,0-0.8-0.6-3.6-0.7c0,0-1.8,0.1-2.8,0.6"/>
	<path class="st13" d="M105.4,121.8c-0.1-0.4-0.5-0.6-0.9-0.5c-0.4,0.1-0.6,0.4-0.6,0.8c0,0,0.6,4.7-0.7,9.9
		c-1.1,4.3-3.1,7.6-5.9,10c0,2.2-0.2,4.4-0.8,6.5c-0.3,1-0.7,1.9-1.2,2.8c3-1.4,7.1-4.2,9.6-9.1C107.8,136.6,108,129.8,105.4,121.8"
		/>
	<path class="st6" d="M101.6,88.1c1.1-2.5,1.4-5.5,0.5-8.4c-2-6.3-8.7-9.8-15-7.9c-0.2,0.1-0.3,0.1-0.5,0.2
		c-4.9-13.4-19.5-20.7-33.2-16.5c-7.1,2.2-12.6,7-15.8,13.1c-4.3-1-8.9-0.9-13.5,0.5C10.6,73.3,3,87.6,7.2,101.2
		c0.2,0.6,0.4,1.2,0.6,1.8c-6.2,6.7-8.8,16.4-5.9,25.7c3.4,11.1,13.6,18.3,24.6,18.5c0.2,0.9,0.4,1.8,0.7,2.8
		C30,159,38,165.4,46.9,166.6c0.1,0,3.2,0.4,7.5-0.8c0,0,10.9-2.6,19.2-9.7c10.3,1,18.8-2.4,18.8-2.4c0,0,0,0,0,0v0
		c0,0,21-5.3,13.1-30.2c8.5-3.8,13.1-13.5,10.2-22.6C113.6,94.1,108.1,89.4,101.6,88.1"/>
	<path class="st5" d="M101.6,88.1c1.1-2.5,1.4-5.5,0.5-8.4c-2-6.3-8.7-9.8-15-7.9c-0.2,0.1-0.3,0.1-0.5,0.2
		c-4.9-13.4-19.5-20.7-33.2-16.5c-7.1,2.2-12.6,7-15.8,13.1c-4.3-1-8.9-0.9-13.5,0.5C10.6,73.3,3,87.6,7.2,101.2
		c0.2,0.6,0.4,1.2,0.6,1.8c-6.2,6.7-8.8,16.4-5.9,25.7c3.4,11.1,13.6,18.3,24.6,18.5c0.2,0.9,0.4,1.8,0.7,2.8
		C30,159,38,165.4,46.9,166.6c0.1,0,3.2,0.4,7.5-0.8c0,0,10.9-2.6,19.2-9.7c10.3,1,18.8-2.4,18.8-2.4c0,0,0,0,0,0v0
		c0,0,21-5.3,13.1-30.2c8.5-3.8,13.1-13.5,10.2-22.6C113.6,94.1,108.1,89.4,101.6,88.1z"/>
	<path class="st5" d="M37.6,68.6c0,0,4.9,1.2,7.4,3.4"/>
	<line class="st5" x1="86.6" y1="72" x2="86.9" y2="73"/>
	<path class="st13" d="M56,163c-1.9-1.5-3.5-3.5-4.8-5.7C35,157.5,30.5,142.7,30.3,142c-0.1-0.3-0.3-0.5-0.6-0.5
		c-11.7-1.3-19.8-5.2-24-11.7c-5.4-8.2-2.6-17.7-2.5-18.1c0.1-0.4-0.1-0.7-0.4-0.9c-2.3,6-6.5,23,14.1,34.1c0,0,5.5,1.9,9.7,2.1
		c0,0,1.7,18,22.3,19.5c0,0,4.7-0.3,9.7-2C57.6,164.2,56.8,163.7,56,163"/>
	<path class="st5" d="M84.4,127.3l0.7-1c0,0,1.1-1.9,1.4-3.3"/>
	<line class="st5" x1="57.7" y1="134.4" x2="56.4" y2="133.8"/>
	<path class="st14" d="M88.8,110.4l-4.8-11.3c-0.6-1.5-1.8-1.8-2.5-1.8c-0.6,0-1,0.2-1.1,0.2l-19.9,8.2l-26.6,11.2
		c-1.7,0.7-1.7,2.2-1.3,3.3l4.9,11.6c0.4,0.9,1.6,2.9,3.9,2.9c0.6,0,1.2-0.1,1.8-0.4c0,0,16.1-6.8,16.2-6.8c2.4-1,3.5-3.6,3.8-4.7
		l1-3.1c0.1-0.3,0.4-0.7,0.8-0.7c0.2,0,0.5,0.1,0.7,0.2l2.8,1.4c0.9,0.5,2.3,1,3.9,1c0.8,0,1.5-0.1,2.2-0.4l0,0
		c0.6-0.2,2.9-1.2,11.8-4.8C89.4,115.1,89.6,112.5,88.8,110.4"/>
	<path class="st6" d="M81.3,95.1l-19.9,8.2l-2.1,0.9l-24.5,10.3c-1.5,0.6-1.1,1.9-0.9,2.3l2.6,6.3l0.8,1.9l1.4,3.4
		c0.4,0.9,1.9,3.4,4.8,2.1c0,0,16.2-6.8,16.2-6.8c1.7-0.7,2.8-2.5,3.4-4.2l1-3.2c0.2-0.5,0.9-1.8,2.6-0.9l2.8,1.4
		c1.6,0.8,3.7,1.3,5.4,0.6c0,0,11.8-4.9,11.8-4.9c2.9-1.2,2.2-4,1.8-4.9l-0.6-1.4l-0.8-1.9l-0.8-2l-2.5-6
		C83.1,94.4,81.3,95.1,81.3,95.1"/>
	<path class="st5" d="M81.3,95.1l-19.9,8.2l-2.1,0.9l-24.5,10.3c-1.5,0.6-1.1,1.9-0.9,2.3l2.6,6.3l0.8,1.9l1.4,3.4
		c0.4,0.9,1.9,3.4,4.8,2.1c0,0,16.2-6.8,16.2-6.8c1.7-0.7,2.8-2.5,3.4-4.2l1-3.2c0.2-0.5,0.9-1.8,2.6-0.9l2.8,1.4
		c1.6,0.8,3.7,1.3,5.4,0.6c0,0,11.8-4.9,11.8-4.9c2.9-1.2,2.2-4,1.8-4.9l-0.6-1.4l-0.8-1.9l-0.8-2l-2.5-6
		C83.1,94.4,81.3,95.1,81.3,95.1z"/>
	<polygon class="st15" points="38.8,117.4 42.7,126.5 58.6,119.8 60.9,113.1 59.1,108.9 	"/>
	<polygon class="st5" points="38.8,117.4 42.7,126.5 58.6,119.8 60.9,113.1 59.1,108.9 	"/>
	<polygon class="st16" points="80.7,99.9 84.5,109 73.1,113.7 66.7,110.7 64.9,106.4 	"/>
	<polygon class="st5" points="80.7,99.9 84.5,109 73.1,113.7 66.7,110.7 64.9,106.4 	"/>
	<path class="st6" d="M81.3,95.1l-19.9,8.2l-2.1,0.9l-24.5,10.3c-1.5,0.6-1.1,1.9-0.9,2.3l2.6,6.3l0.8,1.9l1.4,3.4
		c0.4,0.9,1.9,3.4,4.8,2.1c0,0,16.2-6.8,16.2-6.8c1.7-0.7,2.8-2.5,3.4-4.2l1-3.2c0.2-0.5,0.9-1.8,2.6-0.9l2.8,1.4
		c1.6,0.8,3.7,1.3,5.4,0.6c0,0,11.8-4.9,11.8-4.9c2.9-1.2,2.2-4,1.8-4.9l-0.6-1.4l-0.8-1.9l-0.8-2l-2.5-6
		C83.1,94.4,81.3,95.1,81.3,95.1"/>
	<path class="st5" d="M81.3,95.1l-19.9,8.2l-2.1,0.9l-24.5,10.3c-1.5,0.6-1.1,1.9-0.9,2.3l2.6,6.3l0.8,1.9l1.4,3.4
		c0.4,0.9,1.9,3.4,4.8,2.1c0,0,16.2-6.8,16.2-6.8c1.7-0.7,2.8-2.5,3.4-4.2l1-3.2c0.2-0.5,0.9-1.8,2.6-0.9l2.8,1.4
		c1.6,0.8,3.7,1.3,5.4,0.6c0,0,11.8-4.9,11.8-4.9c2.9-1.2,2.2-4,1.8-4.9l-0.6-1.4l-0.8-1.9l-0.8-2l-2.5-6
		C83.1,94.4,81.3,95.1,81.3,95.1z"/>
	<polygon class="st8" points="38.8,117.4 42.7,126.5 58.6,119.8 60.9,113.1 59.1,108.9 	"/>
	<polygon class="st5" points="38.8,117.4 42.7,126.5 58.6,119.8 60.9,113.1 59.1,108.9 	"/>
	<polygon class="st16" points="80.7,99.9 84.5,109 73.1,113.7 66.7,110.7 64.9,106.4 	"/>
	<polygon class="st5" points="80.7,99.9 84.5,109 73.1,113.7 66.7,110.7 64.9,106.4 	"/>
	<path class="st5" d="M101.6,88.1c1.1-2.5,1.4-5.5,0.5-8.4c-2-6.3-8.7-9.8-15-7.9c-0.2,0.1-0.3,0.1-0.5,0.2
		c-4.9-13.4-19.5-20.7-33.2-16.5c-7.1,2.2-12.6,7-15.8,13.1c-4.3-1-8.9-0.9-13.5,0.5C10.6,73.3,3,87.6,7.2,101.2
		c0.2,0.6,0.4,1.2,0.6,1.8c-6.2,6.7-8.8,16.4-5.9,25.7c3.4,11.1,13.6,18.3,24.6,18.5c0.2,0.9,0.4,1.8,0.7,2.8
		c0.8,2.7,2.2,5.3,3.9,7.5c1.7,2.2,3.8,4.1,6.1,5.6c2.3,1.5,4.9,2.6,7.6,3.2c1.6,0.3,3.1,0.5,4.7,0.4c1.7-0.1,3.3-0.5,4.9-0.9
		c0,0,10.9-2.6,19.2-9.7c10.3,1,18.8-2.4,18.8-2.4c0,0,21-5.3,13.1-30.2c8.5-3.8,13.1-13.5,10.2-22.6
		C113.6,94.1,108.1,89.4,101.6,88.1z"/>
	<path class="st17" d="M84.4,127.3c-2.6,3.9-6.5,6.9-11.2,8.4c-5.3,1.7-10.8,1.1-15.5-1.2c-2,5.2-6.2,9.4-11.8,11.3
		c2.4,6.1,5,13.1,10.2,17.2c4.4,3.5,10.4,4.1,15.8,3.4c6.5-0.9,13.2-3.1,18.6-7c3.2-2.2,5.8-5.4,6.9-9.2c2.1-6.9-0.3-15-1.8-21.8
		c0,0-0.1-0.3-0.2-0.7C91.6,128.8,87.8,128.6,84.4,127.3"/>
	<path class="st5" d="M84.4,127.3c-2.6,3.9-6.5,6.9-11.2,8.4c-5.3,1.7-10.8,1.1-15.5-1.2c-2,5.2-6.2,9.4-11.8,11.3
		c2.4,6.1,5,13.1,10.2,17.2c4.4,3.5,10.4,4.1,15.8,3.4c6.5-0.9,13.2-3.1,18.6-7c3.2-2.2,5.8-5.4,6.9-9.2c2.1-6.9-0.3-15-1.8-21.8
		c0,0-0.1-0.3-0.2-0.7C91.6,128.8,87.8,128.6,84.4,127.3z"/>
	<path class="st18" d="M69.9,155.1c0.7,2.3-0.5,4.8-2.9,5.5c-2.3,0.7-4.8-0.6-5.5-2.9c-0.7-2.3,0.5-4.8,2.9-5.5
		C66.8,151.5,69.2,152.7,69.9,155.1"/>
	<path class="st18" d="M95.7,144.8c0.4,2.4-1,4.6-3.1,5c-2.2,0.4-4.3-1.2-4.7-3.6c-0.4-2.4,1-4.6,3.1-5
		C93.1,140.9,95.3,142.5,95.7,144.8"/>
	<path class="st19" d="M71.7,143.7c0.4,1.2-0.2,2.6-1.4,3c-1.2,0.4-2.6-0.2-3-1.4c-0.4-1.2,0.2-2.6,1.4-3
		C70,141.8,71.3,142.5,71.7,143.7"/>
	<path class="st19" d="M84.5,139.2c0.4,1.2-0.2,2.6-1.4,3c-1.2,0.4-2.6-0.2-3-1.4c-0.4-1.2,0.2-2.6,1.4-3
		C82.7,137.4,84.1,138,84.5,139.2"/>
	<path class="st5" d="M83.3,147.5c-1.5,4-5.8,5.6-9.6,3.6"/>
	<path class="st5" d="M45.8,145.8c0,0-3,1.1-7,0.8"/>
	<path class="st5" d="M68.5,171.9c0.6,0.8,1.3,1.4,2.1,2c1.9,1.2,4.1,1.6,6.2,2.1c1.2,0.3,2.6,0.6,3.6,1.4c1.6,1.3,1.3,3.4,0.1,4.6
		c-1.5,1.5-4.2,1.6-6.3,1.4c-1.2-0.1-2.4-0.4-3.6-0.8c-3.1-1-6.6-2.9-8.6-5.7"/>
	<path class="st5" d="M71.4,201.5c0,0-1.1-0.7-3.8-0.4"/>
	<path class="st5" d="M94.6,127.9c0,0,1.3-0.3,3.2-1.6"/>
	<line class="st5" x1="88" y1="169.4" x2="87.2" y2="167.2"/>
</g>
</svg>
