<?xml version="1.0" encoding="UTF-8"?>
<svg id="Layer_2" data-name="Layer 2" xmlns="http://www.w3.org/2000/svg" viewBox="0 0 177.96 176.33">
  <defs>
    <style>
      .cls-1 {
        fill: #414143;
        font-family: RobotoCondensed-Bold, 'Roboto Condensed';
        font-size: 20.09px;
        font-weight: 700;
        letter-spacing: .03em;
      }

      .cls-2 {
        fill: #dbdcdd;
        stroke: #ffd115;
        stroke-width: 5.02px;
      }

      .cls-2, .cls-3, .cls-4, .cls-5, .cls-6, .cls-7, .cls-8 {
        stroke-linecap: round;
        stroke-linejoin: round;
      }

      .cls-9 {
        opacity: .1;
      }

      .cls-10 {
        fill: #f4a660;
      }

      .cls-11 {
        fill: #f4a75f;
      }

      .cls-12 {
        fill: #010101;
      }

      .cls-13 {
        fill: #fdce97;
      }

      .cls-14 {
        fill: #e2e1e1;
      }

      .cls-15, .cls-7 {
        fill: #fff;
      }

      .cls-16 {
        fill: #ffd115;
      }

      .cls-17 {
        fill: #e5e6e6;
      }

      .cls-18 {
        fill: #d93027;
      }

      .cls-19 {
        fill: #221f1f;
      }

      .cls-20 {
        fill: #2b73a5;
      }

      .cls-3, .cls-4 {
        stroke-width: 1.81px;
      }

      .cls-3, .cls-4, .cls-5, .cls-6, .cls-8 {
        fill: none;
      }

      .cls-3, .cls-6, .cls-7, .cls-8 {
        stroke: #221f1f;
      }

      .cls-4, .cls-5 {
        stroke: #010101;
      }

      .cls-5 {
        stroke-width: 2px;
      }

      .cls-6 {
        stroke-width: 1.99px;
      }

      .cls-7, .cls-8 {
        stroke-width: 1.77px;
      }
    </style>
  </defs>
  <g id="Layer_1-2" data-name="Layer 1">
    <g>
      <g id="Group_2" data-name="Group 2">
        <g id="Rectangle_2-4" data-name="Rectangle 2-4">
          <path class="cls-2" d="m72.04,40.37h0c36.85,0,66.72,29.87,66.72,66.72h0c0,36.85-29.87,66.72-66.72,66.72h0c-36.85,0-66.72-29.87-66.72-66.72h0c0-36.85,29.87-66.72,66.72-66.72Z"/>
        </g>
      </g>
      <g>
        <g>
          <rect class="cls-7" x=".88" y="71.71" width="111.98" height="27.58" rx="9.1" ry="9.1"/>
          <rect class="cls-7" x=".88" y="107.25" width="111.98" height="27.58" rx="9.1" ry="9.1"/>
          <text class="cls-1" transform="translate(10.31 128.69)"><tspan x="0" y="0">******</tspan></text>
          <text class="cls-1" transform="translate(10.31 93.1)"><tspan x="0" y="0">paconnie</tspan></text>
        </g>
        <path class="cls-15" d="m176.96,60.48c-.25-11.22-6.84-20.74-16.41-25.57.04-.71.06-1.43.04-2.15-.37-16.3-14.43-28.97-31.42-28.27-5.31.21-10.26,1.72-14.57,4.17-5.55-4.76-12.77-7.65-20.66-7.65-16.92,0-30.75,13.24-31.69,29.93-.01,0-.03,0-.04,0-7.92.32-13.28,6.51-13.12,14.11.08,3.46,1.48,6.55,3.73,8.87-6.88,3.95-9.1,8.8-8.92,16.95.25,11.02,8.35,20.85,19.5,21.7.37,30,20.05,30.1,20.05,30.1.02,0,10.96.4,22.32-4.71.35-.17,2.2.74,2.63.87.89.28,1.8.53,2.71.75,1.79.44-.39,2.45,1.41,2.86.62.14,1.25.26,1.91.36,5.27.84,11.48.5,17.28-.87.09-.02.18-.04.27-.06.49-.12.97-.25,1.45-.39.28-.08.56-.15.83-.23.31-.09.6-.19.9-.29.44-.14.87-.27,1.3-.42.16-.06.31-.12.46-.17.55-.2,1.1-.41,1.63-.63.06-.02.11-.05.17-.08.61-.26,1.21-.53,1.8-.81.03-.02.06-.03.09-.05.6-.3,1.19-.6,1.76-.93.11-.06.21-.14.33-.2.48-.28.95-.57,1.4-.87.56-.38,1.09-.77,1.59-1.17,6.77-5.46,10.73-13.94,10.55-22.31-.03-1.11-.13-2.2-.29-3.26,12.46-4.49,21.29-16.2,20.99-29.58"/>
        <path class="cls-14" d="m94.73,111.77c-27.38,3.81-30.13-12.08-30.29-17.4-.45-.35-.91-.7-1.19-.95,1.25,28.47,19.45,28.81,19.45,28.81.02,0,10.5.52,21.33-4.47.33-.17,2.11.76,2.53.9.86.28,1.73.55,2.6.78,1.4.37.3,1.76.76,2.48,4.51-7.52-1.25-12.09-15.19-10.15"/>
        <path class="cls-17" d="m103.86,112.86c1.49-3.31,6.44-5.39,14.89-6.23,4.41-.44,7.6,2.1,11.24.88l.94-.58c20.11-6.78,21.32-25.86,21.36-26.55.02-.31.21-.59.5-.72,10.22-4.48,16.55-10.42,18.83-17.64,2.97-9.45-2.14-18.01-2.36-18.37-.24-.39-.12-.9.25-1.14.38-.25.89-.16,1.15.21,3.62,5.01,5.63,10.93,5.82,17.12.42,13.18-7.48,25.09-19.71,29.87.12.91.19,1.81.22,2.68.27,8.61-3.63,17.36-10.18,22.82-2.53,2.12-5.91,3.92-9.79,5.22-7.38,2.48-16.06,3.02-22.67,1.4-1.6-.39-1.41-1.77-1.33-2.36.03-.16.06-.42.07-.45,0,0-.03-.02-.14-.05-.84-.23-1.71-.49-2.65-.8-.13-.04-.39-.15-.69-.29-.34-.15-1.07-.48-1.39-.56-.99.45-2.03.88-3.09,1.28-.43.16-.89-.05-1.07-.47-.83-1.94-.91-3.72-.21-5.26"/>
        <path class="cls-6" d="m176.96,60.48c-.25-11.22-6.84-20.74-16.41-25.57.04-.71.06-1.43.04-2.15-.37-16.3-14.43-28.97-31.42-28.27-5.31.21-10.26,1.72-14.57,4.17-5.55-4.76-12.77-7.65-20.66-7.65-16.92,0-30.75,13.24-31.69,29.93-.01,0-.03,0-.04,0-7.92.32-13.28,6.51-13.12,14.11.08,3.46,1.48,6.55,3.73,8.87-6.02,3.9-9.1,8.8-8.92,16.95.25,11.02,8.35,20.85,19.5,21.7.37,30,20.05,30.1,20.05,30.1.02,0,10.96.4,22.32-4.71.35-.17,2.2.74,2.63.87.89.28,1.8.53,2.71.75,1.79.44-.39,2.45,1.41,2.86.62.14,1.25.26,1.91.36,5.27.84,11.48.5,17.28-.87.09-.02.18-.04.27-.06.49-.12.97-.25,1.45-.39.28-.08.56-.15.83-.23.31-.09.6-.19.9-.29.44-.14.87-.27,1.3-.42.16-.06.31-.12.46-.17.55-.2,1.1-.41,1.63-.63.06-.02.11-.05.17-.08.61-.26,1.21-.53,1.8-.81.03-.02.06-.03.09-.05.6-.3,1.19-.6,1.76-.93.11-.06.21-.14.33-.2.48-.28.95-.57,1.4-.87.56-.38,1.09-.77,1.59-1.17,6.77-5.46,10.73-13.94,10.55-22.31-.03-1.11-.13-2.2-.29-3.26,12.46-4.49,21.29-16.2,20.99-29.58Z"/>
        <g class="cls-9">
          <path class="cls-19" d="m136.5,165.67c0,2.95-12.29,5.34-27.44,5.34s-27.45-2.39-27.45-5.34,12.29-5.34,27.45-5.34,27.44,2.39,27.44,5.34"/>
        </g>
        <path class="cls-16" d="m117.05,145.26c.33.18,2.65,2.71,2.65,2.71.82.84,4.56,5.03,5.72,6.37,1.1,1.28,3.4,2.37,3.26,4.18-.05.57-.22,1.17-.46,1.69-.46,1.02-1.23,1.87-2,2.66-.86.89-1.77,1.73-2.82,2.38-1.13.7-3,.72-3.09-1.38,0-.14,0-.28.03-.43-.94-.52-1.79-1.22-2.58-1.89-4.35-3.67-5.71-4.49-9.82-8.43"/>
        <path class="cls-3" d="m117.05,145.26c.33.18,2.65,2.71,2.65,2.71.82.84,4.56,5.03,5.72,6.37,1.1,1.28,3.4,2.37,3.26,4.18-.05.57-.22,1.17-.46,1.69-.46,1.02-1.23,1.87-2,2.66-.86.89-1.77,1.73-2.82,2.38-1.13.7-3,.72-3.09-1.38,0-.14,0-.28.03-.43-.94-.52-1.79-1.22-2.58-1.89-4.35-3.67-5.71-4.49-9.82-8.43"/>
        <path class="cls-3" d="m132.74,89.87s5.77-1.4,10.79-6.15"/>
        <path class="cls-3" d="m81.46,85.79s-6.17-2.63-9.15-9.99"/>
        <line class="cls-3" x1="108.49" y1="83.29" x2="111.19" y2="81.41"/>
        <path class="cls-13" d="m81.22,85.69c6.37,2.65,13.69,3.11,20.74.73,2.35-.8,4.54-1.86,6.53-3.14,6.11,6.28,15.35,9.04,24.25,6.59.11,7.04.11,14.61-2.36,20.89,0,0-5.06,12.51-20.66,14.36-6.17,1.13-12.62,1.16-18.72-.42-4.41-1.15-8.69-3.73-11.6-7.65-4.28-5.77-5.8-13.76-7.02-21.24,3.39-2.03,6.53-5.61,8.83-10.12"/>
        <path class="cls-3" d="m81.22,85.69c6.37,2.65,13.69,3.11,20.74.73,2.35-.8,4.54-1.86,6.53-3.14,6.11,6.28,15.35,9.04,24.25,6.59.11,7.04.11,14.61-2.36,20.89,0,0-5.06,12.51-20.66,14.36-6.17,1.13-12.62,1.16-18.72-.42-4.41-1.15-8.69-3.73-11.6-7.65-4.28-5.77-5.8-13.76-7.02-21.24,3.39-2.03,6.53-5.61,8.83-10.12Z"/>
        <path class="cls-10" d="m103.73,108.67c1,2.95,4.2,4.53,7.14,3.54,2.95-.99,4.53-4.18,3.54-7.14-.99-2.94-4.19-4.53-7.13-3.54-2.95.99-4.54,4.19-3.54,7.14"/>
        <path class="cls-11" d="m80.17,112.43c.96,2.38,3.04,3.79,4.64,3.14,1.6-.64,2.11-3.1,1.15-5.48-.95-2.38-3.03-3.79-4.63-3.14-1.59.64-2.11,3.1-1.15,5.48"/>
        <path class="cls-4" d="m98.94,107.34c-.97,1.93-2.89,2.58-5,2.7"/>
        <path class="cls-16" d="m113.56,152.17c-2.22.51-4.59.65-6.81.84-1.64.14-3.25.47-4.89.62-.02,0-1.62.26-1.19,2.53,1.03,5.38,2.23,9.29-3.23,10.22-1.9.32-7.57.9-8.72-1.34-.77-1.5.48-3.05,1.76-3.69,0,0-1.61-5.14-1.75-5.61-.86-2.87-1.57-6.68.33-9.31,1.5-2.09,3.34-2.93,5.71-3.31.23-.04.48-.05.73-.07-.39-3.17-.5-4.42-.34-6.45.21-2.69-.1-3.28-.1-3.28-.06-.11-1.27-.12-1.44-.13-.48-.05-.95-.11-1.42-.19-.88-.13-1.76-.3-2.62-.52-4.08-1.03-7.78-3.53-11.06-6.09-.63-.49-1.25-1-1.86-1.53-.26-.23-.5-.46-.73-.72-.22-.24-.42-.65-.67-.84-.43-.6-.73-1.23-.98-1.92-.48-1.33-.5-3.21.64-4.21.23-.2.49-.34.77-.44.27-.09-1.01-1.76-1.11-1.9-.23-.3-.5-.58-.71-.89-.44-.66-.41-1.55-.04-2.23.45-.83,1.34-1.4,2.26-.99,1.01.45,1.6,1.46,2.42,2.15,2.33,1.94,1.69-1.58,4.07-.45,2.86,1.36.77,4.53,1.96,5.43,2.65,2.02,5.47,4.22,8.89,4.59,1.84.2,3.69-.13,5.48-.49,4.37-.87,8.84-1.77,13.32-2.16,3.65-.32,7.48-.53,11,.85,2.88,1.12,5.53,3.12,6.89,5.95,1.47,3.06,1.38,6.53-.49,9.43,0,0-2.07,3.02-6.71,2.56l-.94-6s1.81-2.83-1.25-4.3c.04.02.21,1.52.24,1.66.21.95.46,1.89.68,2.83.58,2.5,1.04,5.05,1.03,7.62-.02,2.71-.6,5.48-2.24,7.69-1.76,2.36-4.21,3.48-6.86,4.09"/>
        <path class="cls-8" d="m113.56,152.17c-2.22.51-4.59.65-6.81.84-1.64.14-3.25.47-4.89.62-.02,0-1.62.26-1.19,2.53,1.03,5.38,2.23,9.29-3.23,10.22-1.9.32-7.57.9-8.72-1.34-.77-1.5.48-3.05,1.76-3.69,0,0-1.61-5.14-1.75-5.61-.86-2.87-1.57-6.68.33-9.31,1.5-2.09,3.34-2.93,5.71-3.31.23-.04.48-.05.73-.07-.39-3.17-.5-4.42-.34-6.45.21-2.69-.1-3.28-.1-3.28-.06-.11-1.27-.12-1.44-.13-.48-.05-.95-.11-1.42-.19-.88-.13-1.76-.3-2.62-.52-4.08-1.03-7.78-3.53-11.06-6.09-.63-.49-1.25-1-1.86-1.53-.26-.23-.5-.46-.73-.72-.22-.24-.42-.65-.67-.84-.43-.6-.73-1.23-.98-1.92-.48-1.33-.5-3.21.64-4.21.23-.2.49-.34.77-.44.27-.09-1.01-1.76-1.11-1.9-.23-.3-.5-.58-.71-.89-.44-.66-.41-1.55-.04-2.23.45-.83,1.34-1.4,2.26-.99,1.01.45,1.6,1.46,2.42,2.15,2.33,1.94,1.69-1.58,4.07-.45,2.86,1.36.77,4.53,1.96,5.43,2.65,2.02,5.47,4.22,8.89,4.59,1.84.2,3.69-.13,5.48-.49,4.37-.87,8.84-1.77,13.32-2.16,3.65-.32,7.48-.53,11,.85,2.88,1.12,5.53,3.12,6.89,5.95,1.47,3.06,1.38,6.53-.49,9.43,0,0-2.07,3.02-6.71,2.56l-.94-6s1.81-2.83-1.25-4.3c.04.02.21,1.52.24,1.66.21.95.46,1.89.68,2.83.58,2.5,1.04,5.05,1.03,7.62-.02,2.71-.6,5.48-2.24,7.69-1.76,2.36-4.21,3.48-6.86,4.09Z"/>
        <path class="cls-8" d="m119.1,125.07c1.57,1.41,1.85,4.93,2.29,6.94"/>
        <path class="cls-17" d="m115.46,47c-.87-.61-1.86-.45-1.97-.43l-48.51,8.65c-.21.03-.39.09-.56.15-1.08.42-1.63,1.47-1.43,2.75l1.98,11.09c.44,2.03,1.93,4.03,4.81,3.51l15.48-2.76c.3-.06.61-.14.91-.26,1.81-.7,2.96-2.32,3.5-3.21l1.48-2.52c.12-.17.25-.31.38-.36.21-.08.5.1.71.27l2.15,1.76c1.71,1.4,3.66,2.03,5.33,1.73l15.48-2.75c.33-.06.64-.15.93-.26,1.81-.7,2.7-2.46,2.37-4.73l-1.93-10.81c-.17-1.01-.69-1.55-1.09-1.83"/>
        <path class="cls-15" d="m111.46,45.89l-23.17,4.13-2.03.36-23.31,4.15c-1.41.25-1.31,1.48-1.26,1.85l1.07,6,.33,1.85.57,3.2c.19.86.96,3.31,3.76,2.81l15.47-2.76c1.64-.3,2.97-1.65,3.78-3.04l1.5-2.55c.26-.41,1.1-1.4,2.44-.29l2.15,1.76c1.24,1.02,2.96,1.83,4.59,1.54l15.48-2.76c2.81-.5,2.69-3.05,2.56-3.93l-.25-1.38-.32-1.82-.34-1.87-1.02-5.73c-.32-1.83-2-1.52-2-1.52"/>
        <path class="cls-5" d="m111.46,45.89l-23.17,4.13-2.03.36-23.31,4.15c-1.41.25-1.31,1.48-1.26,1.85l1.07,6,.33,1.85.57,3.2c.19.86.96,3.31,3.76,2.81l15.47-2.76c1.64-.3,2.97-1.65,3.78-3.04l1.5-2.55c.26-.41,1.1-1.4,2.44-.29l2.15,1.76c1.24,1.02,2.96,1.83,4.59,1.54l15.48-2.76c2.81-.5,2.69-3.05,2.56-3.93l-.25-1.38-.32-1.82-.34-1.87-1.02-5.73c-.32-1.83-2-1.52-2-1.52Z"/>
        <path class="cls-18" d="m85.65,57.17l-.35-1.99c-.12-.67-.58-.72-.84-.7l-18.59,3.32,1.54,8.67s14.17-2.52,14.18-2.53c.83-.15,1.49-.99,1.91-1.67.6-.95,1.19-1.91,1.78-2.87.42-.68.51-1.44.37-2.22"/>
        <path class="cls-5" d="m85.65,57.17l-.35-1.99c-.12-.67-.58-.72-.84-.7l-18.59,3.32,1.54,8.67s14.17-2.52,14.18-2.53c.83-.15,1.49-.99,1.91-1.67.6-.95,1.19-1.91,1.78-2.87.42-.68.51-1.44.37-2.22Z"/>
        <path class="cls-20" d="m91.56,53.22c-.71.13-.73.66-.71.92l.33,1.86c.18,1.01.65,1.75,1.46,2.39l2.63,2.06c.24.19,1.24.84,2.74.57l13.53-2.41-1.54-8.67-18.44,3.28Z"/>
        <path class="cls-5" d="m91.56,53.22c-.71.13-.73.66-.71.92l.33,1.86c.18,1.01.65,1.75,1.46,2.39l2.63,2.06c.24.19,1.24.84,2.74.57l13.53-2.41-1.54-8.67-18.44,3.28Z"/>
        <path class="cls-12" d="m103.28,100.54c0,1.51-1.22,2.73-2.72,2.73s-2.73-1.22-2.73-2.73,1.22-2.73,2.73-2.73,2.72,1.22,2.72,2.73"/>
        <path class="cls-12" d="m89.86,103.56c0,1.51-1.22,2.73-2.72,2.73s-2.73-1.22-2.73-2.73,1.22-2.73,2.73-2.73,2.72,1.22,2.72,2.73"/>
        <path class="cls-8" d="m94.4,133.24s2.87,0,4.12-.22"/>
        <line class="cls-8" x1="95.49" y1="143.04" x2="98.94" y2="142.7"/>
      </g>
    </g>
  </g>
</svg>