<?xml version="1.0" encoding="UTF-8"?>
<svg id="Layer_2" data-name="Layer 2" xmlns="http://www.w3.org/2000/svg" xmlns:xlink="http://www.w3.org/1999/xlink" viewBox="0 0 208.47 61.87">
  <defs>
    <style>
      .cls-1 {
        fill: none;
      }

      .cls-2 {
        fill: url(#linear-gradient);
      }

      .cls-3 {
        clip-path: url(#clippath);
      }

      .cls-4 {
        fill: #00c1ff;
      }

      .cls-5 {
        fill: #fff;
      }

      .cls-6 {
        fill: #a6a6a6;
      }

      .cls-7 {
        clip-path: url(#clippath-1);
      }

      .cls-8 {
        clip-path: url(#clippath-4);
      }

      .cls-9 {
        clip-path: url(#clippath-3);
      }

      .cls-10 {
        clip-path: url(#clippath-2);
      }

      .cls-11 {
        clip-path: url(#clippath-7);
      }

      .cls-12 {
        clip-path: url(#clippath-8);
      }

      .cls-13 {
        clip-path: url(#clippath-6);
      }

      .cls-14 {
        clip-path: url(#clippath-5);
      }

      .cls-15 {
        fill: url(#linear-gradient-8);
      }

      .cls-16 {
        fill: url(#linear-gradient-3);
      }

      .cls-17 {
        fill: url(#linear-gradient-4);
      }

      .cls-18 {
        fill: url(#linear-gradient-2);
      }

      .cls-19 {
        fill: url(#linear-gradient-6);
      }

      .cls-20 {
        fill: url(#linear-gradient-7);
      }

      .cls-21 {
        fill: url(#linear-gradient-5);
      }
    </style>
    <clipPath id="clippath">
      <rect class="cls-1" width="208.47" height="61.87"/>
    </clipPath>
    <clipPath id="clippath-1">
      <path class="cls-1" d="m15.4,14.06v33.75c-.05.79.21,1.57.72,2.17l.12.11,19.13-19.16L16.23,11.77c-.59.61-.89,1.44-.83,2.29"/>
    </clipPath>
    <linearGradient id="linear-gradient" x1="-931.79" y1="1379.85" x2="-931.68" y2="1379.85" gradientTransform="translate(13467.19 38321.73) scale(14.45 -27.75)" gradientUnits="userSpaceOnUse">
      <stop offset="0" stop-color="#00a0ff"/>
      <stop offset="0" stop-color="#00a1ff"/>
      <stop offset=".26" stop-color="#00beff"/>
      <stop offset=".51" stop-color="#00d2ff"/>
      <stop offset=".76" stop-color="#00dfff"/>
      <stop offset="1" stop-color="#00e3ff"/>
    </linearGradient>
    <clipPath id="clippath-2">
      <path class="cls-1" d="m35.36,30.94l6.38,6.39,7.7-4.38c.83-.38,1.42-1.12,1.62-2.01h0c-.19-.89-.79-1.63-1.62-2.01l-7.7-4.38-6.38,6.39Z"/>
    </clipPath>
    <linearGradient id="linear-gradient-2" x1="-864.89" y1="1497.91" x2="-864.63" y2="1497.91" gradientTransform="translate(5404.7 7652.32) scale(6.25 -5.09)" gradientUnits="userSpaceOnUse">
      <stop offset="0" stop-color="#ffe000"/>
      <stop offset=".41" stop-color="#ffbd00"/>
      <stop offset=".78" stop-color="orange"/>
      <stop offset="1" stop-color="#ff9c00"/>
    </linearGradient>
    <clipPath id="clippath-3">
      <path class="cls-1" d="m16.23,50.1h0c.37.33.86.51,1.36.5.61-.02,1.21-.2,1.73-.52l22.41-12.76-6.37-6.39-19.14,19.16Z"/>
    </clipPath>
    <linearGradient id="linear-gradient-3" x1="-946.17" y1="1400.75" x2="-946.09" y2="1400.75" gradientTransform="translate(18889.34 21599.71) scale(19.96 -15.39)" gradientUnits="userSpaceOnUse">
      <stop offset="0" stop-color="#ff3a44"/>
      <stop offset="1" stop-color="#c31162"/>
    </linearGradient>
    <clipPath id="clippath-4">
      <path class="cls-1" d="m16.23,11.77l19.13,19.16,6.38-6.39-22.41-12.76c-.52-.32-1.12-.5-1.73-.52-.5-.01-.99.17-1.36.5"/>
    </clipPath>
    <linearGradient id="linear-gradient-4" x1="-946.19" y1="1401.51" x2="-946.11" y2="1401.51" gradientTransform="translate(18900.16 21595.94) scale(19.98 -15.39)" gradientUnits="userSpaceOnUse">
      <stop offset="0" stop-color="#32a071"/>
      <stop offset=".07" stop-color="#2da771"/>
      <stop offset=".48" stop-color="#15cf74"/>
      <stop offset=".8" stop-color="#06e775"/>
      <stop offset="1" stop-color="#00f076"/>
    </linearGradient>
    <clipPath id="clippath-5">
      <path class="cls-1" d="m15.4,48.04c-.05.79.21,1.57.72,2.17l.12-.12-.12-.11c-.51-.61-.76-1.38-.72-2.17v.23Z"/>
    </clipPath>
    <linearGradient id="linear-gradient-5" x1="412.83" y1="1821.5" x2="415.84" y2="1821.5" gradientTransform="translate(-222.65 2868.69) scale(.54 -1.55)" gradientUnits="userSpaceOnUse">
      <stop offset="0" stop-color="#008de0"/>
      <stop offset="0" stop-color="#008de0"/>
      <stop offset=".26" stop-color="#00a7e0"/>
      <stop offset=".51" stop-color="#00b8e0"/>
      <stop offset=".76" stop-color="#00c4e0"/>
      <stop offset="1" stop-color="#00c7e0"/>
    </linearGradient>
    <clipPath id="clippath-6">
      <path class="cls-1" d="m49.44,32.94l-7.7,4.38.14.15,7.55-4.3c.62-.31,1.12-.82,1.44-1.43.12-.25.18-.52.18-.8-.19.89-.79,1.63-1.62,2.01"/>
    </clipPath>
    <linearGradient id="linear-gradient-6" x1="-783.93" y1="1635.4" x2="-783.49" y2="1635.4" gradientTransform="translate(2907.59 4287.87) scale(3.71 -2.6)" gradientUnits="userSpaceOnUse">
      <stop offset="0" stop-color="#e0c500"/>
      <stop offset=".41" stop-color="#e0a600"/>
      <stop offset=".78" stop-color="#e09100"/>
      <stop offset="1" stop-color="#e08900"/>
    </linearGradient>
    <clipPath id="clippath-7">
      <path class="cls-1" d="m41.88,24.4l-.14.14,7.7,4.38c.83.38,1.42,1.12,1.62,2.01-.09-.98-.71-1.84-1.62-2.23l-7.55-4.3h0Z"/>
    </clipPath>
    <linearGradient id="linear-gradient-7" x1="-783.98" y1="1636.91" x2="-783.55" y2="1636.91" gradientTransform="translate(2908.57 4285.26) scale(3.71 -2.6)" gradientUnits="userSpaceOnUse">
      <stop offset="0" stop-color="#ffe840"/>
      <stop offset=".41" stop-color="#ffce40"/>
      <stop offset=".78" stop-color="#ffbc40"/>
      <stop offset="1" stop-color="#ffb540"/>
    </linearGradient>
    <clipPath id="clippath-8">
      <path class="cls-1" d="m15.41,13.57h0v.5c-.06-.84.24-1.68.83-2.29l-.11-.11c-.46.53-.71,1.2-.72,1.9"/>
    </clipPath>
    <linearGradient id="linear-gradient-8" x1="413.11" y1="1830.62" x2="416.09" y2="1830.62" gradientTransform="translate(-222.65 2875.95) scale(.54 -1.56)" gradientUnits="userSpaceOnUse">
      <stop offset="0" stop-color="#40b8ff"/>
      <stop offset="0" stop-color="#40b9ff"/>
      <stop offset=".26" stop-color="#40ceff"/>
      <stop offset=".51" stop-color="#40ddff"/>
      <stop offset=".76" stop-color="#40e7ff"/>
      <stop offset="1" stop-color="#40eaff"/>
    </linearGradient>
  </defs>
  <g id="Layer_1-2" data-name="Layer 1">
    <g id="Group_41" data-name="Group 41">
      <g id="Group_24" data-name="Group 24">
        <g class="cls-3">
          <g id="Group_23" data-name="Group 23">
            <path id="Path_1" data-name="Path 1" d="m200.74,61.87H7.72c-4.26-.02-7.71-3.47-7.72-7.74V7.73C0,3.47,3.46.02,7.72,0h193.02c4.26.02,7.71,3.47,7.72,7.73v46.4c0,4.26-3.46,7.72-7.72,7.73"/>
            <path id="Path_2" data-name="Path 2" class="cls-6" d="m200.74,0H7.72C3.46.02,0,3.47,0,7.73v46.4c0,4.26,3.46,7.72,7.72,7.73h193.02c4.26-.02,7.71-3.47,7.72-7.73V7.73c0-4.26-3.46-7.72-7.72-7.73m0,1.24c3.58,0,6.48,2.91,6.49,6.5v46.4c0,3.58-2.9,6.49-6.49,6.5H7.72c-3.58,0-6.48-2.91-6.49-6.5V7.73c0-3.58,2.9-6.49,6.49-6.5h193.02"/>
            <path id="Path_3" data-name="Path 3" class="cls-5" d="m73.22,15.84c.06,1.15-.36,2.27-1.15,3.1-.89.92-2.12,1.42-3.4,1.37-2.64.02-4.79-2.09-4.82-4.73,0-.04,0-.08,0-.12-.04-2.64,2.06-4.81,4.7-4.85.04,0,.08,0,.12,0,.65,0,1.3.13,1.9.39.56.23,1.05.58,1.45,1.04l-.81.82c-.63-.74-1.57-1.15-2.54-1.1-.95-.01-1.86.36-2.53,1.03-.72.7-1.11,1.67-1.07,2.68-.07,1.98,1.48,3.64,3.46,3.71.05,0,.09,0,.14,0,.97.03,1.9-.35,2.59-1.03.48-.51.75-1.18.78-1.88h-3.36v-1.1h4.49c.04.23.06.47.07.7"/>
            <path id="Path_4" data-name="Path 4" class="cls-5" d="m73.22,15.84h-.15c.06,1.11-.34,2.19-1.11,2.99h0c-.86.89-2.06,1.37-3.29,1.33-2.55.02-4.64-2.03-4.66-4.58,0-.04,0-.08,0-.11-.04-2.55,2-4.65,4.55-4.69.04,0,.07,0,.11,0,.63,0,1.26.13,1.84.38.54.22,1.01.56,1.39,1l.12-.1-.11-.11-.83.81.11.11.12-.1c-.66-.78-1.64-1.21-2.65-1.16-.99-.01-1.94.38-2.63,1.07-.75.73-1.15,1.74-1.12,2.79-.07,2.07,1.56,3.79,3.62,3.86.04,0,.09,0,.13,0,1.01.03,1.99-.36,2.71-1.07.5-.54.79-1.24.82-1.98l.02-.17h-3.38v-.81h4.34v-.16l-.15.03c.04.22.06.45.06.67h.31c0-.24-.02-.49-.07-.73l-.02-.13h-4.77v1.42h3.52v-.15l-.15-.02c-.02.66-.28,1.3-.73,1.78-1.37,1.32-3.54,1.32-4.9,0-.69-.67-1.06-1.6-1.02-2.56-.04-.96.33-1.89,1.02-2.57.64-.64,1.51-1,2.42-.98.93-.05,1.82.34,2.42,1.04l.11.13.93-.94.1-.1-.09-.11c-.41-.47-.93-.84-1.51-1.08-.62-.27-1.29-.4-1.96-.4-2.72-.02-4.95,2.17-4.97,4.89,0,.04,0,.08,0,.11-.04,2.72,2.14,4.96,4.86,5,.03,0,.07,0,.1,0,1.32.05,2.6-.47,3.52-1.42l-.11-.11.11.11c.82-.86,1.25-2.02,1.2-3.21h-.16m7.12-3.87h-4.22v2.93h3.81v1.12h-3.81v2.94h4.22v1.14h-5.41v-9.28h5.41v1.15"/>
            <path id="Path_5" data-name="Path 5" class="cls-5" d="m80.34,11.97v-.15h-4.37v3.25h3.81v.81h-3.81v3.25h4.22v.83h-5.1v-8.97h5.1v.98h.31v-1.29h-5.72v9.59h5.72v-1.45h-4.22v-2.63h3.81v-1.43h-3.81v-2.64h4.22v-.14h-.16m5.02,8.14h-1.19v-8.14h-2.59v-1.14h6.37v1.14h-2.59v8.14"/>
            <path id="Path_6" data-name="Path 6" class="cls-5" d="m85.36,20.11v-.16h-1.04v-8.14h-2.59v-.83h6.05v.83h-2.59v8.29h.33v-7.99h2.59v-1.44h-6.68v1.44h2.59v8.14h1.51v-.16h-.16m7.19,0v-9.27h1.19v9.28h-1.2"/>
            <path id="Path_7" data-name="Path 7" class="cls-5" d="m92.56,20.11h.16v-9.12h.88v8.97h-1.03v.16h0v.16h1.34v-9.59h-1.51v9.59h.16v-.16m6.47,0h-1.19v-8.14h-2.59v-1.14h6.37v1.14h-2.59v8.14"/>
            <path id="Path_8" data-name="Path 8" class="cls-5" d="m99.03,20.11v-.16h-1.04v-8.14h-2.59v-.83h6.06v.83h-2.59v8.29h.31v-7.98h2.59v-1.45h-6.68v1.45h2.59v8.14h1.51v-.16h-.16m8.73-1.98c1.39,1.38,3.63,1.38,5.02,0,.69-.71,1.06-1.67,1.03-2.66.03-.99-.34-1.95-1.03-2.66-1.39-1.38-3.64-1.38-5.02,0-.69.71-1.06,1.67-1.03,2.66-.03.99.34,1.95,1.03,2.66m5.91.78c-1.87,1.87-4.91,1.87-6.78,0-.9-.91-1.4-2.16-1.37-3.44-.03-1.28.46-2.53,1.37-3.44,1.87-1.87,4.9-1.88,6.77-.01,0,0,0,0,.01.01,1.83,1.93,1.83,4.95,0,6.88"/>
            <path id="Path_9" data-name="Path 9" class="cls-5" d="m107.75,18.13l-.11.11c1.45,1.45,3.8,1.45,5.25,0,0,0,0,0,0,0,.72-.74,1.11-1.73,1.07-2.76.03-1.03-.36-2.03-1.07-2.76-1.45-1.45-3.8-1.45-5.25,0,0,0,0,0,0,0-.72.74-1.1,1.73-1.07,2.76-.03,1.03.36,2.03,1.07,2.76l.11-.11.11-.11c-.66-.68-1.02-1.6-.98-2.55-.03-.95.32-1.87.98-2.55,1.33-1.33,3.48-1.33,4.81,0,0,0,0,0,0,0,.66.68,1.02,1.6.98,2.55.03.95-.32,1.87-.98,2.55-1.33,1.33-3.48,1.33-4.81,0l-.11.11Zm5.91.78l-.11-.11c-1.82,1.81-4.76,1.81-6.57,0h0c-.87-.89-1.35-2.09-1.32-3.33-.03-1.24.45-2.45,1.32-3.33,1.81-1.81,4.74-1.82,6.56,0,0,0,0,0,0,0,1.77,1.87,1.77,4.79,0,6.66l.11.11.11.11c1.88-1.99,1.88-5.1,0-7.09-1.92-1.94-5.05-1.94-6.99-.02,0,0-.01.01-.02.02h0c-.93.94-1.44,2.22-1.41,3.55-.03,1.32.48,2.6,1.41,3.54h0c1.94,1.94,5.07,1.94,7.01,0,0,0,0,0,0,0l-.11-.1Zm3.03,1.2v-9.28h1.45l4.5,7.22h.05l-.05-1.79v-5.43h1.19v9.28h-1.23l-4.72-7.57h-.05l.05,1.79v5.78h-1.19"/>
            <path id="Path_10" data-name="Path 10" class="cls-5" d="m116.7,20.11h.16v-9.13h1.21l4.5,7.22h.3l-.06-1.94v-5.27h.88v8.97h-1l-4.7-7.57h-.29l.04,1.95v5.62h-1.03v.16h0v.16h1.34v-5.94l-.05-1.79h-.16v.16h.05v-.15l-.13.08,4.76,7.64h1.48v-9.59h-1.51v5.59l.05,1.79h.16v-.16h-.05v.16l.13-.08-4.54-7.29h-1.68v9.59h.15v-.16m48.43,26.29h2.88v-19.34h-2.88v19.34Zm25.95-12.37l-3.3,8.38h-.1l-3.43-8.38h-3.1l5.15,11.72-2.94,6.52h3.01l7.92-18.23h-3.21Zm-16.34,10.17c-.94,0-2.26-.47-2.26-1.64,0-1.49,1.64-2.06,3.05-2.06.92-.02,1.83.2,2.63.65-.22,1.73-1.68,3.04-3.43,3.06Zm.35-10.6c-2.15-.12-4.17,1.04-5.14,2.96l2.56,1.07c.52-.95,1.55-1.51,2.63-1.42,1.52-.15,2.88.97,3.03,2.49v.2c-.93-.5-1.96-.75-3.01-.75-2.76,0-5.57,1.51-5.57,4.35.1,2.46,2.18,4.38,4.64,4.28.05,0,.11,0,.16,0,1.48.09,2.89-.64,3.68-1.89h.1v1.49h2.78v-7.42c.04-2.93-2.29-5.33-5.22-5.38-.21,0-.43,0-.64.03Zm-17.81,2.78h-4.1v-6.63h4.1c1.83-.05,3.35,1.39,3.41,3.22s-1.39,3.35-3.22,3.41c-.06,0-.12,0-.18,0m-.07-9.32h-6.9v19.34h2.88v-7.33h4.02c3.32.17,6.14-2.39,6.31-5.7.17-3.32-2.39-6.14-5.7-6.31-.2-.01-.4-.01-.6,0h0Zm-37.65,17.14c-2.2-.18-3.84-2.12-3.66-4.32.16-1.95,1.71-3.49,3.66-3.66,2.05.1,3.62,1.84,3.53,3.88,0,.05,0,.09,0,.14.16,2.02-1.35,3.79-3.37,3.95-.05,0-.09,0-.14,0Zm3.31-9.09h-.1c-.89-.97-2.15-1.5-3.46-1.47-3.63.17-6.44,3.26-6.26,6.89.16,3.39,2.87,6.1,6.26,6.26,1.32.03,2.58-.52,3.46-1.51h.1v.95c0,2.51-1.34,3.86-3.52,3.86-1.48-.04-2.79-.96-3.31-2.34l-2.51,1.05c.97,2.36,3.27,3.9,5.82,3.89,3.38,0,6.24-1.99,6.24-6.85v-11.8h-2.73v1.07Zm4.73,11.29h2.89v-19.34h-2.89v19.34Zm7.14-6.38c-.13-1.99,1.37-3.7,3.36-3.83.02,0,.05,0,.07,0,1.02-.07,1.98.48,2.44,1.4l-5.87,2.44Zm8.95-2.19c-.81-2.44-3.05-4.11-5.61-4.18-3.45.02-6.23,2.84-6.2,6.29,0,.1,0,.19,0,.29-.08,3.55,2.73,6.5,6.28,6.58.08,0,.16,0,.24,0,2.2.01,4.26-1.08,5.48-2.92l-2.24-1.51c-.68,1.14-1.91,1.83-3.23,1.82-1.37.05-2.63-.74-3.18-1.99l8.79-3.64-.32-.74Zm-69.96-2.17v2.79h6.67c-.09,1.31-.62,2.55-1.51,3.52-1.35,1.38-3.22,2.12-5.15,2.04-4.1-.08-7.36-3.46-7.29-7.56.07-3.99,3.29-7.22,7.29-7.29,1.87-.02,3.68.69,5.02,1.99l1.95-1.96c-1.86-1.84-4.38-2.86-6.99-2.82-5.64,0-10.22,4.57-10.22,10.22s4.57,10.22,10.22,10.22c4.99.27,9.25-3.55,9.52-8.54.02-.29.02-.57,0-.86,0-.58-.04-1.17-.15-1.74h-9.38Zm17.11,8.54c-2.2.16-4.12-1.49-4.28-3.7-.16-2.2,1.49-4.12,3.7-4.28,2.2-.16,4.12,1.49,4.28,3.7,0,.1.01.2.01.29.1,2.1-1.52,3.88-3.61,3.98-.03,0-.06,0-.09,0m0-10.56c-3.63,0-6.57,2.96-6.56,6.59,0,3.63,2.96,6.57,6.59,6.56,3.63,0,6.56-2.95,6.56-6.58.05-3.58-2.8-6.52-6.38-6.58-.07,0-.14,0-.21,0m14.38,10.56c-2.2.16-4.12-1.49-4.28-3.7-.16-2.2,1.49-4.12,3.7-4.28,2.2-.16,4.12,1.49,4.28,3.7,0,.1.01.2.01.29.11,2.1-1.51,3.88-3.61,3.99-.03,0-.07,0-.1,0h0Zm0-10.56c-3.63,0-6.57,2.96-6.56,6.59,0,3.63,2.96,6.57,6.59,6.56,3.63,0,6.56-2.95,6.56-6.58.05-3.58-2.81-6.52-6.38-6.57-.07,0-.14,0-.21,0h0Z"/>
            <path id="Path_11" data-name="Path 11" class="cls-4" d="m16.23,11.77c-.59.61-.89,1.44-.83,2.29v33.75c-.05.79.21,1.57.72,2.17l.12.11c.38.33.86.51,1.37.5.61-.02,1.21-.2,1.73-.52l22.41-12.76,7.7-4.38c.83-.38,1.43-1.12,1.62-2.01h0c-.19-.89-.79-1.63-1.62-2.01l-7.7-4.38-22.41-12.76c-.52-.32-1.12-.5-1.73-.52-.5-.01-.99.17-1.36.5Z"/>
          </g>
        </g>
      </g>
      <g id="Group_26" data-name="Group 26">
        <g class="cls-7">
          <g id="Group_25" data-name="Group 25">
            <path id="Path_12" data-name="Path 12" class="cls-2" d="m43.53,19.93l-12.41,45.85L7.23,41.94,19.65-3.92l23.88,23.84Z"/>
          </g>
        </g>
      </g>
      <g id="Group_28" data-name="Group 28">
        <g class="cls-10">
          <g id="Group_27" data-name="Group 27">
            <rect id="Rectangle_8" data-name="Rectangle 8" class="cls-18" x="35.36" y="24.55" width="15.7" height="12.78"/>
          </g>
        </g>
      </g>
      <g id="Group_30" data-name="Group 30">
        <g class="cls-9">
          <g id="Group_29" data-name="Group 29">
            <path id="Path_15" data-name="Path 15" class="cls-16" d="m54.06,43.32l-28.38,16.77L3.91,38.21l28.38-16.77,21.76,21.88Z"/>
          </g>
        </g>
      </g>
      <g id="Group_32" data-name="Group 32">
        <g class="cls-8">
          <g id="Group_31" data-name="Group 31">
            <path id="Path_17" data-name="Path 17" class="cls-17" d="m25.69,1.77l28.38,16.79-21.78,21.87L3.9,23.64,25.69,1.77Z"/>
          </g>
        </g>
      </g>
      <g id="Group_34" data-name="Group 34">
        <g class="cls-14">
          <g id="Group_33" data-name="Group 33">
            <path id="Path_19" data-name="Path 19" class="cls-21" d="m16.49,48.07l-.35,2.88-1-1,.34-2.88,1.01,1Z"/>
          </g>
        </g>
      </g>
      <g id="Group_36" data-name="Group 36">
        <g class="cls-13">
          <g id="Group_35" data-name="Group 35">
            <rect id="Rectangle_9" data-name="Rectangle 9" class="cls-19" x="41.74" y="30.94" width="9.32" height="6.53"/>
          </g>
        </g>
      </g>
      <g id="Group_38" data-name="Group 38">
        <g class="cls-11">
          <g id="Group_37" data-name="Group 37">
            <rect id="Rectangle_10" data-name="Rectangle 10" class="cls-20" x="41.74" y="24.4" width="9.32" height="6.53"/>
          </g>
        </g>
      </g>
      <g id="Group_40" data-name="Group 40">
        <g class="cls-12">
          <g id="Group_39" data-name="Group 39">
            <path id="Path_23" data-name="Path 23" class="cls-15" d="m16.49,11.94l-.35,2.89-1-1.04.36-2.89.99,1.04Z"/>
          </g>
        </g>
      </g>
    </g>
  </g>
</svg>